<?xml version="1.0" encoding="utf-8"?>
<!-- Generator: Adobe Illustrator 16.0.0, SVG Export Plug-In . SVG Version: 6.00 Build 0)  -->
<!DOCTYPE svg PUBLIC "-//W3C//DTD SVG 1.1//EN" "http://www.w3.org/Graphics/SVG/1.1/DTD/svg11.dtd">
<svg version="1.1" id="Layer_1" xmlns="http://www.w3.org/2000/svg" xmlns:xlink="http://www.w3.org/1999/xlink" x="0px" y="0px"
	 width="708.662px" height="708.662px" viewBox="0 0 708.662 708.662" enable-background="new 0 0 708.662 708.662"
	 xml:space="preserve">
<path fill="#1D1D1B" stroke="#FFFFFF" stroke-miterlimit="10" d="M694.815,153.167C663.478,128.428,572.764,97.09,568.639,95.44
	L435.044,53.381c-7.423-2.474-15.669-2.474-23.091,0.825c-18.144,7.422-57.729,7.422-57.729,7.422
	c-10.72,0-42.882-1.649-57.726-7.422c-7.424-3.299-15.669-3.299-23.917-0.825L139.81,96.265
	c-4.124,1.649-94.014,32.163-126.176,57.727c-3.298,2.475-4.123,7.422-1.648,10.721l73.396,127.824
	c1.649,3.3,5.772,4.949,9.896,4.123c5.772-1.647,23.916-4.946,32.987,0c3.298,1.65,4.947,4.125,6.597,8.248l-6.596,343.887
	c0,2.476,0.824,4.124,2.475,5.772c1.649,1.648,3.299,2.476,5.772,2.476h436.252c2.475,0,4.123-0.826,5.771-2.476
	c1.648-1.648,2.476-4.124,2.476-5.772l-6.599-343.887c0.825-3.299,3.3-5.773,6.599-8.248c9.896-5.772,27.214-2.474,32.987,0
	c3.297,0.824,7.422-0.824,9.895-4.123l73.398-127.824C698.939,160.59,698.115,155.641,694.815,153.167z M354.225,142.447
	c-32.986,0-50.304-17.318-59.376-32.162c-9.895-15.669-11.545-30.513-11.545-31.338c0-3.299,1.651-5.773,4.949-5.773
	c0,0,0,0,0.824,0c2.475,0,4.948,1.649,5.772,4.948c0,0,1.651,14.02,9.896,27.214c10.722,17.318,28.039,26.39,50.306,26.39
	c22.267,0,39.584-9.072,50.304-26.39c8.248-13.195,9.897-26.39,9.897-27.214c0-2.474,2.474-4.948,5.772-4.948c0,0,0,0,0.823,0
	c3.3,0,4.949,3.299,4.949,5.773c0,0.825-1.649,15.669-11.546,31.338C404.532,125.128,387.214,142.447,354.225,142.447z
	 M397.933,75.648L397.933,75.648L397.933,75.648c0,0-1.648,10.721-7.422,20.617c-8.247,13.195-19.793,18.968-36.288,18.968
	c-16.493,0-28.038-5.773-36.285-18.143c-6.597-9.896-7.422-20.617-7.422-20.617l0,0c19.792,3.299,42.884,3.299,43.707,3.299
	C355.876,78.947,378.139,78.947,397.933,75.648z M96.103,278.518L29.305,162.24c33.811-22.268,114.63-50.306,115.454-50.306
	l122.052-38.76c-0.824,2.474-0.824,4.948-0.824,7.422c0,1.649,2.474,19.792,14.02,37.934c2.475,4.125,4.949,7.423,8.247,10.721
	c-96.488,27.216-148.443,122.053-161.638,149.267C115.894,275.219,103.525,276.869,96.103,278.518z M144.758,639.726l6.598-336.467
	c0-0.825,0-1.648,0-2.473c-1.648-6.598-4.948-11.547-9.07-15.669c12.368-24.741,65.147-120.403,159.984-141.845
	c0.825,0,0.825-0.825,1.65-0.825c14.019,9.896,31.337,15.669,51.13,15.669c18.968,0,36.285-4.948,50.304-14.844l0,0
	c97.312,21.442,150.916,122.052,160.812,143.494c-3.3,3.298-5.772,8.247-7.421,13.195c0,0.825,0,1.649,0,2.473l6.597,336.465
	H144.758V639.726z M612.348,278.518c-7.423-1.649-20.617-3.299-32.985,0.825c-12.37-25.565-63.501-120.403-159.987-148.442
	c3.298-3.298,5.772-7.422,9.071-11.546c11.545-18.142,13.193-36.285,14.021-37.934c0-2.474,0-4.948-0.826-7.422l122.054,37.936
	c0.824,0,81.643,28.038,115.452,50.306L612.348,278.518z"/>
</svg>
