<?xml version="1.0" encoding="utf-8"?>
<!-- Generator: Adobe Illustrator 16.0.0, SVG Export Plug-In . SVG Version: 6.00 Build 0)  -->
<!DOCTYPE svg PUBLIC "-//W3C//DTD SVG 1.1//EN" "http://www.w3.org/Graphics/SVG/1.1/DTD/svg11.dtd">
<svg version="1.1" id="Layer_1" xmlns="http://www.w3.org/2000/svg" xmlns:xlink="http://www.w3.org/1999/xlink" x="0px" y="0px"
	 width="538.583px" height="425.197px" viewBox="-56.693 0 538.583 425.197" enable-background="new -56.693 0 538.583 425.197"
	 xml:space="preserve">
<g>
	<path d="M227.664,318.261c-41.074,0-78.576-23.812-95.838-61.314c-11.905-25.598-13.096-54.17-3.571-80.958
		c9.524-26.788,29.169-47.623,54.767-59.528c10.715-5.356,22.62-8.334,34.525-9.523c2.382,0,5.357,1.189,5.953,3.57
		c1.189,2.381,0.596,5.357-1.19,7.145c-27.977,27.979-35.715,70.243-19.047,105.96c15.476,32.74,48.811,54.17,84.528,54.17
		c2.978,0,5.953,0,8.931-0.596c2.381,0,5.356,1.189,5.953,3.572c1.189,2.381,0.595,5.355-1.19,7.143
		c-8.334,8.334-18.454,15.479-29.169,20.24C258.024,314.688,243.142,318.261,227.664,318.261z M202.069,122.413
		c-4.763,1.191-9.524,2.978-13.691,5.358c-22.621,10.715-39.884,29.168-48.218,52.979c-8.334,23.217-7.144,48.814,2.978,71.435
		c15.478,32.74,48.812,54.17,84.528,54.17c13.691,0,26.788-2.977,39.289-8.93c4.763-1.785,8.93-4.764,12.5-7.145
		c-38.098-2.977-72.027-26.191-88.099-60.717C175.876,193.847,180.043,152.772,202.069,122.413z"/>
</g>
</svg>
