<?xml version="1.0" encoding="utf-8"?>
<!-- Generator: Adobe Illustrator 16.0.0, SVG Export Plug-In . SVG Version: 6.00 Build 0)  -->
<!DOCTYPE svg PUBLIC "-//W3C//DTD SVG 1.1//EN" "http://www.w3.org/Graphics/SVG/1.1/DTD/svg11.dtd">
<svg version="1.1" id="Layer_1" xmlns="http://www.w3.org/2000/svg" xmlns:xlink="http://www.w3.org/1999/xlink" x="0px" y="0px"
	 width="538.582px" height="538.583px" viewBox="0 0 538.582 538.583" enable-background="new 0 0 538.582 538.583"
	 xml:space="preserve">
<g>
	<path fill="#F3E59A" d="M281.213,368.071c-39.264,0-75.109-22.76-91.61-58.607c-11.38-24.469-10.226-51.375-1.12-76.979
		c9.104-25.606,28.53-45.12,53-56.5c10.242-5.12,18.681-8.775,30.061-9.912c2.277,0,5.12,1.137,5.689,3.412
		c1.136,2.275-1.542,4.791-3.25,6.5c-26.744,26.745-32.934,70.108-17,104.25c14.793,31.297,45.019,58.327,79.158,58.327
		c2.848,0,5.69,0,8.539-0.569c2.274,0,5.119,1.137,5.688,3.414c1.137,2.276,0.568,5.118-1.137,6.827
		c-7.967,7.968-15.094,5.617-25.336,10.168C310.234,364.657,296.009,368.071,281.213,368.071z"/>
	<g>
		<path fill="#2C3E50" d="M284.355,374.952c-41.074,0-78.576-23.811-95.838-61.312c-11.905-25.601-13.098-54.171-3.571-80.958
			c9.523-26.788,29.169-47.623,54.769-59.528c10.716-5.356,22.62-8.334,34.523-9.523c2.384,0,5.356,1.189,5.953,3.57
			c1.188,2.381,0.598,5.357-1.188,7.145c-27.979,27.979-35.715,70.243-19.047,105.959c15.477,32.74,48.812,54.171,84.526,54.171
			c2.979,0,5.953,0,8.933-0.597c2.382,0,5.354,1.188,5.951,3.57c1.188,2.383,0.598,5.355-1.188,7.145
			c-8.334,8.334-18.454,15.479-29.169,20.24C314.717,371.379,299.834,374.952,284.355,374.952z M258.76,179.105
			c-4.764,1.19-9.523,2.978-13.69,5.357c-22.621,10.715-39.884,29.168-48.218,52.979c-8.334,23.217-7.146,48.812,2.979,71.435
			c15.479,32.74,48.812,54.17,84.526,54.17c13.689,0,26.788-2.978,39.289-8.931c4.765-1.784,8.932-4.764,12.5-7.146
			c-38.1-2.979-72.025-26.19-88.101-60.717C232.567,250.539,236.734,209.463,258.76,179.105z"/>
	</g>
</g>
</svg>
