<?xml version="1.0" encoding="utf-8"?>
<!-- Generator: Adobe Illustrator 16.0.0, SVG Export Plug-In . SVG Version: 6.00 Build 0)  -->
<!DOCTYPE svg PUBLIC "-//W3C//DTD SVG 1.1//EN" "http://www.w3.org/Graphics/SVG/1.1/DTD/svg11.dtd">
<svg version="1.1" id="Layer_1" xmlns="http://www.w3.org/2000/svg" xmlns:xlink="http://www.w3.org/1999/xlink" x="0px" y="0px"
	 width="538.582px" height="538.583px" viewBox="0 0 538.582 538.583" enable-background="new 0 0 538.582 538.583"
	 xml:space="preserve">
<g>
	<g>
		<g>
			<path fill="#F3E59A" d="M315.822,349.374c-10.741,0-21.481-2.388-31.627-7.163c-38.784-17.307-56.092-63.255-38.192-102.04
				c12.531-27.45,39.983-45.349,70.412-45.349c10.743,0,21.486,2.387,31.628,7.162c38.785,17.305,56.093,63.256,38.194,102.039
				C373.707,331.473,346.256,349.374,315.822,349.374z"/>
		</g>
		<g>
			<g>
				<path fill="#2C3E50" d="M371.733,320.969c-1.188,0-2.382-0.596-3.571-1.19c-2.978-1.784-2.978-5.95-1.188-8.929
					c2.978-4.167,5.354-8.334,7.738-12.501c7.144-15.479,7.734-33.335,1.782-49.408c-5.949-16.072-17.854-29.168-33.931-35.717
					c-24.407-11.312-53.576-5.357-72.625,13.691c-2.382,2.381-6.549,2.381-8.93,0s-2.381-6.549,0-8.93
					c22.62-23.216,57.146-29.764,86.911-16.072c18.452,8.334,32.736,23.812,40.479,42.861c7.146,19.049,6.548,39.883-1.786,58.934
					c-2.381,5.354-5.354,10.715-8.93,14.881C375.304,319.779,373.518,320.969,371.733,320.969z"/>
			</g>
		</g>
	</g>
	<path fill="#ECF0F1" d="M129.49,313.202c-23.887,0-43.372,19.549-43.372,43.51c0,23.963,19.485,43.51,43.372,43.51h188.576
		c23.886,0,43.372-19.547,43.372-43.51c0-23.961-19.486-43.51-43.372-43.51c-2.514,0-5.029,0-7.543,0.631
		c-1.886,0-3.771,0-5.031-1.261c-1.256-1.261-2.516-2.522-2.516-4.413c-5.654-39.096-39.604-68.733-79.201-68.733
		c-39.604,0-73.543,29.638-79.202,68.733c0,1.891-1.257,3.152-2.516,4.413c-1.256,1.263-3.146,1.263-5.03,1.263
		C133.89,313.202,131.376,313.202,129.49,313.202z"/>
	<g>
		<g>
			<path fill="#2C3E50" d="M313.755,409.071H135.167c-29.764,0-53.575-23.812-53.575-53.574c0-29.764,23.812-53.574,53.575-53.574
				c1.19,0,1.786,0,2.979,0c8.929-39.881,44.646-69.646,86.312-69.646s77.39,29.169,86.314,69.646c1.19,0,2.382,0,2.979,0
				c29.764,0,53.571,23.812,53.571,53.574C367.326,385.256,343.515,409.071,313.755,409.071z M135.167,314.42
				c-22.62,0-41.074,18.453-41.074,41.072c0,22.621,18.454,41.074,41.074,41.074h178.587c22.616,0,41.07-18.453,41.07-41.074
				c0-22.619-18.453-41.072-41.07-41.072c-2.385,0-4.767,0-7.146,0.598c-1.785,0-3.57,0-4.762-1.189
				c-1.191-1.19-2.386-2.383-2.386-4.166c-5.354-36.908-37.501-64.887-75.004-64.887s-69.646,27.979-75.005,64.887
				c0,1.783-1.188,2.976-2.382,4.166c-1.19,1.189-2.979,1.189-4.762,1.189C139.93,314.42,137.548,314.42,135.167,314.42z"/>
		</g>
		<g>
			<path fill="#2C3E50" d="M448.284,337.635c-0.596,0-1.786,0-2.382-0.596l-35.121-16.072c-2.977-1.188-4.763-5.355-2.977-8.334
				c1.188-2.978,5.354-4.762,8.333-2.978l35.122,16.072c2.977,1.188,4.762,5.354,2.977,8.333
				C453.051,336.447,450.665,337.635,448.284,337.635z"/>
		</g>
		<g>
			<path fill="#2C3E50" d="M359.592,180.484c-0.6,0-1.786,0-2.386-0.595c-2.977-1.19-4.762-5.358-2.977-8.334l16.072-35.121
				c1.188-2.978,5.354-4.763,8.334-2.978c2.978,1.19,4.762,5.356,2.978,8.334l-16.073,35.121
				C364.35,178.699,361.969,180.484,359.592,180.484z"/>
		</g>
		<g>
			<path fill="#2C3E50" d="M415.548,240.012c-2.385,0-4.767-1.786-5.953-4.167c-1.19-2.977,0.596-6.548,3.568-7.738l35.721-13.691
				c2.976-1.19,6.548,0.595,7.734,3.572c1.189,2.977-0.597,6.547-3.567,7.738l-35.721,13.691
				C417.33,240.012,416.734,240.012,415.548,240.012z"/>
		</g>
		<g>
			<path fill="#2C3E50" d="M278.034,177.506c-2.381,0-4.762-1.786-5.952-4.167l-13.69-35.717c-1.189-2.976,0.597-6.547,3.568-7.738
				c2.979-1.188,6.552,0.597,7.738,3.572l13.69,35.717c1.188,2.978-0.6,6.548-3.57,7.738
				C279.225,177.506,278.629,177.506,278.034,177.506z"/>
		</g>
	</g>
</g>
</svg>
