<?xml version="1.0" encoding="utf-8"?>
<!-- Generator: Adobe Illustrator 16.0.0, SVG Export Plug-In . SVG Version: 6.00 Build 0)  -->
<!DOCTYPE svg PUBLIC "-//W3C//DTD SVG 1.1//EN" "http://www.w3.org/Graphics/SVG/1.1/DTD/svg11.dtd">
<svg version="1.1" id="Layer_1" xmlns="http://www.w3.org/2000/svg" xmlns:xlink="http://www.w3.org/1999/xlink" x="0px" y="0px"
	 width="538.582px" height="538.583px" viewBox="0 0 538.582 538.583" enable-background="new 0 0 538.582 538.583"
	 xml:space="preserve">
<g>
	<g>
		<path fill="#F3E59A" d="M373.738,276.076c-39.716,0-75.979-23.326-92.669-60.062c-11.512-25.08-12.666-53.068-3.452-79.311
			c9.208-26.242,28.203-46.652,52.957-58.315c10.361-5.247,21.872-8.164,33.381-9.329c2.306,0,5.18,1.165,5.757,3.498
			c1.148,2.333,0.578,5.248-1.148,7c-27.054,27.41-34.533,68.812-18.418,103.801c14.967,32.074,47.198,53.068,81.73,53.068
			c2.881,0,5.756,0,8.638-0.584c2.305,0,5.178,1.163,5.754,3.497c1.149,2.334,0.579,5.245-1.147,6.999
			c-8.059,8.164-17.844,15.162-28.204,19.828C403.094,272.576,388.703,276.076,373.738,276.076z"/>
	</g>
	<g>
		<path fill="#2C3E50" d="M397.336,273.227c-2.977,0-5.354-1.784-5.951-4.762c-0.597-3.572,1.189-6.55,4.767-7.146
			c6.548-1.188,13.097-3.57,19.049-6.553c4.167-1.783,8.334-4.165,12.501-7.145c-37.503-2.979-70.838-25.598-86.911-59.527
			c-16.071-34.525-11.904-74.408,9.521-104.769c-4.762,1.189-8.929,2.977-13.097,4.762c-26.188,12.501-44.646,35.717-51.193,63.694
			c-0.595,3.57-4.167,5.357-7.143,4.763c-3.572-0.595-5.358-4.167-4.767-7.146c7.146-32.145,27.979-58.335,57.745-72.623
			c10.715-4.762,22.021-8.334,33.931-9.524c2.381,0,5.354,1.19,5.953,3.572c1.188,2.381,0.595,5.356-1.189,7.143
			c-27.979,27.384-35.122,69.055-19.05,104.176c16.667,35.121,53.575,56.549,92.271,52.383c2.383,0,5.354,1.189,5.949,3.57
			c1.189,2.383,0.601,5.355-1.188,7.145c-8.334,8.334-18.454,14.888-29.169,20.24C412.219,268.463,404.484,272.033,397.336,273.227
			C397.104,273.223,397.336,273.227,397.336,273.227z"/>
	</g>
</g>
<g>
	<path fill="#ECF0F1" d="M138.489,241.202c-23.887,0-43.372,19.551-43.372,43.511c0,23.963,19.485,43.51,43.372,43.51h188.577
		c23.886,0,43.372-19.547,43.372-43.51c0-23.96-19.486-43.511-43.372-43.511c-2.514,0-5.029,0-7.543,0.632
		c-1.886,0-3.771,0-5.031-1.261c-1.256-1.261-2.516-2.521-2.516-4.414c-5.654-39.095-39.604-68.731-79.202-68.731
		c-39.604,0-73.543,29.638-79.202,68.731c0,1.893-1.257,3.153-2.516,4.414c-1.257,1.263-3.146,1.263-5.03,1.263
		C142.889,241.202,140.374,241.202,138.489,241.202z"/>
	<g>
		<g>
			<path fill="#2C3E50" d="M184.748,470.202c-0.596,0-1.786,0-2.382-0.596c-2.976-1.189-4.762-4.764-3.571-8.334l8.935-22.025
				c1.188-2.979,4.762-4.762,8.334-3.57c2.976,1.189,4.762,4.764,3.566,8.334l-8.93,22.023
				C189.51,469.008,187.129,470.202,184.748,470.202z"/>
		</g>
		<g>
			<path fill="#2C3E50" d="M204.392,422.579c-0.6,0-1.785,0-2.383-0.596c-2.979-1.189-4.765-4.766-3.569-8.334l23.811-57.742
				c1.191-2.98,4.767-4.763,8.334-3.57c2.979,1.188,4.767,4.763,3.572,8.334l-23.812,57.74
				C209.155,421.385,206.774,422.579,204.392,422.579z"/>
		</g>
		<g>
			<path fill="#2C3E50" d="M269.278,458.889c-0.595,0-1.785,0-2.381-0.598c-2.979-1.188-4.768-4.764-3.571-8.332l13.693-32.742
				c1.188-2.977,4.762-4.762,8.332-3.568c2.978,1.188,4.764,4.764,3.568,8.334l-13.688,32.738
				C274.041,457.102,271.66,458.889,269.278,458.889z"/>
		</g>
		<g>
			<path fill="#2C3E50" d="M293.09,401.745c-0.596,0-1.782,0-2.382-0.596c-2.977-1.189-4.762-4.766-3.567-8.335l15.479-36.908
				c1.189-2.978,4.766-4.762,8.334-3.569c2.979,1.188,4.766,4.764,3.57,8.334l-15.479,36.906
				C297.851,400.551,295.471,401.745,293.09,401.745z"/>
		</g>
		<g>
			<path fill="#2C3E50" d="M118.672,436.866c-0.596,0-1.782,0-2.381-0.598c-2.977-1.188-4.763-4.764-3.568-8.334l14.283-34.523
				c1.19-2.979,4.767-4.765,8.334-3.572c2.979,1.19,4.767,4.766,3.571,8.334l-14.287,34.525
				C123.434,435.672,121.053,436.866,118.672,436.866z"/>
		</g>
		<g>
			<path fill="#2C3E50" d="M143.674,376.146c-0.596,0-1.782,0-2.382-0.597c-2.977-1.188-4.167-4.764-2.977-7.737l4.763-11.312
				c1.19-2.979,4.763-4.766,8.334-3.571c2.979,1.188,4.762,4.764,3.571,8.334l-4.763,11.312
				C148.436,374.956,146.65,376.146,143.674,376.146z"/>
		</g>
		<g>
			<path fill="#2C3E50" d="M321.663,336.857H143.078c-29.764,0-53.575-23.812-53.575-53.575c0-29.763,23.812-53.573,53.575-53.573
				c1.19,0,1.786,0,2.979,0c8.93-39.886,44.646-69.648,86.312-69.648c41.667,0,77.391,29.169,86.316,69.648c1.19,0,2.382,0,2.978,0
				c29.768,0,53.575,23.811,53.575,53.573C375.239,313.045,351.427,336.857,321.663,336.857z M143.078,241.612
				c-22.621,0-41.074,18.454-41.074,41.075c0,22.619,18.453,41.071,41.074,41.071h178.584c22.62,0,41.074-18.451,41.074-41.071
				c0-22.621-18.454-41.075-41.074-41.075c-2.381,0-4.764,0-7.145,0.597c-1.786,0-3.57,0-4.762-1.19
				c-1.192-1.19-2.383-2.381-2.383-4.167c-5.356-36.906-37.505-64.885-75.008-64.885s-69.646,27.979-75.005,64.885
				c0,1.786-1.191,2.977-2.382,4.167c-1.191,1.19-2.979,1.19-4.764,1.19C147.841,242.208,145.459,241.612,143.078,241.612z"/>
		</g>
	</g>
</g>
</svg>
