<?xml version="1.0" encoding="utf-8"?>
<!-- Generator: Adobe Illustrator 16.0.0, SVG Export Plug-In . SVG Version: 6.00 Build 0)  -->
<!DOCTYPE svg PUBLIC "-//W3C//DTD SVG 1.1//EN" "http://www.w3.org/Graphics/SVG/1.1/DTD/svg11.dtd">
<svg version="1.1" id="Layer_1" xmlns="http://www.w3.org/2000/svg" xmlns:xlink="http://www.w3.org/1999/xlink" x="0px" y="0px"
	 width="538.582px" height="538.583px" viewBox="0 -56.693 538.582 538.583" enable-background="new 0 -56.693 538.582 538.583"
	 xml:space="preserve">
<g>
	<g>
		<path d="M395.775,284.628c-2.977,0-5.355-1.785-5.951-4.762c-0.597-3.572,1.189-6.549,4.763-7.145
			c6.548-1.189,13.097-3.57,19.049-6.55c4.167-1.785,8.334-4.166,12.501-7.144c-37.503-2.977-70.838-25.598-86.911-59.528
			c-16.071-34.526-11.904-74.409,9.523-104.769c-4.762,1.189-8.929,2.977-13.097,4.762c-26.19,12.501-44.646,35.717-51.193,63.695
			c-0.595,3.57-4.167,5.357-7.143,4.762c-3.572-0.595-5.358-4.167-4.765-7.145c7.146-32.145,27.979-58.336,57.743-72.623
			c10.715-4.762,22.024-8.334,33.931-9.524c2.381,0,5.356,1.19,5.953,3.572c1.189,2.381,0.595,5.356-1.189,7.143
			c-27.979,27.384-35.122,69.054-19.05,104.176c16.667,35.121,53.575,56.55,92.269,52.384c2.383,0,5.357,1.189,5.953,3.57
			c1.189,2.383,0.597,5.357-1.189,7.145c-8.334,8.334-18.454,14.884-29.169,20.24c-7.145,2.978-14.286,5.953-21.431,7.144
			C396.371,284.628,395.775,284.628,395.775,284.628z"/>
	</g>
	<g>
		<path d="M321.962,346.538H143.378c-29.764,0-53.574-23.812-53.574-53.576s23.812-53.574,53.574-53.574c1.19,0,1.786,0,2.979,0
			c8.929-39.885,44.646-69.647,86.313-69.647s77.387,29.169,86.314,69.647c1.19,0,2.382,0,2.979,0
			c29.764,0,53.574,23.812,53.574,53.574C375.537,322.726,351.724,346.538,321.962,346.538z M143.378,251.888
			c-22.621,0-41.073,18.453-41.073,41.074c0,22.619,18.452,41.074,41.073,41.074h178.584c22.619,0,41.073-18.455,41.073-41.074
			c0-22.621-18.454-41.074-41.073-41.074c-2.382,0-4.764,0-7.146,0.596c-1.785,0-3.57,0-4.762-1.19
			c-1.19-1.188-2.382-2.381-2.382-4.166c-5.357-36.908-37.503-64.886-75.005-64.886c-37.503,0-69.646,27.979-75.005,64.886
			c0,1.785-1.19,2.978-2.382,4.166c-1.19,1.19-2.977,1.19-4.762,1.19C148.14,251.888,145.759,251.888,143.378,251.888z"/>
	</g>
</g>
</svg>
