<?xml version="1.0" encoding="utf-8"?>
<!-- Generator: Adobe Illustrator 16.0.0, SVG Export Plug-In . SVG Version: 6.00 Build 0)  -->
<!DOCTYPE svg PUBLIC "-//W3C//DTD SVG 1.1//EN" "http://www.w3.org/Graphics/SVG/1.1/DTD/svg11.dtd">
<svg version="1.1" id="Layer_1" xmlns="http://www.w3.org/2000/svg" xmlns:xlink="http://www.w3.org/1999/xlink" x="0px" y="0px"
	 width="538.582px" height="538.583px" viewBox="0 -56.693 538.582 538.583" enable-background="new 0 -56.693 538.582 538.583"
	 xml:space="preserve">
<g>
	<g>
		<path d="M377.743,352.378H199.159c-29.764,0-53.575-23.812-53.575-53.574c0-29.764,23.812-53.574,53.575-53.574
			c1.189,0,1.786,0,2.978,0c8.931-39.883,44.646-69.647,86.314-69.647c41.67,0,77.388,29.169,86.314,69.647c1.189,0,2.382,0,2.978,0
			c29.766,0,53.574,23.812,53.574,53.574C431.318,328.565,407.509,352.378,377.743,352.378z M198.565,257.729
			c-22.621,0-41.074,18.453-41.074,41.073s18.453,41.073,41.074,41.073h178.583c22.62,0,41.074-18.453,41.074-41.073
			s-18.454-41.073-41.074-41.073c-2.382,0-4.763,0-7.144,0.596c-1.786,0-3.572,0-4.764-1.189c-1.189-1.191-2.381-2.383-2.381-4.167
			c-5.356-36.907-37.504-64.886-75.006-64.886s-69.647,27.979-75.006,64.886c0,1.784-1.189,2.976-2.382,4.167
			c-1.188,1.189-2.977,1.189-4.762,1.189C203.326,257.729,200.946,257.729,198.565,257.729z"/>
	</g>
	<g>
		<path d="M435.486,264.276c-1.189,0-2.382-0.596-3.571-1.19c-2.978-1.784-2.978-5.951-1.189-8.929
			c2.978-4.167,5.356-8.334,7.738-12.501c7.144-15.479,7.737-33.335,1.785-49.408c-5.952-16.072-17.857-29.168-33.931-35.717
			c-24.407-11.312-53.576-5.357-72.625,13.691c-2.382,2.381-6.549,2.381-8.93,0c-2.381-2.381-2.381-6.549,0-8.93
			c22.62-23.216,57.146-29.764,86.911-16.072c18.453,8.334,32.739,23.812,40.479,42.861c7.145,19.048,6.548,39.884-1.786,58.934
			c-2.381,5.355-5.356,10.715-8.93,14.881C439.057,263.086,437.271,264.276,435.486,264.276z"/>
	</g>
	<g>
		<path d="M511.682,280.944c-0.596,0-1.786,0-2.382-0.596l-35.121-16.072c-2.978-1.19-4.763-5.357-2.978-8.334
			c1.189-2.978,5.356-4.762,8.334-2.978l35.122,16.072c2.977,1.19,4.763,5.356,2.977,8.334
			C516.443,279.754,514.062,280.944,511.682,280.944z"/>
	</g>
	<g>
		<path d="M423.58,123.791c-0.597,0-1.785,0-2.381-0.595c-2.978-1.19-4.764-5.358-2.978-8.334l16.072-35.122
			c1.188-2.977,5.355-4.762,8.334-2.977c2.977,1.19,4.763,5.356,2.977,8.334l-16.071,35.121
			C428.343,122.006,425.962,123.791,423.58,123.791z"/>
	</g>
	<g>
		<path d="M479.536,183.319c-2.381,0-4.763-1.786-5.953-4.167c-1.189-2.977,0.597-6.548,3.572-7.738l35.717-13.691
			c2.978-1.19,6.549,0.595,7.738,3.572s-0.596,6.547-3.571,7.738l-35.717,13.691C480.726,183.319,480.133,183.319,479.536,183.319z"
			/>
	</g>
	<g>
		<path d="M341.432,120.814c-2.382,0-4.763-1.786-5.953-4.167l-13.69-35.718c-1.189-2.976,0.596-6.547,3.57-7.738
			c2.979-1.189,6.55,0.596,7.739,3.572l13.69,35.717c1.189,2.977-0.596,6.548-3.571,7.738
			C343.218,120.814,342.622,120.814,341.432,120.814z"/>
	</g>
	<g>
		<path d="M143.203,242.847H77.127c-3.57,0-5.953-2.978-5.953-5.953c0-2.977,2.979-5.951,5.953-5.951h66.076
			c3.571,0,5.953,2.977,5.953,5.951C149.156,239.87,146.775,242.847,143.203,242.847z"/>
	</g>
	<g>
		<path d="M109.867,297.017H23.552c-3.569,0-5.951-2.977-5.951-5.951c0-2.978,2.977-5.953,5.951-5.953h86.911
			c3.571,0,5.953,2.977,5.953,5.953C116.416,294.04,113.44,297.017,109.867,297.017z"/>
	</g>
	<g>
		<path d="M134.869,350.591h-74.41c-3.57,0-5.952-2.976-5.952-5.951c0-2.977,2.978-5.953,5.952-5.953h74.41
			c3.571,0,5.953,2.978,5.953,5.953C140.823,347.615,138.441,350.591,134.869,350.591z"/>
	</g>
</g>
</svg>
