<?xml version="1.0" encoding="utf-8"?>
<!-- Generator: Adobe Illustrator 16.0.0, SVG Export Plug-In . SVG Version: 6.00 Build 0)  -->
<!DOCTYPE svg PUBLIC "-//W3C//DTD SVG 1.1//EN" "http://www.w3.org/Graphics/SVG/1.1/DTD/svg11.dtd">
<svg version="1.1" id="Layer_1" xmlns="http://www.w3.org/2000/svg" xmlns:xlink="http://www.w3.org/1999/xlink" x="0px" y="0px"
	 width="538.582px" height="425.197px" viewBox="0 0 538.582 425.197" enable-background="new 0 0 538.582 425.197"
	 xml:space="preserve">
<g>
	<g>
		<path d="M460.364,284.926c-2.978,0-5.357-1.785-5.953-4.763c-0.596-3.571,1.189-6.548,4.763-7.144
			c6.548-1.19,13.096-3.571,19.049-6.548c4.167-1.786,8.334-4.167,12.501-7.145c-36.907-2.977-70.243-25.597-86.314-60.123
			c-16.073-34.525-11.906-74.41,9.523-104.77c-4.763,1.189-8.93,2.977-13.097,4.763c-26.192,12.501-44.646,35.717-51.193,63.694
			c-0.596,3.572-4.167,5.357-7.144,4.763c-3.572-0.597-5.357-4.167-4.763-7.144c7.144-32.146,27.979-58.338,57.741-72.625
			c10.716-4.763,22.025-8.334,33.932-9.523c2.382,0,5.357,1.189,5.953,3.571c1.189,2.382,0.596,5.356-1.19,7.144
			c-27.979,27.383-35.121,69.053-19.049,104.174c16.668,35.122,53.575,56.553,92.269,52.386c2.381,0,5.357,1.189,5.952,3.571
			c1.191,2.382,0.596,5.357-1.189,7.144c-8.334,8.334-18.453,14.882-29.168,20.24c-7.145,2.976-14.287,5.951-21.432,7.143
			C461.554,284.926,460.959,284.926,460.364,284.926z"/>
	</g>
	<g>
		<path d="M387.143,346.835H208.561c-29.765,0-53.575-23.811-53.575-53.574c0-29.765,23.812-53.574,53.575-53.574
			c1.19,0,1.785,0,2.977,0c8.93-39.884,44.646-69.648,86.314-69.648c41.67,0,77.388,29.169,86.315,69.648c1.19,0,2.382,0,2.977,0
			c29.766,0,53.575,23.811,53.575,53.574S416.312,346.835,387.143,346.835z M207.965,251.592c-22.621,0-41.074,18.452-41.074,41.073
			c0,22.62,18.453,41.074,41.074,41.074h178.583c22.62,0,41.074-18.454,41.074-41.074c0-22.621-18.454-41.073-41.074-41.073
			c-2.382,0-4.763,0-7.144,0.596c-1.786,0-3.571,0-4.764-1.191c-1.189-1.189-2.381-2.381-2.381-4.167
			c-5.356-36.907-37.503-64.885-75.005-64.885s-69.646,27.978-75.005,64.885c0,1.786-1.19,2.978-2.381,4.167
			c-1.19,1.191-2.978,1.191-4.762,1.191C212.728,252.187,210.346,251.592,207.965,251.592z"/>
	</g>
	<g>
		<path d="M150.223,238.494H84.148c-3.571,0-5.953-2.976-5.953-5.952c0-2.976,2.977-5.953,5.953-5.953h66.075
			c3.571,0,5.953,2.978,5.953,5.953C156.176,235.519,153.794,238.494,150.223,238.494z"/>
	</g>
	<g>
		<path d="M117.484,292.665H30.573c-3.572,0-5.953-2.977-5.953-5.953c0-2.976,2.977-5.951,5.953-5.951h86.911
			c3.57,0,5.952,2.976,5.952,5.951C123.436,289.688,120.458,292.665,117.484,292.665z"/>
	</g>
	<g>
		<path d="M141.889,346.24H67.48c-3.571,0-5.953-2.977-5.953-5.953c0-2.976,2.977-5.952,5.953-5.952h74.409
			c3.571,0,5.953,2.977,5.953,5.952C147.842,343.264,145.46,346.24,141.889,346.24z"/>
	</g>
</g>
</svg>
