<?xml version="1.0" encoding="utf-8"?>
<!-- Generator: Adobe Illustrator 16.0.0, SVG Export Plug-In . SVG Version: 6.00 Build 0)  -->
<!DOCTYPE svg PUBLIC "-//W3C//DTD SVG 1.1//EN" "http://www.w3.org/Graphics/SVG/1.1/DTD/svg11.dtd">
<svg version="1.1" id="Layer_1" xmlns="http://www.w3.org/2000/svg" xmlns:xlink="http://www.w3.org/1999/xlink" x="0px" y="0px"
	 width="538.582px" height="425.197px" viewBox="0 0 538.582 425.197" enable-background="new 0 0 538.582 425.197"
	 xml:space="preserve">
<g>
	<g>
		<path d="M176.837,419.05c-0.596,0-1.786,0-2.381-0.597c-2.977-1.189-4.763-4.762-3.572-8.334l8.931-22.024
			c1.189-2.978,4.762-4.763,8.334-3.571c2.976,1.189,4.762,4.762,3.57,8.334l-8.93,22.024
			C181.599,417.858,179.218,419.05,176.837,419.05z"/>
	</g>
	<g>
		<path d="M196.483,371.427c-0.597,0-1.786,0-2.383-0.596c-2.977-1.189-4.762-4.763-3.57-8.334l23.812-57.742
			c1.19-2.977,4.763-4.763,8.333-3.571c2.978,1.189,4.764,4.763,3.572,8.334l-23.812,57.742
			C201.244,370.236,198.864,371.427,196.483,371.427z"/>
	</g>
	<g>
		<path d="M261.367,407.739c-0.595,0-1.785,0-2.381-0.596c-2.978-1.19-4.764-4.763-3.571-8.334l13.691-32.74
			c1.189-2.977,4.761-4.762,8.333-3.571c2.976,1.19,4.762,4.763,3.57,8.334l-13.69,32.74
			C266.129,406.55,263.748,407.739,261.367,407.739z"/>
	</g>
	<g>
		<path d="M285.178,350.591c-0.596,0-1.786,0-2.382-0.595c-2.976-1.189-4.762-4.763-3.571-8.334l15.479-36.907
			c1.189-2.977,4.762-4.763,8.334-3.571c2.977,1.189,4.762,4.763,3.57,8.334l-15.478,36.907
			C289.939,349.401,287.558,350.591,285.178,350.591z"/>
	</g>
	<g>
		<path d="M110.761,386.309c-0.596,0-1.786,0-2.381-0.595c-2.977-1.19-4.763-4.764-3.572-8.334l14.287-34.526
			c1.19-2.978,4.763-4.763,8.334-3.571c2.978,1.19,4.763,4.762,3.571,8.334l-14.286,34.525
			C115.524,384.523,113.143,386.309,110.761,386.309z"/>
	</g>
	<g>
		<path d="M135.763,324.995c-0.596,0-1.785,0-2.382-0.596c-2.976-1.19-4.762-4.762-3.57-8.333l4.763-11.312
			c1.189-2.977,4.762-4.763,8.333-3.571c2.977,1.189,4.763,4.763,3.572,8.334l-4.764,11.311
			C140.526,323.805,138.74,324.995,135.763,324.995z"/>
	</g>
	<g>
		<path d="M313.751,285.707H135.167c-29.764,0-53.575-23.812-53.575-53.575s23.812-53.575,53.575-53.575c1.19,0,1.786,0,2.978,0
			c8.929-39.883,44.646-69.647,86.314-69.647s77.386,29.169,86.314,69.647c1.19,0,2.382,0,2.978,0
			c29.764,0,53.575,23.812,53.575,53.575S343.515,285.707,313.751,285.707z M135.167,190.462c-22.62,0-41.074,18.454-41.074,41.074
			c0,22.621,18.454,41.074,41.074,41.074H313.75c22.62,0,41.074-18.453,41.074-41.074c0-22.62-18.453-41.074-41.074-41.074
			c-2.381,0-4.763,0-7.145,0.596c-1.785,0-3.57,0-4.762-1.19s-2.382-2.381-2.382-4.167c-5.357-36.907-37.501-64.886-75.004-64.886
			s-69.646,27.979-75.005,64.886c0,1.786-1.19,2.977-2.382,4.167c-1.19,1.19-2.977,1.19-4.762,1.19
			C139.93,191.058,137.548,190.462,135.167,190.462z"/>
	</g>
	<g>
		<path d="M371.493,197.011c-1.19,0-2.381-0.596-3.571-1.19c-2.977-1.786-2.977-5.953-1.191-8.93
			c2.978-4.166,5.358-8.334,7.739-12.5c7.145-15.478,7.738-33.336,1.786-49.408c-5.953-16.073-17.858-29.168-33.932-35.717
			c-24.406-11.311-53.575-5.357-72.624,13.691c-2.381,2.381-6.548,2.381-8.929,0c-2.383-2.382-2.383-6.549,0-8.93
			c22.619-23.216,57.146-29.764,86.909-16.072c18.454,8.333,32.74,23.812,40.479,42.86c7.737,19.049,6.548,39.884-1.786,58.933
			c-2.381,5.358-5.357,10.715-8.929,14.882C375.66,196.415,373.874,197.011,371.493,197.011z"/>
	</g>
	<g>
		<path d="M448.284,214.273c-0.596,0-1.786,0-2.382-0.596l-35.121-16.072c-2.977-1.19-4.763-5.357-2.977-8.333
			c1.19-2.978,5.357-4.763,8.333-2.978l35.122,16.072c2.977,1.191,4.762,5.358,2.977,8.334
			C453.047,213.083,450.665,214.273,448.284,214.273z"/>
	</g>
	<g>
		<path d="M359.588,56.524c-0.596,0-1.786,0-2.382-0.595c-2.977-1.191-4.762-5.358-2.977-8.334l16.072-35.123
			c1.19-2.977,5.357-4.762,8.334-2.977c2.978,1.19,4.762,5.357,2.978,8.334L365.54,52.952
			C364.35,55.334,361.969,56.524,359.588,56.524z"/>
	</g>
	<g>
		<path d="M415.544,116.647c-2.381,0-4.763-1.786-5.953-4.167c-1.19-2.977,0.596-6.549,3.572-7.739l35.717-13.69
			c2.976-1.19,6.548,0.596,7.738,3.571c1.189,2.978-0.597,6.548-3.571,7.739l-35.717,13.691
			C417.33,116.647,416.734,116.647,415.544,116.647z"/>
	</g>
	<g>
		<path d="M278.034,54.144c-2.381,0-4.762-1.786-5.952-4.167L258.39,14.26c-1.189-2.978,0.597-6.549,3.572-7.739
			c2.978-1.19,6.548,0.595,7.738,3.571l13.69,35.718c1.19,2.977-0.596,6.548-3.57,7.739
			C279.225,54.144,278.629,54.144,278.034,54.144z"/>
	</g>
</g>
</svg>
