<?xml version="1.0" encoding="utf-8"?>
<!-- Generator: Adobe Illustrator 16.0.0, SVG Export Plug-In . SVG Version: 6.00 Build 0)  -->
<!DOCTYPE svg PUBLIC "-//W3C//DTD SVG 1.1//EN" "http://www.w3.org/Graphics/SVG/1.1/DTD/svg11.dtd">
<svg version="1.1" id="Layer_1" xmlns="http://www.w3.org/2000/svg" xmlns:xlink="http://www.w3.org/1999/xlink" x="0px" y="0px"
	 width="538.582px" height="538.583px" viewBox="0 0 538.582 538.583" enable-background="new 0 0 538.582 538.583"
	 xml:space="preserve">
<g>
	<path fill="#ECF0F1" d="M177.182,262.201c-23.887,0-43.372,19.55-43.372,43.511c0,23.963,19.485,43.51,43.372,43.51h188.576
		c23.886,0,43.372-19.547,43.372-43.51c0-23.961-19.486-43.511-43.372-43.511c-2.514,0-5.029,0-7.543,0.631
		c-1.886,0-3.771,0-5.031-1.26c-1.256-1.261-2.516-2.522-2.516-4.414c-5.654-39.095-39.602-68.732-79.201-68.732
		c-39.603,0-73.543,29.638-79.202,68.732c0,1.892-1.257,3.153-2.516,4.414c-1.256,1.262-3.146,1.262-5.03,1.262
		C181.583,262.201,179.068,262.201,177.182,262.201z"/>
	<g>
		<path fill="#2C3E50" d="M358.583,357.393H179.999c-29.767,0-53.575-23.812-53.575-53.575c0-29.765,23.812-53.575,53.575-53.575
			c1.188,0,1.783,0,2.978,0c8.93-39.884,44.646-69.053,86.314-69.053c41.67,0,77.387,29.169,86.312,69.648c1.189,0,2.382,0,2.979,0
			c29.764,0,53.575,23.811,53.575,53.575C412.16,334.176,388.346,357.393,358.583,357.393z M179.999,262.744
			c-22.62,0-41.074,18.453-41.074,41.074c0,22.62,18.454,41.075,41.074,41.075h178.584c22.621,0,41.074-18.455,41.074-41.075
			c0-22.621-18.453-41.074-41.074-41.074c-2.383,0-4.764,0-7.146,0.595c-1.784,0-3.57,0-4.763-1.19
			c-1.189-1.189-2.382-2.381-2.382-4.167c-5.356-36.907-37.502-64.886-75.005-64.886s-69.646,27.979-75.008,64.886
			c0,1.786-1.188,2.978-2.381,4.167c-1.188,1.19-2.978,1.19-4.764,1.19C184.166,262.744,182.38,262.744,179.999,262.744z"/>
	</g>
</g>
</svg>
