<?xml version="1.0" encoding="utf-8"?>
<!-- Generator: Adobe Illustrator 16.0.0, SVG Export Plug-In . SVG Version: 6.00 Build 0)  -->
<!DOCTYPE svg PUBLIC "-//W3C//DTD SVG 1.1//EN" "http://www.w3.org/Graphics/SVG/1.1/DTD/svg11.dtd">
<svg version="1.1" id="Layer_1" xmlns="http://www.w3.org/2000/svg" xmlns:xlink="http://www.w3.org/1999/xlink" x="0px" y="0px"
	 width="538.582px" height="425.197px" viewBox="0 0 538.582 425.197" enable-background="new 0 0 538.582 425.197"
	 xml:space="preserve">
<g>
	<g>
		<path d="M395.775,284.628c-2.977,0-5.356-1.785-5.951-4.762c-0.597-3.572,1.189-6.549,4.762-7.145
			c6.548-1.189,13.097-3.57,19.049-6.549c4.167-1.785,8.334-4.166,12.501-7.143c-37.503-2.977-70.838-25.598-86.911-59.529
			c-16.071-34.526-11.904-74.409,9.524-104.769c-4.762,1.189-8.929,2.977-13.097,4.762c-26.191,12.501-44.646,35.717-51.193,63.695
			c-0.595,3.57-4.167,5.357-7.143,4.762c-3.572-0.595-5.358-4.167-4.764-7.145c7.145-32.145,27.979-58.336,57.742-72.623
			c10.715-4.762,22.025-8.334,33.931-9.524c2.381,0,5.357,1.19,5.953,3.572c1.19,2.381,0.595,5.356-1.189,7.143
			c-27.979,27.384-35.122,69.054-19.05,104.176c16.667,35.121,53.575,56.55,92.269,52.384c2.382,0,5.357,1.189,5.953,3.57
			c1.189,2.383,0.596,5.357-1.19,7.145c-8.334,8.334-18.454,14.883-29.169,20.24c-7.144,2.977-14.286,5.953-21.43,7.143
			C396.371,284.628,395.775,284.628,395.775,284.628z"/>
	</g>
	<g>
		<path d="M321.961,346.538H143.378c-29.764,0-53.575-23.812-53.575-53.576s23.812-53.574,53.575-53.574c1.19,0,1.786,0,2.978,0
			c8.929-39.885,44.646-69.648,86.314-69.648c41.668,0,77.386,29.169,86.314,69.648c1.19,0,2.382,0,2.978,0
			c29.764,0,53.575,23.811,53.575,53.574S351.724,346.538,321.961,346.538z M143.378,251.888c-22.621,0-41.074,18.453-41.074,41.074
			c0,22.619,18.453,41.074,41.074,41.074h178.583c22.62,0,41.074-18.455,41.074-41.074c0-22.621-18.454-41.074-41.074-41.074
			c-2.381,0-4.763,0-7.145,0.596c-1.785,0-3.57,0-4.762-1.191c-1.19-1.189-2.382-2.381-2.382-4.166
			c-5.357-36.908-37.502-64.886-75.004-64.886c-37.503,0-69.646,27.979-75.005,64.886c0,1.785-1.191,2.977-2.382,4.166
			c-1.19,1.191-2.977,1.191-4.762,1.191C148.14,251.888,145.759,251.888,143.378,251.888z"/>
	</g>
</g>
</svg>
