<?xml version="1.0" encoding="utf-8"?>
<!-- Generator: Adobe Illustrator 16.0.0, SVG Export Plug-In . SVG Version: 6.00 Build 0)  -->
<!DOCTYPE svg PUBLIC "-//W3C//DTD SVG 1.1//EN" "http://www.w3.org/Graphics/SVG/1.1/DTD/svg11.dtd">
<svg version="1.1" id="Layer_1" xmlns="http://www.w3.org/2000/svg" xmlns:xlink="http://www.w3.org/1999/xlink" x="0px" y="0px"
	 width="538.582px" height="425.197px" viewBox="0 0 538.582 425.197" enable-background="new 0 0 538.582 425.197"
	 xml:space="preserve">
<g>
	<path d="M371.084,289.39h-22.621l16.073-16.072c2.381-2.381,2.381-6.549,0-8.93c-2.382-2.382-6.549-2.382-8.931,0l-16.071,16.073
		v-22.62c0-3.572-2.978-5.953-5.953-5.953c-2.977,0-5.952,2.977-5.952,5.953v22.62l-16.073-16.073c-2.381-2.382-6.548-2.382-8.929,0
		c-2.382,2.381-2.382,6.549,0,8.93l16.072,16.072h-22.62c-3.572,0-5.953,2.977-5.953,5.953c0,2.976,2.977,5.952,5.953,5.952h22.62
		l-16.072,16.072c-2.382,2.381-2.382,6.549,0,8.93c1.19,1.189,2.977,1.785,4.167,1.785s2.977-0.596,4.167-1.785l16.072-16.071
		v22.619c0,3.571,2.977,5.952,5.953,5.952c2.976,0,5.951-2.977,5.951-5.952v-22.619l16.073,16.071
		c1.19,1.189,2.977,1.785,4.167,1.785s2.977-0.596,4.167-1.785c2.381-2.381,2.381-6.549,0-8.93l-14.287-15.477h22.621
		c3.571,0,5.952-2.978,5.952-5.953C377.631,292.961,374.656,289.39,371.084,289.39z"/>
	<path d="M251.432,314.392h-22.619l16.071-16.072c2.381-2.381,2.381-6.549,0-8.93s-6.548-2.381-8.93,0l-16.072,16.071v-22.618
		c0-3.572-2.977-5.953-5.952-5.953c-2.977,0-5.952,2.977-5.952,5.953v22.618l-16.072-15.477c-2.382-2.381-6.549-2.381-8.93,0
		c-2.382,2.381-2.382,6.549,0,8.93l16.071,16.072h-22.62c-3.571,0-5.952,2.977-5.952,5.953c0,2.976,2.977,5.953,5.952,5.953h22.62
		l-16.071,16.071c-2.382,2.382-2.382,6.548,0,8.929c1.189,1.19,2.977,1.787,4.167,1.787c1.189,0,2.977-0.597,4.167-1.787
		l16.071-16.072v22.621c0,3.572,2.978,5.953,5.953,5.953c2.977,0,5.953-2.978,5.953-5.953V335.82l16.072,16.072
		c1.189,1.19,2.977,1.787,4.167,1.787c1.189,0,2.977-0.597,4.167-1.787c2.381-2.381,2.381-6.547,0-8.929l-16.072-16.071h23.811
		c3.572,0,5.953-2.978,5.953-5.953C257.385,317.963,255.005,314.392,251.432,314.392z"/>
	<g>
		<path d="M358.583,237.601H179.999c-29.764,0-53.575-23.812-53.575-53.575s23.812-53.575,53.575-53.575c1.19,0,1.786,0,2.978,0
			c8.93-39.884,44.646-69.647,86.314-69.647c41.67,0,77.387,29.168,86.314,69.647c1.19,0,2.382,0,2.978,0
			c29.764,0,53.575,23.812,53.575,53.575C412.158,213.79,388.347,237.601,358.583,237.601z M179.999,142.951
			c-22.62,0-41.074,18.454-41.074,41.074s18.454,41.075,41.074,41.075h178.584c22.621,0,41.074-18.455,41.074-41.075
			s-18.453-41.074-41.074-41.074c-2.381,0-4.762,0-7.145,0.596c-1.784,0-3.57,0-4.762-1.19c-1.19-1.19-2.382-2.382-2.382-4.167
			c-5.357-36.907-37.502-64.887-75.005-64.887c-37.502,0-69.646,27.979-75.005,64.887c0,1.786-1.19,2.977-2.381,4.167
			c-1.191,1.19-2.978,1.19-4.763,1.19C184.166,142.951,182.38,142.951,179.999,142.951z"/>
	</g>
</g>
</svg>
