<?xml version="1.0" encoding="utf-8"?>
<!-- Generator: Adobe Illustrator 16.0.0, SVG Export Plug-In . SVG Version: 6.00 Build 0)  -->
<!DOCTYPE svg PUBLIC "-//W3C//DTD SVG 1.1//EN" "http://www.w3.org/Graphics/SVG/1.1/DTD/svg11.dtd">
<svg version="1.1" id="Layer_1" xmlns="http://www.w3.org/2000/svg" xmlns:xlink="http://www.w3.org/1999/xlink" x="0px" y="0px"
	 width="538.582px" height="538.583px" viewBox="0 -56.693 538.582 538.583" enable-background="new 0 -56.693 538.582 538.583"
	 xml:space="preserve">
<g>
	<g>
		<path d="M313.752,352.378H135.167c-29.764,0-53.575-23.812-53.575-53.574c0-29.764,23.812-53.574,53.575-53.574
			c1.19,0,1.786,0,2.979,0c8.929-39.883,44.646-69.647,86.313-69.647s77.387,29.169,86.314,69.647c1.19,0,2.382,0,2.979,0
			c29.764,0,53.574,23.812,53.574,53.574C367.326,328.565,343.515,352.378,313.752,352.378z M135.167,257.729
			c-22.62,0-41.074,18.453-41.074,41.073s18.454,41.073,41.074,41.073h178.584c22.619,0,41.073-18.453,41.073-41.073
			s-18.453-41.073-41.073-41.073c-2.382,0-4.764,0-7.146,0.596c-1.785,0-3.57,0-4.762-1.189c-1.191-1.191-2.383-2.383-2.383-4.167
			c-5.356-36.907-37.501-64.886-75.004-64.886s-69.646,27.979-75.005,64.886c0,1.784-1.189,2.976-2.382,4.167
			c-1.19,1.189-2.977,1.189-4.762,1.189C139.93,257.729,137.548,257.729,135.167,257.729z"/>
	</g>
	<g>
		<path d="M371.493,264.276c-1.189,0-2.381-0.596-3.57-1.19c-2.978-1.784-2.978-5.951-1.191-8.929
			c2.979-4.167,5.358-8.334,7.739-12.501c7.145-15.479,7.737-33.335,1.786-49.408c-5.953-16.072-17.858-29.168-33.933-35.717
			c-24.405-11.312-53.575-5.357-72.624,13.691c-2.381,2.381-6.548,2.381-8.929,0c-2.383-2.381-2.383-6.549,0-8.93
			c22.619-23.216,57.146-29.764,86.909-16.072c18.454,8.334,32.74,23.812,40.479,42.861c7.737,19.048,6.549,39.884-1.786,58.934
			c-2.381,5.355-5.356,10.715-8.929,14.881C375.66,263.086,373.874,264.276,371.493,264.276z"/>
	</g>
	<g>
		<path d="M448.284,280.944c-0.596,0-1.786,0-2.382-0.596l-35.121-16.072c-2.977-1.19-4.763-5.357-2.977-8.334
			c1.189-2.978,5.356-4.762,8.333-2.978l35.122,16.072c2.977,1.19,4.762,5.356,2.977,8.334
			C453.048,279.754,450.665,280.944,448.284,280.944z"/>
	</g>
	<g>
		<path d="M359.589,123.791c-0.597,0-1.786,0-2.383-0.595c-2.977-1.19-4.762-5.358-2.977-8.334l16.072-35.122
			c1.189-2.977,5.356-4.762,8.334-2.977c2.978,1.19,4.762,5.356,2.978,8.334l-16.073,35.121
			C364.35,122.006,361.969,123.791,359.589,123.791z"/>
	</g>
	<g>
		<path d="M415.545,183.319c-2.382,0-4.764-1.786-5.953-4.167c-1.19-2.977,0.596-6.548,3.571-7.738l35.718-13.691
			c2.976-1.19,6.548,0.595,7.737,3.572s-0.597,6.547-3.57,7.738l-35.718,13.691C417.33,183.319,416.734,183.319,415.545,183.319z"/>
	</g>
	<g>
		<path d="M278.034,120.814c-2.381,0-4.762-1.786-5.952-4.167L258.39,80.93c-1.189-2.976,0.597-6.547,3.571-7.738
			c2.979-1.189,6.549,0.596,7.738,3.572l13.69,35.717c1.189,2.977-0.597,6.548-3.57,7.738
			C279.225,120.814,278.629,120.814,278.034,120.814z"/>
	</g>
</g>
</svg>
