<?xml version="1.0" encoding="utf-8"?>
<!-- Generator: Adobe Illustrator 16.0.0, SVG Export Plug-In . SVG Version: 6.00 Build 0)  -->
<!DOCTYPE svg PUBLIC "-//W3C//DTD SVG 1.1//EN" "http://www.w3.org/Graphics/SVG/1.1/DTD/svg11.dtd">
<svg version="1.1" id="Layer_1" xmlns="http://www.w3.org/2000/svg" xmlns:xlink="http://www.w3.org/1999/xlink" x="0px" y="0px"
	 width="538.582px" height="538.583px" viewBox="0 0 538.582 538.583" enable-background="new 0 0 538.582 538.583"
	 xml:space="preserve">
<g>
	<g>
		<path fill="#F3E59A" d="M379.573,349.374c-10.741,0-21.481-2.388-31.627-7.163c-38.784-17.307-56.092-63.255-38.192-102.04
			c12.531-27.45,39.983-45.349,70.412-45.349c10.743,0,21.486,2.387,31.628,7.162c38.785,17.305,56.093,63.255,38.194,102.039
			C437.458,331.473,410.007,349.374,379.573,349.374z"/>
	</g>
	<g>
		<g>
			<path fill="#2C3E50" d="M435.484,320.969c-1.188,0-2.382-0.596-3.571-1.19c-2.978-1.784-2.978-5.95-1.188-8.929
				c2.978-4.167,5.354-8.334,7.738-12.501c7.144-15.479,7.734-33.335,1.782-49.408c-5.949-16.072-17.854-29.168-33.931-35.717
				c-24.407-11.312-53.576-5.357-72.625,13.691c-2.382,2.381-6.549,2.381-8.93,0s-2.381-6.549,0-8.93
				c22.62-23.216,57.146-29.764,86.911-16.072c18.452,8.334,32.736,23.812,40.479,42.861c7.146,19.048,6.548,39.883-1.786,58.934
				c-2.381,5.354-5.354,10.715-8.93,14.881C439.055,319.779,437.269,320.969,435.484,320.969z"/>
		</g>
	</g>
</g>
<path fill="#ECF0F1" d="M193.488,313.202c-23.887,0-43.372,19.551-43.372,43.51c0,23.963,19.485,43.51,43.372,43.51h188.576
	c23.886,0,43.372-19.547,43.372-43.51c0-23.959-19.486-43.51-43.372-43.51c-2.514,0-5.029,0-7.543,0.631
	c-1.886,0-3.771,0-5.031-1.261c-1.256-1.262-2.516-2.521-2.516-4.413c-5.654-39.096-39.603-68.732-79.201-68.732
	c-39.604,0-73.543,29.639-79.202,68.732c0,1.893-1.257,3.151-2.516,4.413c-1.257,1.263-3.146,1.263-5.03,1.263
	C197.888,313.202,195.374,313.202,193.488,313.202z"/>
<g>
	<path fill="#2C3E50" d="M377.741,409.071H199.157c-29.764,0-53.575-23.812-53.575-53.574c0-29.764,23.812-53.572,53.575-53.572
		c1.189,0,1.786,0,2.979,0c8.931-39.883,44.646-69.647,86.312-69.647c41.67,0,77.391,29.169,86.314,69.647c1.188,0,2.382,0,2.978,0
		c29.769,0,53.574,23.812,53.574,53.572C431.316,385.258,407.51,409.071,377.741,409.071z M198.563,314.422
		c-22.621,0-41.074,18.453-41.074,41.072c0,22.621,18.453,41.073,41.074,41.073h178.583c22.62,0,41.074-18.452,41.074-41.073
		c0-22.619-18.454-41.072-41.074-41.072c-2.382,0-4.763,0-7.144,0.596c-1.786,0-3.572,0-4.767-1.189
		c-1.188-1.189-2.381-2.383-2.381-4.166c-5.354-36.906-37.504-64.886-75.006-64.886s-69.647,27.979-75.007,64.886
		c0,1.783-1.188,2.977-2.384,4.166c-1.188,1.189-2.977,1.189-4.762,1.189C203.324,314.422,200.944,314.422,198.563,314.422z"/>
</g>
<g>
	<path fill="#2C3E50" d="M511.68,337.637c-0.596,0-1.786,0-2.382-0.596l-35.121-16.072c-2.979-1.19-4.764-5.357-2.979-8.334
		c1.189-2.979,5.356-4.762,8.334-2.979l35.122,16.071c2.979,1.19,4.766,5.356,2.979,8.334
		C516.441,336.448,514.06,337.637,511.68,337.637z"/>
</g>
<g>
	<path fill="#2C3E50" d="M423.578,180.484c-0.597,0-1.782,0-2.381-0.595c-2.978-1.19-4.764-5.358-2.978-8.334l16.071-35.122
		c1.188-2.977,5.354-4.762,8.335-2.977c2.977,1.19,4.763,5.356,2.977,8.334l-16.071,35.121
		C428.344,178.699,425.963,180.484,423.578,180.484z"/>
</g>
<g>
	<path fill="#2C3E50" d="M479.534,240.012c-2.381,0-4.763-1.786-5.953-4.167c-1.188-2.977,0.6-6.548,3.572-7.738l35.717-13.691
		c2.979-1.19,6.552,0.595,7.738,3.572c1.189,2.977-0.596,6.547-3.571,7.738l-35.717,13.691
		C480.724,240.012,480.134,240.012,479.534,240.012z"/>
</g>
<g>
	<path fill="#2C3E50" d="M341.43,177.507c-2.382,0-4.764-1.786-5.953-4.167l-13.69-35.718c-1.188-2.976,0.599-6.547,3.57-7.738
		c2.979-1.189,6.55,0.596,7.739,3.572l13.688,35.717c1.189,2.977-0.596,6.548-3.568,7.738
		C343.219,177.507,342.62,177.507,341.43,177.507z"/>
</g>
<g>
	<path fill="#2C3E50" d="M143.201,299.542H77.125c-3.567,0-5.953-2.979-5.953-5.953c0-2.979,2.979-5.951,5.953-5.951h66.076
		c3.571,0,5.953,2.977,5.953,5.951S146.773,299.542,143.201,299.542z"/>
</g>
<g>
	<path fill="#2C3E50" d="M109.865,353.709H23.55c-3.566,0-5.948-2.978-5.948-5.951c0-2.977,2.977-5.951,5.949-5.951h86.91
		c3.571,0,5.953,2.977,5.953,5.951S113.438,353.709,109.865,353.709z"/>
</g>
<g>
	<path fill="#2C3E50" d="M134.867,407.284h-74.41c-3.567,0-5.952-2.975-5.952-5.949c0-2.979,2.979-5.953,5.952-5.953h74.41
		c3.571,0,5.953,2.979,5.953,5.953C140.821,404.309,138.439,407.284,134.867,407.284z"/>
</g>
</svg>
