<?xml version="1.0" encoding="utf-8"?>
<!-- Generator: Adobe Illustrator 16.0.0, SVG Export Plug-In . SVG Version: 6.00 Build 0)  -->
<!DOCTYPE svg PUBLIC "-//W3C//DTD SVG 1.1//EN" "http://www.w3.org/Graphics/SVG/1.1/DTD/svg11.dtd">
<svg version="1.1" id="Layer_1" xmlns="http://www.w3.org/2000/svg" xmlns:xlink="http://www.w3.org/1999/xlink" x="0px" y="0px"
	 width="538.582px" height="425.197px" viewBox="0 0 538.582 425.197" enable-background="new 0 0 538.582 425.197"
	 xml:space="preserve">
<g>
	<g>
		<path d="M395.478,218.254c-2.977,0-5.356-1.785-5.952-4.763c-0.596-3.571,1.19-6.548,4.763-7.143
			c6.548-1.19,13.097-3.572,19.049-6.548c4.167-1.786,8.334-4.167,12.501-7.145c-36.907-2.976-70.243-25.597-86.315-60.123
			c-16.071-34.525-11.904-74.41,9.524-104.77c-4.763,1.189-8.93,2.977-13.097,4.762c-26.191,12.501-44.646,35.717-51.193,63.695
			c-0.596,3.57-4.167,5.356-7.144,4.762c-3.571-0.596-5.357-4.167-4.763-7.143c7.144-32.146,27.979-58.338,57.741-72.625
			c10.716-4.763,22.025-8.334,33.932-9.524c2.382,0,5.357,1.19,5.952,3.571c1.19,2.382,0.597,5.357-1.189,7.145
			c-27.979,27.383-35.121,69.053-19.05,104.174c16.072,35.122,53.575,56.553,92.27,52.385c2.381,0,5.357,1.19,5.953,3.572
			c1.189,2.381,0.595,5.357-1.19,7.144c-8.334,8.334-18.454,14.882-29.169,20.239c-7.144,2.978-14.287,5.952-21.431,7.145
			C396.074,218.254,395.478,218.254,395.478,218.254z"/>
	</g>
	<g>
		<path d="M184.75,413.507c-0.596,0-1.786,0-2.382-0.597c-2.976-1.189-4.762-4.762-3.571-8.334l8.931-22.024
			c1.189-2.977,4.762-4.763,8.334-3.571c2.976,1.189,4.762,4.763,3.57,8.334l-8.93,22.024
			C189.511,412.315,187.131,413.507,184.75,413.507z"/>
	</g>
	<g>
		<path d="M204.393,365.884c-0.596,0-1.785,0-2.382-0.597c-2.977-1.189-4.762-4.763-3.57-8.334l23.811-57.742
			c1.191-2.977,4.763-4.762,8.334-3.57c2.978,1.189,4.763,4.762,3.572,8.334l-23.812,57.741
			C209.156,364.692,206.775,365.884,204.393,365.884z"/>
	</g>
	<g>
		<path d="M269.279,402.195c-0.595,0-1.785,0-2.381-0.595c-2.978-1.19-4.764-4.764-3.571-8.334l13.692-32.741
			c1.188-2.976,4.762-4.762,8.332-3.571c2.978,1.19,4.764,4.764,3.572,8.334l-13.69,32.74
			C274.042,400.409,271.661,402.195,269.279,402.195z"/>
	</g>
	<g>
		<path d="M293.091,345.05c-0.596,0-1.786,0-2.382-0.597c-2.977-1.189-4.762-4.762-3.571-8.334l15.479-36.907
			c1.189-2.977,4.762-4.762,8.334-3.57c2.977,1.189,4.762,4.762,3.57,8.334l-15.478,36.906
			C297.852,343.858,295.472,345.05,293.091,345.05z"/>
	</g>
	<g>
		<path d="M118.674,380.17c-0.596,0-1.786,0-2.381-0.595c-2.977-1.189-4.763-4.763-3.572-8.334l14.287-34.525
			c1.19-2.978,4.763-4.764,8.334-3.572c2.977,1.19,4.763,4.763,3.571,8.334l-14.287,34.525
			C123.435,378.979,121.054,380.17,118.674,380.17z"/>
	</g>
	<g>
		<path d="M143.676,319.451c-0.596,0-1.786,0-2.382-0.595c-2.977-1.19-4.167-4.763-2.977-7.739l4.763-11.31
			c1.19-2.978,4.763-4.764,8.334-3.572c2.977,1.19,4.762,4.763,3.571,8.334l-4.763,11.311
			C148.437,318.261,146.651,319.451,143.676,319.451z"/>
	</g>
	<g>
		<path d="M321.664,280.163H143.08c-29.764,0-53.575-23.812-53.575-53.575s23.812-53.574,53.575-53.574c1.19,0,1.786,0,2.977,0
			c8.93-39.885,44.646-69.648,86.315-69.648c41.669,0,77.387,29.169,86.315,69.648c1.19,0,2.382,0,2.978,0
			c29.764,0,53.575,23.811,53.575,53.574S351.428,280.163,321.664,280.163z M143.08,184.918c-22.621,0-41.074,18.454-41.074,41.075
			c0,22.62,18.453,41.073,41.074,41.073h178.584c22.62,0,41.074-18.453,41.074-41.073c0-22.621-18.454-41.075-41.074-41.075
			c-2.381,0-4.764,0-7.145,0.596c-1.786,0-3.57,0-4.762-1.19s-2.382-2.381-2.382-4.167c-5.357-36.906-37.502-64.885-75.005-64.885
			c-37.503,0-69.647,27.979-75.005,64.885c0,1.786-1.191,2.977-2.382,4.167s-2.977,1.19-4.763,1.19
			C147.843,185.514,145.461,184.918,143.08,184.918z"/>
	</g>
</g>
</svg>
