<?xml version="1.0" encoding="utf-8"?>
<!-- Generator: Adobe Illustrator 16.0.0, SVG Export Plug-In . SVG Version: 6.00 Build 0)  -->
<!DOCTYPE svg PUBLIC "-//W3C//DTD SVG 1.1//EN" "http://www.w3.org/Graphics/SVG/1.1/DTD/svg11.dtd">
<svg version="1.1" id="Layer_1" xmlns="http://www.w3.org/2000/svg" xmlns:xlink="http://www.w3.org/1999/xlink" x="0px" y="0px"
	 width="538.583px" height="425.197px" viewBox="-56.693 0 538.583 425.197" enable-background="new -56.693 0 538.583 425.197"
	 xml:space="preserve">
<g>
	<path d="M301.89,300.7H123.306c-29.765,0-53.575-23.812-53.575-53.575c0-29.765,23.812-53.575,53.575-53.575
		c1.189,0,1.785,0,2.977,0c8.93-39.884,44.646-69.053,86.315-69.053c41.67,0,77.387,29.169,86.314,69.648c1.19,0,2.382,0,2.978,0
		c29.764,0,53.575,23.811,53.575,53.575C355.466,277.484,331.654,300.7,301.89,300.7z M123.306,206.051
		c-22.62,0-41.074,18.453-41.074,41.074c0,22.62,18.454,41.074,41.074,41.074H301.89c22.621,0,41.074-18.454,41.074-41.074
		c0-22.621-18.453-41.074-41.074-41.074c-2.381,0-4.762,0-7.145,0.595c-1.784,0-3.57,0-4.762-1.19
		c-1.19-1.189-2.382-2.381-2.382-4.167c-5.357-36.907-37.502-64.886-75.005-64.886c-37.502,0-69.647,27.979-75.006,64.886
		c0,1.786-1.189,2.978-2.381,4.167c-1.19,1.19-2.977,1.19-4.763,1.19C127.473,206.051,125.687,206.051,123.306,206.051z"/>
</g>
</svg>
