<?xml version="1.0" encoding="utf-8"?>
<!-- Generator: Adobe Illustrator 16.0.0, SVG Export Plug-In . SVG Version: 6.00 Build 0)  -->
<!DOCTYPE svg PUBLIC "-//W3C//DTD SVG 1.1//EN" "http://www.w3.org/Graphics/SVG/1.1/DTD/svg11.dtd">
<svg version="1.1" id="Layer_1" xmlns="http://www.w3.org/2000/svg" xmlns:xlink="http://www.w3.org/1999/xlink" x="0px" y="0px"
	 width="538.582px" height="538.583px" viewBox="0 0 538.582 538.583" enable-background="new 0 0 538.582 538.583"
	 xml:space="preserve">
<g>
	<g>
		<g>
			<g>
				<path fill="#F3E59A" d="M438.623,342.748c-39.716,0-75.979-23.326-92.669-60.062c-11.512-25.08-12.666-53.068-3.452-79.311
					c9.208-26.242,28.203-46.652,52.957-58.315c10.361-5.247,21.872-8.164,33.381-9.329c2.306,0,5.18,1.165,5.757,3.498
					c1.148,2.333,0.578,5.248-1.148,7c-27.054,27.41-34.533,68.812-18.418,103.801c14.967,32.074,47.198,53.068,81.73,53.068
					c2.881,0,5.756,0,8.638-0.584c2.305,0,5.178,1.163,5.754,3.497c1.149,2.334,0.579,5.245-1.147,6.999
					c-8.059,8.164-17.844,15.162-28.204,19.828C467.979,339.248,453.588,342.748,438.623,342.748z"/>
			</g>
			<g>
				<path fill="#2C3E50" d="M462.22,339.899c-2.977,0-5.354-1.784-5.951-4.762c-0.597-3.572,1.189-6.55,4.767-7.146
					c6.548-1.188,13.097-3.57,19.049-6.553c4.167-1.783,8.334-4.165,12.501-7.145c-37.503-2.979-70.838-25.598-86.911-59.527
					c-16.071-34.525-11.904-74.408,9.521-104.769c-4.762,1.189-8.929,2.977-13.097,4.762
					c-26.188,12.501-44.646,35.717-51.193,63.694c-0.595,3.57-4.167,5.357-7.143,4.763c-3.572-0.595-5.358-4.167-4.767-7.146
					c7.146-32.145,27.979-58.335,57.745-72.623c10.715-4.762,22.021-8.334,33.931-9.524c2.381,0,5.354,1.19,5.953,3.572
					c1.188,2.381,0.595,5.356-1.189,7.143c-27.979,27.384-35.122,69.055-19.05,104.176c16.667,35.121,53.575,56.549,92.271,52.383
					c2.383,0,5.354,1.189,5.949,3.57c1.189,2.383,0.601,5.355-1.188,7.145c-8.334,8.334-18.454,14.888-29.169,20.24
					C477.103,335.135,469.369,338.705,462.22,339.899C461.989,339.895,462.22,339.899,462.22,339.899z"/>
			</g>
		</g>
		<path fill="#ECF0F1" d="M203.563,308.511c-23.887,0-43.372,19.549-43.372,43.51c0,23.963,19.485,43.51,43.372,43.51h188.576
			c23.886,0,43.372-19.547,43.372-43.51c0-23.961-19.486-43.51-43.372-43.51c-2.514,0-5.029,0-7.543,0.631
			c-1.886,0-3.771,0-5.031-1.26c-1.256-1.263-2.516-2.523-2.516-4.414c-5.654-39.097-39.603-68.733-79.201-68.733
			c-39.604,0-73.542,29.64-79.202,68.733c0,1.891-1.257,3.151-2.516,4.414c-1.257,1.262-3.146,1.262-5.03,1.262
			C207.964,308.511,205.448,308.511,203.563,308.511z"/>
		<g>
			<path fill="#2C3E50" d="M150.222,295.189H84.147c-3.571,0-5.953-2.978-5.953-5.952c0-2.977,2.977-5.953,5.953-5.953h66.075
				c3.567,0,5.949,2.979,5.949,5.953C156.174,292.213,153.792,295.189,150.222,295.189z"/>
		</g>
		<g>
			<path fill="#2C3E50" d="M117.483,349.359H30.572c-3.572,0-5.953-2.978-5.953-5.952c0-2.977,2.979-5.951,5.953-5.951h86.911
				c3.57,0,5.952,2.979,5.952,5.951C123.435,346.381,120.456,349.359,117.483,349.359z"/>
		</g>
		<g>
			<path fill="#2C3E50" d="M141.888,402.934H67.479c-3.571,0-5.953-2.979-5.953-5.951c0-2.977,2.977-5.954,5.953-5.954h74.409
				c3.567,0,5.949,2.979,5.949,5.954C147.84,399.959,145.458,402.934,141.888,402.934z"/>
		</g>
		<g>
			<path fill="#2C3E50" d="M387.141,403.53H208.56c-29.769,0-53.575-23.812-53.575-53.574c0-29.765,23.812-53.574,53.575-53.574
				c1.188,0,1.785,0,2.977,0c8.934-39.883,44.646-69.646,86.314-69.646c41.67,0,77.388,29.169,86.315,69.646
				c1.188,0,2.382,0,2.977,0c29.766,0,53.575,23.812,53.575,53.574S416.31,403.53,387.141,403.53z M207.963,308.288
				c-22.617,0-41.07,18.45-41.07,41.071s18.453,41.074,41.07,41.074h178.586c22.62,0,41.07-18.453,41.07-41.074
				s-18.45-41.071-41.07-41.071c-2.385,0-4.767,0-7.146,0.596c-1.786,0-3.571,0-4.764-1.189c-1.189-1.189-2.381-2.381-2.381-4.167
				c-5.356-36.907-37.503-64.885-75.009-64.885c-37.501,0-69.645,27.978-75.004,64.885c0,1.786-1.188,2.978-2.381,4.167
				c-1.19,1.189-2.978,1.189-4.762,1.189C212.727,308.881,210.345,308.288,207.963,308.288z"/>
		</g>
	</g>
</g>
</svg>
