<?xml version="1.0" encoding="utf-8"?>
<!-- Generator: Adobe Illustrator 16.0.0, SVG Export Plug-In . SVG Version: 6.00 Build 0)  -->
<!DOCTYPE svg PUBLIC "-//W3C//DTD SVG 1.1//EN" "http://www.w3.org/Graphics/SVG/1.1/DTD/svg11.dtd">
<svg version="1.1" id="Layer_1" xmlns="http://www.w3.org/2000/svg" xmlns:xlink="http://www.w3.org/1999/xlink" x="0px" y="0px"
	 width="538.582px" height="425.197px" viewBox="0 0 538.582 425.197" enable-background="new 0 0 538.582 425.197"
	 xml:space="preserve">
<g>
	<g>
		<path d="M313.751,352.378H135.167c-29.764,0-53.575-23.812-53.575-53.574c0-29.764,23.812-53.575,53.575-53.575
			c1.19,0,1.786,0,2.978,0c8.929-39.883,44.646-69.647,86.314-69.647s77.386,29.169,86.314,69.647c1.19,0,2.382,0,2.978,0
			c29.764,0,53.575,23.812,53.575,53.575C367.326,328.566,343.515,352.378,313.751,352.378z M135.167,257.729
			c-22.62,0-41.074,18.454-41.074,41.074s18.454,41.073,41.074,41.073H313.75c22.62,0,41.074-18.453,41.074-41.073
			s-18.453-41.074-41.074-41.074c-2.381,0-4.763,0-7.145,0.596c-1.785,0-3.57,0-4.762-1.189c-1.191-1.191-2.382-2.383-2.382-4.167
			c-5.357-36.908-37.501-64.886-75.004-64.886s-69.646,27.978-75.005,64.886c0,1.784-1.19,2.976-2.382,4.167
			c-1.19,1.189-2.977,1.189-4.762,1.189C139.93,257.729,137.548,257.729,135.167,257.729z"/>
	</g>
	<g>
		<path d="M371.493,264.276c-1.19,0-2.381-0.595-3.571-1.19c-2.977-1.784-2.977-5.951-1.191-8.929
			c2.978-4.167,5.358-8.334,7.739-12.501c7.145-15.478,7.738-33.335,1.786-49.408c-5.953-16.072-17.858-29.168-33.932-35.717
			c-24.406-11.311-53.575-5.357-72.624,13.691c-2.381,2.381-6.548,2.381-8.929,0c-2.383-2.381-2.383-6.549,0-8.93
			c22.619-23.216,57.146-29.764,86.909-16.072c18.454,8.334,32.74,23.812,40.479,42.861c7.737,19.048,6.548,39.884-1.786,58.933
			c-2.381,5.356-5.357,10.715-8.929,14.882C375.66,263.086,373.874,264.276,371.493,264.276z"/>
	</g>
	<g>
		<path d="M448.284,280.944c-0.596,0-1.786,0-2.382-0.595l-35.121-16.073c-2.977-1.19-4.763-5.357-2.977-8.334
			c1.19-2.977,5.357-4.762,8.333-2.977l35.122,16.072c2.977,1.19,4.762,5.357,2.977,8.334
			C453.047,279.754,450.665,280.944,448.284,280.944z"/>
	</g>
	<g>
		<path d="M359.588,123.791c-0.596,0-1.786,0-2.382-0.595c-2.977-1.19-4.762-5.358-2.977-8.334l16.072-35.122
			c1.19-2.977,5.357-4.762,8.334-2.977c2.978,1.19,4.762,5.356,2.978,8.334l-16.073,35.121
			C364.35,122.006,361.969,123.791,359.588,123.791z"/>
	</g>
	<g>
		<path d="M415.544,183.319c-2.381,0-4.763-1.786-5.953-4.167c-1.19-2.977,0.596-6.548,3.572-7.738l35.717-13.691
			c2.976-1.19,6.548,0.595,7.738,3.572c1.189,2.977-0.597,6.547-3.571,7.738l-35.717,13.691
			C417.33,183.319,416.734,183.319,415.544,183.319z"/>
	</g>
	<g>
		<path d="M278.034,120.814c-2.381,0-4.762-1.786-5.952-4.167L258.39,80.93c-1.189-2.976,0.597-6.547,3.572-7.738
			c2.978-1.189,6.548,0.596,7.738,3.572l13.69,35.717c1.19,2.977-0.596,6.548-3.57,7.738
			C279.225,120.814,278.629,120.814,278.034,120.814z"/>
	</g>
</g>
</svg>
