<?xml version="1.0" encoding="utf-8"?>
<!-- Generator: Adobe Illustrator 16.0.0, SVG Export Plug-In . SVG Version: 6.00 Build 0)  -->
<!DOCTYPE svg PUBLIC "-//W3C//DTD SVG 1.1//EN" "http://www.w3.org/Graphics/SVG/1.1/DTD/svg11.dtd">
<svg version="1.1" id="Layer_1" xmlns="http://www.w3.org/2000/svg" xmlns:xlink="http://www.w3.org/1999/xlink" x="0px" y="0px"
	 width="538.582px" height="538.583px" viewBox="0 0 538.582 538.583" enable-background="new 0 0 538.582 538.583"
	 xml:space="preserve">
<g>
	<path fill="#F3E59A" d="M372.176,344.17c-39.716,0-75.979-23.326-92.669-60.062c-11.512-25.08-12.666-53.068-3.452-79.31
		c9.208-26.243,28.203-46.653,52.957-58.316c10.361-5.247,21.872-8.164,33.381-9.329c2.306,0,5.18,1.165,5.757,3.498
		c1.148,2.333,0.578,5.248-1.148,7c-27.054,27.41-34.533,68.812-18.418,103.801c14.967,32.074,47.198,53.068,81.73,53.068
		c2.881,0,5.756,0,8.638-0.584c2.305,0,5.178,1.163,5.754,3.497c1.149,2.334,0.579,5.245-1.147,6.999
		c-8.059,8.164-17.844,15.162-28.204,19.828C401.532,340.67,387.14,344.17,372.176,344.17z"/>
</g>
<path fill="#ECF0F1" d="M140.488,306.202c-23.887,0-43.372,19.551-43.372,43.512c0,23.963,19.485,43.511,43.372,43.511h188.577
	c23.886,0,43.372-19.548,43.372-43.511c0-23.961-19.486-43.512-43.372-43.512c-2.514,0-5.029,0-7.543,0.633
	c-1.886,0-3.771,0-5.031-1.262c-1.256-1.26-2.516-2.521-2.516-4.414c-5.654-39.094-39.604-68.73-79.202-68.73
	c-39.604,0-73.543,29.638-79.202,68.73c0,1.893-1.257,3.154-2.516,4.414c-1.258,1.264-3.146,1.264-5.03,1.264
	C144.888,306.202,142.373,306.202,140.488,306.202z"/>
<g>
	<path fill="#2C3E50" d="M395.773,341.322c-2.977,0-5.354-1.784-5.951-4.762c-0.597-3.572,1.189-6.55,4.767-7.146
		c6.548-1.188,13.097-3.57,19.049-6.553c4.167-1.783,8.334-4.165,12.501-7.145c-37.503-2.979-70.838-25.598-86.911-59.527
		c-16.071-34.526-11.904-74.409,9.521-104.769c-4.762,1.189-8.929,2.977-13.097,4.762c-26.188,12.501-44.646,35.717-51.193,63.695
		c-0.595,3.57-4.167,5.357-7.143,4.762c-3.572-0.595-5.358-4.167-4.767-7.145c7.146-32.145,27.979-58.336,57.745-72.623
		c10.715-4.762,22.021-8.334,33.931-9.524c2.381,0,5.354,1.19,5.953,3.572c1.188,2.381,0.595,5.356-1.189,7.143
		c-27.979,27.384-35.122,69.054-19.05,104.176c16.667,35.121,53.575,56.548,92.271,52.382c2.383,0,5.354,1.189,5.949,3.57
		c1.189,2.383,0.601,5.355-1.188,7.145c-8.334,8.334-18.454,14.888-29.169,20.24C410.656,336.558,402.922,340.127,395.773,341.322
		C395.542,341.318,395.773,341.322,395.773,341.322z"/>
</g>
<g>
	<path fill="#2C3E50" d="M321.964,403.233H143.375c-29.764,0-53.57-23.812-53.57-53.576s23.812-53.572,53.57-53.572
		c1.19,0,1.786,0,2.979,0c8.929-39.884,44.646-69.646,86.312-69.646c41.667,0,77.391,29.169,86.315,69.646c1.19,0,2.382,0,2.979,0
		c29.764,0,53.57,23.812,53.57,53.572C375.535,379.42,351.722,403.233,321.964,403.233z M143.375,308.583
		c-22.621,0-41.069,18.453-41.069,41.074c0,22.618,18.448,41.073,41.069,41.073h178.588c22.615,0,41.069-18.455,41.069-41.073
		c0-22.621-18.454-41.074-41.069-41.074c-2.386,0-4.768,0-7.146,0.598c-1.785,0-3.57,0-4.762-1.188
		c-1.19-1.188-2.382-2.383-2.382-4.166c-5.357-36.911-37.507-64.888-75.009-64.888c-37.503,0-69.646,27.979-75.005,64.888
		c0,1.783-1.188,2.978-2.382,4.166c-1.19,1.188-2.979,1.188-4.762,1.188C148.138,308.583,145.756,308.583,143.375,308.583z"/>
</g>
</svg>
