<?xml version="1.0" encoding="utf-8"?>
<!-- Generator: Adobe Illustrator 16.0.0, SVG Export Plug-In . SVG Version: 6.00 Build 0)  -->
<!DOCTYPE svg PUBLIC "-//W3C//DTD SVG 1.1//EN" "http://www.w3.org/Graphics/SVG/1.1/DTD/svg11.dtd">
<svg version="1.1" id="Layer_1" xmlns="http://www.w3.org/2000/svg" xmlns:xlink="http://www.w3.org/1999/xlink" x="0px" y="0px"
	 width="538.582px" height="538.583px" viewBox="0 0 538.582 538.583" enable-background="new 0 0 538.582 538.583"
	 xml:space="preserve">
<g>
	<path fill="#ECF0F1" d="M175.49,198.201c-23.887,0-43.372,19.551-43.372,43.511c0,23.963,19.485,43.51,43.372,43.51h188.576
		c23.887,0,43.373-19.547,43.373-43.51c0-23.96-19.486-43.511-43.373-43.511c-2.514,0-5.029,0-7.543,0.632
		c-1.885,0-3.77,0-5.031-1.261c-1.256-1.261-2.516-2.521-2.516-4.414c-5.654-39.095-39.602-68.731-79.201-68.731
		c-39.604,0-73.543,29.638-79.202,68.731c0,1.893-1.257,3.153-2.516,4.414c-1.256,1.263-3.146,1.263-5.03,1.263
		C179.891,198.201,177.376,198.201,175.49,198.201z"/>
	<g>
		<path fill="#2C3E50" d="M371.088,346.083h-22.621l16.07-16.072c2.383-2.381,2.383-6.549,0-8.93c-2.383-2.383-6.549-2.383-8.932,0
			l-16.07,16.073v-22.622c0-3.571-2.979-5.952-5.953-5.952c-2.977,0-5.949,2.978-5.949,5.952v22.622l-16.074-16.073
			c-2.381-2.383-6.551-2.383-8.932,0c-2.381,2.381-2.381,6.549,0,8.93l16.072,16.072H296.08c-3.572,0-5.953,2.978-5.953,5.952
			c0,2.978,2.979,5.953,5.953,5.953h22.619l-16.072,16.072c-2.381,2.381-2.381,6.549,0,8.93c1.191,1.188,2.98,1.785,4.17,1.785
			c1.188,0,2.977-0.599,4.168-1.785l16.068-16.071v22.619c0,3.571,2.98,5.952,5.953,5.952c2.979,0,5.951-2.979,5.951-5.952v-22.619
			l16.074,16.071c1.188,1.188,2.977,1.785,4.166,1.785c1.188,0,2.977-0.599,4.168-1.785c2.381-2.381,2.381-6.549,0-8.93
			l-14.287-15.479h22.621c3.568,0,5.951-2.979,5.951-5.953C377.635,349.655,374.656,346.083,371.088,346.083z"/>
		<path fill="#2C3E50" d="M251.433,371.085h-22.619l16.068-16.072c2.384-2.381,2.384-6.549,0-8.93c-2.381-2.382-6.548-2.382-8.93,0
			l-16.072,16.071v-22.619c0-3.571-2.977-5.952-5.949-5.952c-2.979,0-5.952,2.978-5.952,5.952v22.619l-16.072-15.479
			c-2.382-2.381-6.549-2.381-8.93,0c-2.384,2.384-2.384,6.552,0,8.933l16.068,16.069h-22.619c-3.569,0-5.95,2.979-5.95,5.953
			c0,2.978,2.977,5.953,5.95,5.953h22.619l-16.068,16.069c-2.384,2.383-2.384,6.549,0,8.931c1.188,1.188,2.977,1.786,4.167,1.786
			c1.188,0,2.977-0.598,4.167-1.786l16.068-16.072v22.621c0,3.572,2.979,5.953,5.953,5.953c2.979,0,5.953-2.979,5.953-5.953v-22.621
			l16.072,16.072c1.188,1.188,2.977,1.786,4.167,1.786c1.188,0,2.977-0.598,4.167-1.786c2.381-2.382,2.381-6.548,0-8.931
			l-16.072-16.069h23.812c3.569,0,5.95-2.979,5.95-5.953C257.386,374.657,255.005,371.085,251.433,371.085z"/>
		<g>
			<path fill="#2C3E50" d="M358.584,294.294H179.999c-29.764,0-53.575-23.812-53.575-53.575s23.812-53.575,53.575-53.575
				c1.19,0,1.786,0,2.979,0c8.93-39.884,44.646-69.646,86.312-69.646c41.672,0,77.389,29.168,86.315,69.646c1.189,0,2.381,0,2.977,0
				c29.768,0,53.576,23.812,53.576,53.575C412.158,270.483,388.347,294.294,358.584,294.294z M179.999,199.644
				c-22.62,0-41.074,18.454-41.074,41.074s18.454,41.076,41.074,41.076h178.584c22.621,0,41.074-18.456,41.074-41.076
				s-18.453-41.074-41.074-41.074c-2.381,0-4.762,0-7.145,0.596c-1.785,0-3.57,0-4.762-1.189c-1.191-1.19-2.383-2.382-2.383-4.167
				c-5.357-36.907-37.502-64.888-75.007-64.888c-37.502,0-69.646,27.979-75.005,64.888c0,1.786-1.188,2.977-2.381,4.167
				c-1.193,1.189-2.979,1.189-4.763,1.189C184.166,199.644,182.38,199.644,179.999,199.644z"/>
		</g>
	</g>
</g>
</svg>
