<?xml version="1.0" encoding="utf-8"?>
<!-- Generator: Adobe Illustrator 16.0.0, SVG Export Plug-In . SVG Version: 6.00 Build 0)  -->
<!DOCTYPE svg PUBLIC "-//W3C//DTD SVG 1.1//EN" "http://www.w3.org/Graphics/SVG/1.1/DTD/svg11.dtd">
<svg version="1.1" id="Layer_1" xmlns="http://www.w3.org/2000/svg" xmlns:xlink="http://www.w3.org/1999/xlink" x="0px" y="0px"
	 width="538.582px" height="538.583px" viewBox="0 -56.693 538.582 538.583" enable-background="new 0 -56.693 538.582 538.583"
	 xml:space="preserve">
<g>
	<g>
		<path d="M148.904,298.506c-0.596,0-1.785,0-2.382-0.596c-2.978-1.188-4.762-4.763-3.57-8.334l32.739-77.981
			c1.189-2.978,4.764-4.764,8.334-3.572c2.978,1.189,4.764,4.762,3.571,8.333l-32.74,77.98
			C153.665,297.313,151.284,298.506,148.904,298.506z"/>
	</g>
	<g>
		<path d="M198.906,178.854c-0.595,0-1.785,0-2.381-0.595c-2.978-1.19-4.763-4.763-3.57-8.334l13.69-32.74
			c1.189-2.977,4.763-4.762,8.334-3.572c2.977,1.189,4.763,4.762,3.57,8.334l-13.69,32.74
			C203.669,177.663,201.287,178.854,198.906,178.854z"/>
	</g>
	<g>
		<path d="M217.955,290.767c-0.596,0-1.785,0-2.381-0.596c-2.978-1.189-4.763-4.763-3.571-8.334l7.738-17.857
			c1.189-2.978,4.763-4.763,8.334-3.571c2.978,1.19,4.763,4.763,3.57,8.334l-7.737,17.858
			C222.719,288.979,220.932,290.767,217.955,290.767z"/>
	</g>
	<g>
		<path d="M242.362,233.024c-0.595,0-1.784,0-2.381-0.597c-2.977-1.189-4.762-4.763-3.57-8.334l39.287-93.458
			c1.19-2.977,4.765-4.762,8.334-3.572c2.979,1.191,4.765,4.763,3.571,8.334l-39.288,94.055
			C247.124,231.834,244.743,233.024,242.362,233.024z"/>
	</g>
	<g>
		<path d="M86.994,288.386c-0.597,0-1.786,0-2.383-0.597c-2.978-1.188-4.762-4.763-3.57-8.334l15.479-37.503
			c1.189-2.977,4.763-4.762,8.334-3.571c2.977,1.19,4.763,4.765,3.57,8.335l-15.479,37.503
			C91.756,287.194,89.375,288.386,86.994,288.386z"/>
	</g>
	<g>
		<path d="M121.52,206.236c-0.596,0-1.785,0-2.381-0.595c-2.978-1.19-4.763-4.763-3.571-8.334l18.453-43.455
			c1.19-2.978,4.764-4.763,8.334-3.572c2.978,1.19,4.764,4.763,3.572,8.334l-18.454,43.455
			C126.282,205.045,123.902,206.236,121.52,206.236z"/>
	</g>
	<g>
		<path d="M288.795,280.052c-0.597,0-1.786,0-2.383-0.597c-2.978-1.188-4.763-4.763-2.978-8.334l14.883-34.524
			c1.19-2.979,4.763-4.764,8.334-2.979c2.978,1.191,4.762,4.764,2.978,8.334l-14.883,34.527
			C293.556,278.86,291.176,280.052,288.795,280.052z"/>
	</g>
	<g>
		<path d="M323.32,197.903c-0.595,0-1.785,0-2.381-0.595c-2.977-1.19-4.762-4.763-3.571-8.334l14.882-35.717
			c1.19-2.977,4.764-4.763,8.335-3.571c2.978,1.19,4.763,4.762,3.57,8.334l-14.882,35.717
			C328.081,196.117,325.7,197.903,323.32,197.903z"/>
	</g>
</g>
</svg>
