<?xml version="1.0" encoding="utf-8"?>
<!-- Generator: Adobe Illustrator 16.0.0, SVG Export Plug-In . SVG Version: 6.00 Build 0)  -->
<!DOCTYPE svg PUBLIC "-//W3C//DTD SVG 1.1//EN" "http://www.w3.org/Graphics/SVG/1.1/DTD/svg11.dtd">
<svg version="1.1" id="Layer_1" xmlns="http://www.w3.org/2000/svg" xmlns:xlink="http://www.w3.org/1999/xlink" x="0px" y="0px"
	 width="538.582px" height="538.582px" viewBox="0 0 538.582 538.582" enable-background="new 0 0 538.582 538.582"
	 xml:space="preserve">
<g>
	<g>
		<path fill="#2C3E50" d="M205.597,355.199c-0.597,0-1.785,0-2.383-0.597c-2.979-1.188-4.762-4.764-3.569-8.334l32.738-77.98
			c1.188-2.979,4.765-4.764,8.334-3.572c2.979,1.189,4.765,4.764,3.571,8.333l-32.74,77.98
			C210.358,354.005,207.977,355.199,205.597,355.199z"/>
	</g>
	<g>
		<path fill="#2C3E50" d="M255.599,235.546c-0.596,0-1.785,0-2.382-0.595c-2.979-1.19-4.763-4.763-3.569-8.334l13.689-32.74
			c1.188-2.977,4.764-4.762,8.333-3.572c2.978,1.189,4.764,4.764,3.569,8.335l-13.689,32.739
			C260.362,234.356,257.98,235.546,255.599,235.546z"/>
	</g>
	<g>
		<path fill="#2C3E50" d="M274.647,347.459c-0.597,0-1.785,0-2.381-0.597c-2.978-1.188-4.763-4.763-3.571-8.334l7.738-17.856
			c1.188-2.978,4.763-4.763,8.334-3.569c2.979,1.188,4.763,4.763,3.569,8.334l-7.736,17.856
			C279.412,345.671,277.625,347.459,274.647,347.459z"/>
	</g>
	<g>
		<path fill="#2C3E50" d="M299.054,289.716c-0.596,0-1.784,0-2.382-0.597c-2.978-1.188-4.762-4.763-3.569-8.334l39.287-93.458
			c1.189-2.978,4.765-4.762,8.334-3.572c2.979,1.191,4.765,4.764,3.57,8.334l-39.287,94.057
			C303.816,288.527,301.435,289.716,299.054,289.716z"/>
	</g>
	<g>
		<path fill="#2C3E50" d="M143.687,345.078c-0.598,0-1.786,0-2.383-0.596c-2.979-1.188-4.763-4.765-3.57-8.334l15.479-37.503
			c1.188-2.979,4.764-4.764,8.334-3.571c2.978,1.189,4.764,4.765,3.569,8.335l-15.479,37.503
			C148.448,343.886,146.068,345.078,143.687,345.078z"/>
	</g>
	<g>
		<path fill="#2C3E50" d="M178.213,262.928c-0.597,0-1.784,0-2.381-0.595c-2.979-1.189-4.764-4.763-3.57-8.334l18.452-43.455
			c1.189-2.978,4.765-4.763,8.334-3.572c2.979,1.19,4.765,4.765,3.572,8.335l-18.454,43.454
			C182.975,261.738,180.595,262.928,178.213,262.928z"/>
	</g>
	<g>
		<path fill="#2C3E50" d="M345.487,336.744c-0.597,0-1.786,0-2.383-0.596c-2.979-1.188-4.764-4.765-2.979-8.334l14.883-34.524
			c1.189-2.979,4.764-4.764,8.334-2.979c2.979,1.189,4.763,4.764,2.979,8.334l-14.884,34.525
			C350.249,335.552,347.868,336.744,345.487,336.744z"/>
	</g>
	<g>
		<path fill="#2C3E50" d="M380.012,254.595c-0.596,0-1.785,0-2.382-0.595c-2.977-1.188-4.762-4.763-3.57-8.334l14.882-35.717
			c1.189-2.978,4.765-4.763,8.335-3.571c2.979,1.19,4.764,4.764,3.57,8.334l-14.882,35.717
			C384.773,252.81,382.392,254.595,380.012,254.595z"/>
	</g>
</g>
</svg>
