<?xml version="1.0" encoding="utf-8"?>
<!-- Generator: Adobe Illustrator 16.0.0, SVG Export Plug-In . SVG Version: 6.00 Build 0)  -->
<!DOCTYPE svg PUBLIC "-//W3C//DTD SVG 1.1//EN" "http://www.w3.org/Graphics/SVG/1.1/DTD/svg11.dtd">
<svg version="1.1" id="Layer_1" xmlns="http://www.w3.org/2000/svg" xmlns:xlink="http://www.w3.org/1999/xlink" x="0px" y="0px"
	 width="538.582px" height="538.582px" viewBox="-297.5 420.5 538.582 538.582"
	 enable-background="new -297.5 420.5 538.582 538.582" xml:space="preserve">
<g>
	<path fill="#2C3E50" d="M142.041,566.866H50.963c-1.784,0-2.977,1.188-2.977,2.976s1.188,2.979,2.977,2.979h91.675
		c1.784,0,2.978-1.191,2.978-2.979S143.827,566.866,142.041,566.866z"/>
	<path fill="#2C3E50" d="M-25.234,566.866h-63.102c-1.786,0-2.978,1.188-2.978,2.976s1.188,2.979,2.978,2.979h62.504
		c1.786,0,2.979-1.191,2.979-2.979S-24.042,566.866-25.234,566.866z"/>
	<path fill="#2C3E50" d="M-180.005,569.841c0,1.785,1.189,2.979,2.977,2.979h61.312c1.785,0,2.979-1.19,2.979-2.979
		s-1.19-2.977-2.979-2.977h-61.312C-178.816,566.866-180.005,568.054-180.005,569.841z"/>
	<path fill="#2C3E50" d="M83.703,596.628h-94.056c-1.784,0-2.978,1.189-2.978,2.978c0,1.787,1.19,2.978,2.978,2.978h94.056
		c1.786,0,2.978-1.19,2.978-2.978C86.679,597.819,85.489,596.628,83.703,596.628z"/>
	<path fill="#2C3E50" d="M-202.031,599.605c0,1.784,1.188,2.978,2.977,2.978h140.485c1.785,0,2.978-1.19,2.978-2.978
		c0-1.788-1.188-2.978-2.978-2.978h-140.487C-200.841,596.628-202.031,598.414-202.031,599.605z"/>
	<path fill="#2C3E50" d="M114.658,629.964c0-1.785-1.19-2.977-2.979-2.977H18.816c-1.784,0-2.978,1.188-2.978,2.977
		s1.19,2.979,2.978,2.979h92.863C112.872,632.942,114.658,631.75,114.658,629.964z"/>
	<path fill="#2C3E50" d="M-93.691,629.964c0,1.787,1.188,2.979,2.978,2.979h78.576c1.784,0,2.977-1.19,2.977-2.979
		s-1.189-2.977-2.977-2.977h-78.576C-91.905,626.989-93.691,628.177-93.691,629.964z"/>
	<path fill="#2C3E50" d="M-106.192,629.964c0-1.785-1.19-2.977-2.979-2.977h-47.62c-1.786,0-2.978,1.188-2.978,2.977
		s1.188,2.979,2.978,2.979h47.622C-107.382,632.942-106.192,631.75-106.192,629.964z"/>
	<path fill="#2C3E50" d="M142.041,656.751H93.823c-1.786,0-2.979,1.189-2.979,2.977c0,1.788,1.189,2.979,2.979,2.979h48.218
		c1.786,0,2.978-1.19,2.978-2.979C145.015,657.944,143.827,656.751,142.041,656.751z"/>
	<path fill="#2C3E50" d="M22.985,659.729c0-1.786-1.19-2.978-2.979-2.978H-96.666c-1.786,0-2.978,1.189-2.978,2.978
		c0,1.787,1.188,2.978,2.978,2.978H20.009C21.795,662.705,22.985,661.513,22.985,659.729z"/>
	<path fill="#2C3E50" d="M-199.056,662.705h26.19c1.786,0,2.979-1.189,2.979-2.979c0-1.784-1.189-2.976-2.979-2.976h-26.19
		c-1.785,0-2.978,1.188-2.978,2.976C-202.031,661.513-200.841,662.705-199.056,662.705z"/>
	<path fill="#2C3E50" d="M55.13,693.064h52.98c1.783,0,2.977-1.188,2.977-2.978c0-1.785-1.19-2.979-2.977-2.979H55.13
		c-1.784,0-2.977,1.19-2.977,2.979S53.344,693.064,55.13,693.064z"/>
	<path fill="#2C3E50" d="M-0.233,690.087c0-1.785-1.189-2.979-2.978-2.979h-91.674c-1.785,0-2.977,1.19-2.977,2.979
		s1.188,2.978,2.977,2.978H-3.21C-1.422,693.064-0.233,691.279-0.233,690.087z"/>
	<path fill="#2C3E50" d="M-181.791,687.111c-1.786,0-2.978,1.19-2.978,2.979s1.188,2.976,2.978,2.976h57.146
		c1.785,0,2.978-1.188,2.978-2.976s-1.188-2.979-2.978-2.979H-181.791z"/>
	<path fill="#2C3E50" d="M142.041,716.875H65.25c-1.786,0-2.979,1.189-2.979,2.977c0,1.789,1.189,2.979,2.979,2.979h76.791
		c1.786,0,2.978-1.189,2.978-2.979C145.017,718.064,143.827,716.875,142.041,716.875z"/>
	<path fill="#2C3E50" d="M-57.974,722.828h67.86c1.785,0,2.979-1.189,2.979-2.979c0-1.786-1.19-2.977-2.979-2.977h-67.86
		c-1.786,0-2.979,1.188-2.979,2.977C-60.951,721.638-59.76,722.828-57.974,722.828z"/>
	<path fill="#2C3E50" d="M-92.499,719.851c0-1.784-1.188-2.977-2.978-2.977h-68.457c-1.786,0-2.979,1.189-2.979,2.977
		c0,1.789,1.189,2.979,2.979,2.979h68.457C-93.691,722.828-92.499,721.638-92.499,719.851z"/>
	<path fill="#2C3E50" d="M142.041,746.64H14.055c-1.786,0-2.978,1.189-2.978,2.979c0,1.783,1.188,2.977,2.978,2.977h128.581
		c1.784,0,2.978-1.19,2.978-2.977C145.612,747.83,143.827,746.64,142.041,746.64z"/>
	<path fill="#2C3E50" d="M-7.97,749.617c0-1.787-1.19-2.979-2.979-2.979h-83.935c-1.785,0-2.977,1.189-2.977,2.979
		c0,1.783,1.188,2.977,2.977,2.977h83.935C-9.16,752.593-7.97,751.402-7.97,749.617z"/>
	<path fill="#2C3E50" d="M-199.056,752.593h52.386c1.785,0,2.978-1.19,2.978-2.977c0-1.787-1.189-2.979-2.978-2.979h-52.386
		c-1.785,0-2.978,1.189-2.978,2.979C-202.031,751.402-200.841,752.593-199.056,752.593z"/>
	<path fill="#2C3E50" d="M142.041,777H65.25c-1.786,0-2.979,1.188-2.979,2.977c0,1.785,1.189,2.979,2.979,2.979h76.791
		c1.786,0,2.978-1.191,2.978-2.979C145.015,778.189,143.827,777,142.041,777z"/>
	<path fill="#2C3E50" d="M28.343,779.976c0-1.786-1.188-2.977-2.977-2.977h-82.744c-1.785,0-2.978,1.188-2.978,2.977
		c0,1.785,1.189,2.979,2.978,2.979h82.744C27.152,782.953,28.343,781.761,28.343,779.976z"/>
	<path fill="#2C3E50" d="M-100.238,777h-73.221c-1.786,0-2.978,1.188-2.978,2.977c0,1.785,1.188,2.979,2.978,2.979h73.221
		c1.784,0,2.977-1.191,2.977-2.979C-97.263,778.189-98.452,777-100.238,777z"/>
	<path fill="#2C3E50" d="M97.392,806.763H-4.4c-1.786,0-2.978,1.189-2.978,2.978c0,1.785,1.188,2.979,2.978,2.979H97.392
		c1.786,0,2.979-1.19,2.979-2.979S99.18,806.763,97.392,806.763z"/>
	<path fill="#2C3E50" d="M-62.141,806.763h-22.024c-1.786,0-2.978,1.189-2.978,2.978c0,1.785,1.188,2.979,2.978,2.979h22.024
		c1.785,0,2.978-1.19,2.978-2.979S-60.356,806.763-62.141,806.763z"/>
	<path fill="#2C3E50" d="M-156.195,806.763h-42.859c-1.784,0-2.978,1.189-2.978,2.978c0,1.785,1.189,2.979,2.978,2.979h42.859
		c1.785,0,2.978-1.19,2.978-2.979C-153.219,807.953-154.408,806.763-156.195,806.763z"/>
</g>
</svg>
