<?xml version="1.0" encoding="utf-8"?>
<!-- Generator: Adobe Illustrator 16.0.0, SVG Export Plug-In . SVG Version: 6.00 Build 0)  -->
<!DOCTYPE svg PUBLIC "-//W3C//DTD SVG 1.1//EN" "http://www.w3.org/Graphics/SVG/1.1/DTD/svg11.dtd">
<svg version="1.1" id="Layer_1" xmlns="http://www.w3.org/2000/svg" xmlns:xlink="http://www.w3.org/1999/xlink" x="0px" y="0px"
	 width="538.582px" height="538.583px" viewBox="0 -56.693 538.582 538.583" enable-background="new 0 -56.693 538.582 538.583"
	 xml:space="preserve">
<g>
	<path d="M467.89,298.021h-91.078c-1.785,0-2.977,1.189-2.977,2.976s1.19,2.978,2.977,2.978h91.674c1.785,0,2.977-1.191,2.977-2.978
		S469.676,298.021,467.89,298.021z"/>
	<path d="M300.616,298.021h-63.101c-1.786,0-2.977,1.189-2.977,2.976s1.189,2.978,2.977,2.978h62.504
		c1.786,0,2.978-1.191,2.978-2.978S301.807,298.021,300.616,298.021z"/>
	<path d="M145.844,300.996c0,1.786,1.19,2.978,2.976,2.978h61.314c1.785,0,2.977-1.191,2.977-2.978s-1.19-2.976-2.977-2.976H148.82
		C147.034,298.021,145.844,299.21,145.844,300.996z"/>
	<path d="M409.552,327.784h-94.055c-1.785,0-2.977,1.189-2.977,2.977c0,1.786,1.19,2.977,2.977,2.977h94.055
		c1.786,0,2.977-1.19,2.977-2.977C412.529,328.974,411.338,327.784,409.552,327.784z"/>
	<path d="M123.819,330.76c0,1.786,1.19,2.978,2.977,2.978h140.485c1.786,0,2.978-1.191,2.978-2.978s-1.19-2.977-2.978-2.977H126.794
		C125.009,327.784,123.819,329.569,123.819,330.76z"/>
	<path d="M440.507,361.12c0-1.786-1.19-2.977-2.978-2.977h-92.863c-1.785,0-2.977,1.189-2.977,2.977c0,1.786,1.19,2.977,2.977,2.977
		h92.863C438.721,364.097,440.507,362.905,440.507,361.12z"/>
	<path d="M232.159,361.12c0,1.786,1.189,2.977,2.977,2.977h78.576c1.785,0,2.977-1.19,2.977-2.977s-1.19-2.977-2.977-2.977h-78.576
		C233.945,358.144,232.159,359.333,232.159,361.12z"/>
	<path d="M219.658,361.12c0-1.786-1.19-2.977-2.978-2.977H169.06c-1.786,0-2.977,1.189-2.977,2.977c0,1.786,1.189,2.977,2.977,2.977
		h47.622C218.468,364.097,219.658,362.905,219.658,361.12z"/>
	<path d="M467.89,387.907h-48.218c-1.786,0-2.978,1.189-2.978,2.976s1.19,2.978,2.978,2.978h48.218c1.786,0,2.977-1.19,2.977-2.978
		C470.865,389.099,469.676,387.907,467.89,387.907z"/>
	<path d="M348.834,390.883c0-1.786-1.19-2.976-2.978-2.976H229.183c-1.786,0-2.977,1.189-2.977,2.976s1.189,2.978,2.977,2.978
		h116.675C347.644,393.86,348.834,392.669,348.834,390.883z"/>
	<path d="M126.794,393.86h26.191c1.786,0,2.978-1.19,2.978-2.978c0-1.786-1.19-2.976-2.978-2.976h-26.191
		c-1.785,0-2.977,1.189-2.977,2.976C123.819,392.669,125.009,393.86,126.794,393.86z"/>
	<path d="M380.979,424.219h52.98c1.784,0,2.977-1.188,2.977-2.976c0-1.786-1.191-2.978-2.977-2.978h-52.98
		c-1.785,0-2.977,1.191-2.977,2.978S379.194,424.219,380.979,424.219z"/>
	<path d="M325.617,421.243c0-1.786-1.19-2.978-2.977-2.978h-91.673c-1.786,0-2.977,1.191-2.977,2.978
		c0,1.787,1.189,2.976,2.977,2.976h91.673C324.427,424.219,325.617,422.434,325.617,421.243z"/>
	<path d="M144.058,418.266c-1.786,0-2.977,1.191-2.977,2.978c0,1.787,1.189,2.976,2.977,2.976h57.146
		c1.785,0,2.977-1.188,2.977-2.976c0-1.786-1.189-2.978-2.977-2.978H144.058z"/>
	<path d="M467.89,448.03h-76.791c-1.786,0-2.978,1.189-2.978,2.977s1.19,2.978,2.978,2.978h76.791c1.786,0,2.977-1.19,2.977-2.978
		S469.676,448.03,467.89,448.03z"/>
	<path d="M267.876,453.983h67.86c1.786,0,2.978-1.19,2.978-2.978s-1.19-2.977-2.978-2.977h-67.86c-1.786,0-2.978,1.189-2.978,2.977
		S266.09,453.983,267.876,453.983z"/>
	<path d="M233.35,451.007c0-1.786-1.189-2.977-2.977-2.977h-68.457c-1.786,0-2.978,1.189-2.978,2.977s1.19,2.978,2.978,2.978h68.457
		C232.159,453.983,233.35,452.793,233.35,451.007z"/>
	<path d="M467.89,477.795H339.905c-1.786,0-2.977,1.189-2.977,2.978c0,1.784,1.189,2.977,2.977,2.977h128.581
		c1.785,0,2.977-1.191,2.977-2.977C471.461,478.984,469.676,477.795,467.89,477.795z"/>
	<path d="M317.879,480.771c0-1.787-1.19-2.978-2.978-2.978h-83.934c-1.786,0-2.977,1.189-2.977,2.978
		c0,1.784,1.189,2.977,2.977,2.977h83.934C316.689,483.748,317.879,482.557,317.879,480.771z"/>
	<path d="M126.794,483.748h52.385c1.786,0,2.977-1.191,2.977-2.977c0-1.787-1.189-2.978-2.977-2.978h-52.385
		c-1.785,0-2.977,1.189-2.977,2.978C123.819,482.557,125.009,483.748,126.794,483.748z"/>
	<path d="M467.89,508.154h-76.791c-1.786,0-2.978,1.188-2.978,2.977c0,1.785,1.19,2.978,2.978,2.978h76.791
		c1.786,0,2.977-1.191,2.977-2.978C470.865,509.344,469.676,508.154,467.89,508.154z"/>
	<path d="M354.192,511.131c0-1.787-1.189-2.977-2.977-2.977h-82.744c-1.785,0-2.977,1.188-2.977,2.977
		c0,1.785,1.19,2.978,2.977,2.978h82.744C353.001,514.107,354.192,512.916,354.192,511.131z"/>
	<path d="M225.612,508.154h-73.22c-1.786,0-2.977,1.188-2.977,2.977c0,1.785,1.189,2.978,2.977,2.978h73.22
		c1.785,0,2.977-1.191,2.977-2.978C228.587,509.344,227.397,508.154,225.612,508.154z"/>
	<path d="M423.242,537.918H321.45c-1.786,0-2.977,1.189-2.977,2.977c0,1.785,1.189,2.978,2.977,2.978h101.792
		c1.786,0,2.978-1.191,2.978-2.978C426.22,539.107,425.03,537.918,423.242,537.918z"/>
	<path d="M263.709,537.918h-22.025c-1.786,0-2.977,1.189-2.977,2.977c0,1.785,1.189,2.978,2.977,2.978h22.025
		c1.785,0,2.977-1.191,2.977-2.978C266.686,539.107,265.494,537.918,263.709,537.918z"/>
	<path d="M169.655,537.918h-42.859c-1.785,0-2.977,1.189-2.977,2.977c0,1.785,1.19,2.978,2.977,2.978h42.859
		c1.786,0,2.978-1.191,2.978-2.978C172.631,539.107,171.441,537.918,169.655,537.918z"/>
</g>
</svg>
