<?xml version="1.0" encoding="utf-8"?>
<!-- Generator: Adobe Illustrator 16.0.0, SVG Export Plug-In . SVG Version: 6.00 Build 0)  -->
<!DOCTYPE svg PUBLIC "-//W3C//DTD SVG 1.1//EN" "http://www.w3.org/Graphics/SVG/1.1/DTD/svg11.dtd">
<svg version="1.1" id="Layer_1" xmlns="http://www.w3.org/2000/svg" xmlns:xlink="http://www.w3.org/1999/xlink" x="0px" y="0px"
	 width="538.582px" height="538.582px" viewBox="-297.5 420.5 538.582 538.582"
	 enable-background="new -297.5 420.5 538.582 538.582" xml:space="preserve">
<g>
	<path fill="#2C3E50" d="M95.017,683.539H71.207l15.477-10.12c2.979-1.786,3.572-5.953,1.786-8.334
		c-1.786-2.977-5.953-3.57-8.334-1.786l-32.146,20.24h-61.313l42.86-42.859l36.905-8.334c3.571-0.597,5.356-4.167,4.765-7.146
		c-0.597-3.57-4.167-5.356-7.146-4.762l-17.856,4.168l16.668-16.668c2.381-2.383,2.381-6.55,0-8.932
		c-2.382-2.381-6.549-2.381-8.932,0l-16.668,16.668l4.167-17.857c0.598-3.57-1.188-6.548-4.763-7.145
		c-3.571-0.595-6.548,1.19-7.145,4.764l-8.334,36.906l-43.455,42.86v-61.313l20.238-32.146c1.786-2.978,1.189-6.549-1.785-8.334
		c-2.979-1.786-6.549-1.189-8.334,1.785l-10.119,15.478v-23.81c0-3.571-2.978-5.953-5.952-5.953c-2.978,0-5.952,2.979-5.952,5.953
		v23.812l-10.12-15.478c-1.785-2.978-5.952-3.571-8.334-1.785c-2.979,1.785-3.57,5.951-1.785,8.334l20.239,32.146v61.313
		l-42.859-42.86l-8.334-36.906c-0.597-3.572-4.167-5.357-7.145-4.764c-3.57,0.598-5.356,4.167-4.765,7.145l4.167,17.857
		l-16.667-16.668c-2.382-2.381-6.549-2.381-8.93,0c-2.382,2.382-2.382,6.549,0,8.932l16.668,16.668l-17.858-4.168
		c-3.569-0.597-6.548,1.189-7.144,4.762s1.189,6.549,4.763,7.146l36.907,8.334l42.859,42.859h-61.909l-31.55-20.24
		c-2.979-1.784-6.549-1.189-8.334,1.786c-1.786,2.978-1.189,6.548,1.785,8.334l15.479,10.12h-23.808
		c-3.571,0-5.952,2.978-5.952,5.952c0,2.977,2.978,5.952,5.952,5.952h23.812l-15.479,10.12c-2.978,1.785-3.571,5.952-1.785,8.334
		c1.188,1.785,2.977,2.977,5.355,2.977c1.189,0,2.381-0.595,3.57-1.188l32.146-20.238h60.721l-42.859,42.859l-38.099,8.929
		c-3.571,0.597-5.357,4.166-4.765,7.146c0.597,2.978,2.979,4.763,5.953,4.763c0.597,0,1.189,0,1.189,0l17.856-4.168l-16.668,16.668
		c-2.381,2.383-2.381,6.549,0,8.93c1.189,1.191,2.979,1.787,4.167,1.787c1.189,0,2.979-0.596,4.167-1.787l17.858-16.07
		l-4.167,17.857c-0.597,3.57,1.189,6.547,4.762,7.145c0.598,0,1.19,0,1.19,0c2.977,0,5.355-1.785,5.952-4.764l8.334-36.906
		l43.456-42.858v60.718l-20.24,32.146c-1.784,2.977-1.189,6.549,1.786,8.334c1.188,0.596,2.381,1.188,3.57,1.188
		c1.785,0,4.167-1.188,5.356-2.976l10.119-15.479v23.812c0,3.572,2.978,5.953,5.953,5.953c2.977,0,5.952-2.979,5.952-5.953v-23.812
		l10.119,15.479c1.189,1.785,2.978,2.976,5.356,2.976c1.189,0,2.382-0.594,3.57-1.188c2.979-1.785,3.571-5.953,1.786-8.334
		l-21.432-32.146v-60.718l42.859,42.858l8.333,36.906c0.598,2.979,2.979,4.764,5.953,4.764c0.597,0,1.189,0,1.189,0
		c3.571-0.596,5.355-4.168,4.764-7.145l-3.572-17.857l16.668,16.668c1.189,1.189,2.979,1.785,4.167,1.785
		c1.189,0,2.979-0.596,4.167-1.785c2.383-2.381,2.383-6.549,0-8.93l-16.668-16.668l17.857,4.166c0.597,0,1.19,0,1.19,0
		c2.978,0,5.356-1.785,5.951-4.762c0.598-3.572-1.188-6.55-4.763-7.146L28.921,739.5l-42.857-42.858h60.73l32.146,20.237
		c1.19,0.598,2.384,1.19,3.571,1.19c1.786,0,4.167-1.19,5.357-2.979c1.786-2.977,1.188-6.547-1.785-8.334l-15.479-10.119h23.812
		c3.571,0,5.952-2.978,5.952-5.951C100.376,687.706,97.996,683.539,95.017,683.539z"/>
</g>
</svg>
