<?xml version="1.0" encoding="utf-8"?>
<!-- Generator: Adobe Illustrator 16.0.0, SVG Export Plug-In . SVG Version: 6.00 Build 0)  -->
<!DOCTYPE svg PUBLIC "-//W3C//DTD SVG 1.1//EN" "http://www.w3.org/Graphics/SVG/1.1/DTD/svg11.dtd">
<svg version="1.1" id="Layer_1" xmlns="http://www.w3.org/2000/svg" xmlns:xlink="http://www.w3.org/1999/xlink" x="0px" y="0px"
	 width="538.583px" height="425.197px" viewBox="-56.693 0 538.583 425.197" enable-background="new -56.693 0 538.583 425.197"
	 xml:space="preserve">
<g>
	<path d="M335.825,206.349h-23.811l15.477-10.12c2.978-1.786,3.572-5.953,1.786-8.334c-1.786-2.977-5.953-3.571-8.334-1.786
		l-32.145,20.24h-61.314l42.86-42.86l36.906-8.334c3.572-0.596,5.357-4.167,4.764-7.145c-0.597-3.57-4.167-5.356-7.145-4.762
		l-17.857,4.168l16.668-16.668c2.381-2.383,2.381-6.55,0-8.931s-6.548-2.381-8.931,0l-16.668,16.668l4.167-17.858
		c0.597-3.57-1.189-6.548-4.762-7.144c-3.572-0.595-6.548,1.19-7.144,4.763l-8.334,36.907l-43.456,42.86v-61.314l20.239-32.145
		c1.786-2.978,1.19-6.549-1.785-8.334c-2.978-1.786-6.549-1.19-8.334,1.785l-10.12,15.478V89.672c0-3.571-2.977-5.953-5.952-5.953
		c-2.977,0-5.952,2.978-5.952,5.953v23.812l-10.12-15.478c-1.786-2.977-5.953-3.571-8.334-1.785
		c-2.978,1.785-3.571,5.951-1.786,8.334l20.24,32.145v61.314l-42.86-42.86l-8.334-36.907c-0.596-3.572-4.167-5.357-7.144-4.763
		c-3.571,0.597-5.357,4.167-4.764,7.144l4.167,17.858l-16.667-16.668c-2.382-2.381-6.549-2.381-8.93,0s-2.381,6.548,0,8.931
		l16.668,16.668l-17.858-4.168c-3.57-0.596-6.548,1.19-7.144,4.762c-0.595,3.572,1.19,6.549,4.763,7.145l36.907,8.334l42.86,42.86
		h-61.909l-31.55-20.24c-2.978-1.785-6.549-1.19-8.334,1.786c-1.786,2.977-1.19,6.548,1.785,8.334l15.478,10.12H89.972
		c-3.571,0-5.952,2.977-5.952,5.952c0,2.977,2.977,5.952,5.952,5.952h23.812l-15.478,10.12c-2.977,1.785-3.571,5.952-1.785,8.334
		c1.189,1.785,2.976,2.977,5.356,2.977c1.19,0,2.381-0.595,3.571-1.19l32.146-20.238h60.72l-42.86,42.859l-38.098,8.929
		c-3.572,0.597-5.358,4.167-4.764,7.145c0.596,2.977,2.978,4.762,5.953,4.762c0.596,0,1.19,0,1.19,0l17.857-4.167l-16.668,16.668
		c-2.381,2.382-2.381,6.549,0,8.93c1.19,1.19,2.978,1.786,4.167,1.786c1.19,0,2.978-0.596,4.167-1.786l17.858-16.071l-4.167,17.857
		c-0.596,3.571,1.19,6.548,4.762,7.144c0.597,0,1.191,0,1.191,0c2.976,0,5.356-1.785,5.952-4.762l8.334-36.907l43.456-42.86v60.719
		l-20.24,32.146c-1.785,2.977-1.19,6.549,1.786,8.334c1.189,0.596,2.381,1.189,3.571,1.189c1.785,0,4.167-1.189,5.356-2.976
		l10.12-15.479v23.812c0,3.572,2.977,5.953,5.953,5.953c2.976,0,5.952-2.978,5.952-5.953v-23.812l10.12,15.479
		c1.189,1.785,2.977,2.976,5.356,2.976c1.19,0,2.382-0.595,3.571-1.189c2.978-1.785,3.572-5.952,1.786-8.334l-21.431-32.146v-60.719
		l42.86,42.86l8.333,36.906c0.597,2.978,2.978,4.763,5.953,4.763c0.596,0,1.19,0,1.19,0c3.571-0.595,5.356-4.167,4.763-7.144
		l-3.572-17.857l16.668,16.667c1.19,1.19,2.978,1.786,4.167,1.786c1.19,0,2.978-0.596,4.167-1.786c2.382-2.381,2.382-6.548,0-8.929
		l-16.668-16.668l17.858,4.166c0.596,0,1.19,0,1.19,0c2.977,0,5.357-1.785,5.952-4.762c0.597-3.572-1.189-6.549-4.763-7.144
		l-36.907-8.334l-42.858-42.86H287.6l32.146,20.239c1.19,0.596,2.382,1.19,3.571,1.19c1.786,0,4.167-1.19,5.357-2.977
		c1.786-2.977,1.19-6.548-1.785-8.334l-15.479-10.12h23.812c3.571,0,5.952-2.977,5.952-5.952
		C341.182,210.516,338.802,206.349,335.825,206.349z"/>
</g>
</svg>
