<?xml version="1.0" encoding="utf-8"?>
<!-- Generator: Adobe Illustrator 16.0.0, SVG Export Plug-In . SVG Version: 6.00 Build 0)  -->
<!DOCTYPE svg PUBLIC "-//W3C//DTD SVG 1.1//EN" "http://www.w3.org/Graphics/SVG/1.1/DTD/svg11.dtd">
<svg version="1.1" id="Layer_1" xmlns="http://www.w3.org/2000/svg" xmlns:xlink="http://www.w3.org/1999/xlink" x="0px" y="0px"
	 width="538.582px" height="538.582px" viewBox="-297.5 420.5 538.582 538.582"
	 enable-background="new -297.5 420.5 538.582 538.582" xml:space="preserve">
<g>
	<g>
		<path fill="#F3E59A" d="M76.507,685.732c-39.716,0-75.979-23.326-92.669-60.062c-11.512-25.08-12.666-53.068-3.451-79.312
			c9.208-26.242,28.202-46.651,52.957-58.314c10.36-5.247,21.871-8.164,33.381-9.329c2.306,0,5.18,1.165,5.757,3.498
			c1.147,2.333,0.578,5.248-1.148,7c-27.054,27.41-34.533,68.812-18.418,103.801c14.967,32.074,47.198,53.068,81.73,53.068
			c2.881,0,5.756,0,8.638-0.584c2.305,0,5.178,1.162,5.754,3.496c1.149,2.334,0.579,5.246-1.146,7
			c-8.06,8.164-17.845,15.162-28.204,19.828C105.863,682.232,91.472,685.732,76.507,685.732z"/>
	</g>
	<g>
		<path fill="#2C3E50" d="M100.104,682.882c-2.978,0-5.354-1.783-5.951-4.762c-0.597-3.572,1.188-6.551,4.767-7.146
			c6.549-1.188,13.098-3.57,19.05-6.553c4.167-1.783,8.334-4.165,12.501-7.145c-37.503-2.979-70.838-25.599-86.911-59.527
			c-16.071-34.525-11.904-74.408,9.521-104.77c-4.762,1.189-8.929,2.978-13.097,4.762c-26.188,12.501-44.646,35.718-51.193,63.694
			c-0.595,3.57-4.167,5.357-7.143,4.763c-3.572-0.595-5.358-4.167-4.768-7.146c7.146-32.146,27.979-58.335,57.745-72.623
			c10.715-4.762,22.021-8.334,33.932-9.524c2.381,0,5.354,1.19,5.953,3.572c1.188,2.381,0.595,5.356-1.189,7.144
			c-27.979,27.384-35.122,69.055-19.05,104.176c16.667,35.121,53.575,56.549,92.271,52.384c2.383,0,5.354,1.188,5.949,3.569
			c1.189,2.383,0.602,5.354-1.188,7.146c-8.334,8.334-18.454,14.887-29.17,20.239C114.987,678.119,107.253,681.689,100.104,682.882
			C99.873,682.878,100.104,682.882,100.104,682.882z"/>
	</g>
</g>
<path fill="#F2E085" d="M-98.99,754.344c-3.373,0.56-5.626,3.357-5.06,6.711l6.751,43.047c0,2.236,2.164,1.939,4.161,2.594
	l27.001,11.184l-8.663,71.758c-0.562,2.795,1.123,5.027,3.376,6.148c0.562,0.559,1.686,0.559,2.25,0.559
	c2.25,0,3.938-0.559,5.06-2.232l61.879-82.181c1.688-2.236,1.688-5.589-0.562-7.826l-27.565-26.276l4.502-16.215
	c1.123-3.352-0.565-6.707-3.939-7.267L-98.99,754.344z"/>
<g>
	<path fill="#ECF0F1" d="M-159.319,652.701c-23.889,0-43.372,19.55-43.372,43.509c0,23.963,19.483,43.51,43.372,43.51H29.258
		c23.886,0,43.372-19.547,43.372-43.51c0-23.959-19.486-43.509-43.372-43.509c-2.516,0-5.029,0-7.543,0.631
		c-1.888,0-3.771,0-5.031-1.261c-1.256-1.261-2.516-2.521-2.516-4.413c-5.654-39.096-39.604-68.732-79.203-68.732
		c-39.603,0-73.543,29.638-79.2,68.732c0,1.892-1.259,3.152-2.518,4.413c-1.257,1.263-3.146,1.263-5.028,1.263
		C-154.918,652.701-157.433,652.701-159.319,652.701z"/>
	<g>
		<g>
			<path fill="#2C3E50" d="M24.433,747.7h-178.584c-29.768,0-53.575-23.812-53.575-53.574c0-30.358,25.599-55.36,56.553-53.576
				c8.93-39.883,44.646-69.646,86.314-69.646c41.667,0,77.386,29.17,86.313,69.646c30.955-1.785,56.554,23.217,56.554,53.576
				C78.01,723.888,54.197,747.7,24.433,747.7z M-154.151,653.049c-22.621,0-41.074,18.455-41.074,41.076
				c0,22.619,18.453,41.668,41.074,41.668H24.432c22.617,0,41.072-18.451,41.072-41.072s-18.455-41.076-41.072-41.076
				c-2.383,0-4.766,0-7.146,0.596c-1.784,0-3.569,0-4.764-1.19c-1.188-1.19-2.381-2.381-2.381-4.168
				c-5.355-36.907-37.502-64.885-75.006-64.885c-37.505,0-69.646,27.978-75.007,64.885c0,1.787-1.188,2.977-2.382,4.168
				c-1.188,1.19-2.978,1.19-4.764,1.19C-149.388,653.049-151.77,653.049-154.151,653.049z"/>
		</g>
		<g>
			<path fill="#2C3E50" d="M-69.622,899.235c-0.597,0-1.786,0-2.382-0.6c-2.382-1.188-4.167-3.568-3.571-6.549l8.334-74.408
				l-28.569-11.902c-1.786-0.597-3.571-2.382-3.571-4.763l-6.987-39.433c-0.597-3.569,1.786-6.552,5.355-7.146
				c3.568-0.596,6.549,1.787,7.146,5.355l5.799,35.861l29.767,12.5c2.383,1.189,4.168,3.571,3.571,6.549l-6.552,56.553
				l49.409-65.479l-27.978-26.785c-1.786-1.786-2.382-4.168-1.786-5.952l3.604-14.336c0.6-3.57,4.167-5.354,7.739-4.166
				c3.571,0.596,5.356,4.166,4.167,7.734l-2.417,10.768l29.167,27.979c2.381,2.381,2.381,5.953,0.599,8.334l-66.075,87.506
				C-66.05,898.043-67.837,899.235-69.622,899.235z"/>
		</g>
	</g>
</g>
</svg>
