<?xml version="1.0" encoding="utf-8"?>
<!-- Generator: Adobe Illustrator 16.0.0, SVG Export Plug-In . SVG Version: 6.00 Build 0)  -->
<!DOCTYPE svg PUBLIC "-//W3C//DTD SVG 1.1//EN" "http://www.w3.org/Graphics/SVG/1.1/DTD/svg11.dtd">
<svg version="1.1" id="Layer_1" xmlns="http://www.w3.org/2000/svg" xmlns:xlink="http://www.w3.org/1999/xlink" x="0px" y="0px"
	 width="538.582px" height="538.583px" viewBox="0 -56.693 538.582 538.583" enable-background="new 0 -56.693 538.582 538.583"
	 xml:space="preserve">
<g>
	<g>
		<path d="M338.784,208.563c-2.977,0-5.355-1.786-5.953-4.762c-0.596-3.572,1.191-6.549,4.764-7.145
			c6.549-1.19,13.098-3.572,19.049-6.548c4.168-1.786,8.334-4.167,12.502-7.144c-36.908-2.977-70.244-25.597-86.315-60.123
			c-16.071-34.527-11.903-74.41,9.524-104.77c-4.764,1.189-8.93,2.977-13.098,4.762c-26.191,12.502-44.646,35.717-51.193,63.695
			c-0.596,3.572-4.166,5.357-7.144,4.762c-3.571-0.595-5.356-4.167-4.762-7.144c7.144-32.146,27.978-58.337,57.739-72.624
			C284.615,6.762,295.924,3.19,307.829,2c2.383,0,5.357,1.19,5.953,3.572c1.189,2.381,0.598,5.355-1.189,7.144
			c-27.979,27.383-35.121,69.053-19.049,104.174c16.668,35.121,53.574,56.552,92.27,52.385c2.381,0,5.357,1.189,5.953,3.572
			c1.188,2.381,0.594,5.356-1.191,7.143c-8.334,8.334-18.453,14.882-29.168,20.24c-7.145,2.976-14.287,5.953-21.432,7.143
			C339.382,208.563,338.784,208.563,338.784,208.563z"/>
	</g>
	<g>
		<path d="M264.971,271.663H86.387c-29.765,0-53.575-23.812-53.575-53.576c0-30.358,25.598-55.36,56.552-53.575
			c8.93-39.883,44.646-69.646,86.315-69.646c41.668,0,77.385,29.169,86.315,69.646c30.955-1.785,56.552,23.217,56.552,53.575
			C318.546,247.851,294.735,271.663,264.971,271.663z M86.387,177.012c-22.621,0-41.074,18.455-41.074,41.075
			c0,22.619,18.453,41.668,41.074,41.668H264.97c22.619,0,41.074-18.451,41.074-41.072c0-22.621-18.455-41.075-41.074-41.075
			c-2.381,0-4.765,0-7.146,0.595c-1.785,0-3.569,0-4.763-1.19c-1.19-1.19-2.381-2.381-2.381-4.168
			c-5.356-36.907-37.502-64.885-75.004-64.885c-37.504,0-69.647,27.978-75.006,64.885c0,1.787-1.19,2.977-2.382,4.168
			c-1.189,1.19-2.977,1.19-4.763,1.19C91.15,177.012,88.768,177.012,86.387,177.012z"/>
	</g>
	<g>
		<path d="M170.917,423.198c-0.597,0-1.786,0-2.382-0.597c-2.382-1.19-4.167-3.571-3.571-6.549l8.334-74.409l-28.572-11.904
			c-1.786-0.596-3.572-2.381-3.572-4.762l-6.987-40.588c-0.597-3.57,1.786-6.55,5.356-7.146c3.57-0.595,6.548,1.787,7.145,5.356
			l5.798,37.017l29.765,12.5c2.382,1.19,4.167,3.571,3.571,6.549l-6.549,56.551l49.409-65.479l-27.978-26.786
			c-1.786-1.787-2.382-4.168-1.786-5.953l3.606-14.336c0.597-3.57,4.167-5.354,7.739-4.166c3.571,0.596,5.356,4.166,4.167,7.737
			l-2.417,10.765l29.167,27.979c2.381,2.381,2.381,5.953,0.597,8.334l-66.076,87.506
			C174.489,422.007,172.702,423.198,170.917,423.198z"/>
	</g>
</g>
</svg>
