<?xml version="1.0" encoding="utf-8"?>
<!-- Generator: Adobe Illustrator 16.0.0, SVG Export Plug-In . SVG Version: 6.00 Build 0)  -->
<!DOCTYPE svg PUBLIC "-//W3C//DTD SVG 1.1//EN" "http://www.w3.org/Graphics/SVG/1.1/DTD/svg11.dtd">
<svg version="1.1" id="Layer_1" xmlns="http://www.w3.org/2000/svg" xmlns:xlink="http://www.w3.org/1999/xlink" x="0px" y="0px"
	 width="538.582px" height="538.583px" viewBox="0 -56.693 538.582 538.583" enable-background="new 0 -56.693 538.582 538.583"
	 xml:space="preserve">
<g>
	<g>
		<path d="M301.89,220.337H123.306c-29.765,0-53.575-23.811-53.575-53.576c0-29.764,23.812-53.574,53.575-53.574
			c1.19,0,1.785,0,2.978,0c8.93-39.885,44.646-69.647,86.315-69.647c41.669,0,77.386,29.168,86.313,69.647c1.19,0,2.383,0,2.978,0
			c29.765,0,53.575,23.812,53.575,53.574C355.466,196.526,331.655,220.337,301.89,220.337z M123.306,125.091
			c-22.62,0-41.074,18.455-41.074,41.074c0,22.62,18.454,41.075,41.074,41.075H301.89c22.621,0,41.074-18.454,41.074-41.075
			s-18.453-41.074-41.074-41.074c-2.381,0-4.762,0-7.144,0.596c-1.785,0-3.571,0-4.764-1.19c-1.189-1.19-2.381-2.381-2.381-4.167
			c-5.356-36.906-37.503-64.886-75.005-64.886c-37.503,0-69.648,27.979-75.007,64.886c0,1.786-1.189,2.977-2.381,4.167
			c-1.19,1.19-2.978,1.19-4.764,1.19C127.473,125.687,125.688,125.091,123.306,125.091z"/>
	</g>
	<g>
		<path d="M207.836,381.657c-0.596,0-1.786,0-2.381-0.596c-2.383-1.189-4.167-3.57-3.572-6.547l8.334-74.41l-28.572-11.906
			c-1.786-0.596-3.57-2.381-3.57-4.762l-7.145-45.836c-0.597-3.572,1.785-6.55,5.356-7.146c3.57-0.597,6.548,1.785,7.145,5.356
			l6.548,42.265l29.765,12.502c2.381,1.188,4.167,3.571,3.57,6.547l-7.144,56.554l49.408-65.48l-27.979-26.787
			c-1.786-1.785-2.381-4.166-1.786-5.953l5.357-20.834c0.596-3.572,4.167-5.357,7.738-4.168c3.57,0.596,5.356,4.168,4.167,7.738
			l-4.764,17.264l29.169,27.979c2.381,2.383,2.381,5.953,0.597,8.334l-65.479,87.508
			C211.407,381.062,209.622,381.657,207.836,381.657z"/>
	</g>
</g>
</svg>
