<?xml version="1.0" encoding="utf-8"?>
<!-- Generator: Adobe Illustrator 16.0.0, SVG Export Plug-In . SVG Version: 6.00 Build 0)  -->
<!DOCTYPE svg PUBLIC "-//W3C//DTD SVG 1.1//EN" "http://www.w3.org/Graphics/SVG/1.1/DTD/svg11.dtd">
<svg version="1.1" id="Layer_1" xmlns="http://www.w3.org/2000/svg" xmlns:xlink="http://www.w3.org/1999/xlink" x="0px" y="0px"
	 width="538.582px" height="538.583px" viewBox="0 0 538.582 538.583" enable-background="new 0 0 538.582 538.583"
	 xml:space="preserve">
<path fill="#F2E085" d="M198.51,333.844c-3.374,0.56-5.626,3.357-5.06,6.711l6.751,43.047c0,2.236,2.164,1.939,4.161,2.594
	l27.001,11.183l-8.663,71.759c-0.562,2.794,1.123,5.027,3.376,6.147c0.562,0.56,1.685,0.56,2.25,0.56c2.25,0,3.938-0.56,5.059-2.233
	l61.879-82.181c1.688-2.236,1.688-5.588-0.562-7.826l-27.566-26.277l4.502-16.214c1.123-3.352-0.565-6.707-3.939-7.267
	L198.51,333.844z"/>
<g>
	<path fill="#ECF0F1" d="M138.181,232.2c-23.888,0-43.372,19.55-43.372,43.509c0,23.963,19.484,43.511,43.372,43.511h188.576
		c23.886,0,43.372-19.548,43.372-43.511c0-23.959-19.486-43.509-43.372-43.509c-2.515,0-5.029,0-7.543,0.631
		c-1.887,0-3.771,0-5.031-1.26c-1.256-1.261-2.516-2.522-2.516-4.414c-5.654-39.095-39.603-68.732-79.202-68.732
		c-39.603,0-73.543,29.638-79.201,68.732c0,1.892-1.258,3.153-2.517,4.414c-1.257,1.262-3.146,1.262-5.029,1.262
		C142.582,232.2,140.067,232.2,138.181,232.2z"/>
	<g>
		<g>
			<path fill="#2C3E50" d="M395.746,264.1c-2.979,0-5.355-1.786-5.953-4.762c-0.596-3.572,1.191-6.549,4.766-7.145
				c6.549-1.19,13.098-3.572,19.049-6.548c4.168-1.786,8.334-4.167,12.502-7.144c-36.908-2.977-70.244-25.597-86.314-60.123
				c-16.07-34.527-11.902-74.41,9.523-104.77c-4.766,1.189-8.932,2.977-13.1,4.762c-26.189,12.502-44.646,35.717-51.191,63.695
				c-0.596,3.572-4.166,5.357-7.146,4.762c-3.568-0.595-5.354-4.167-4.762-7.144c7.146-32.146,27.979-58.337,57.74-72.624
				c10.717-4.76,22.025-8.332,33.932-9.522c2.385,0,5.357,1.19,5.953,3.572c1.188,2.381,0.6,5.354-1.189,7.144
				c-27.979,27.383-35.121,69.053-19.051,104.174c16.67,35.121,53.574,56.552,92.271,52.385c2.381,0,5.357,1.189,5.953,3.572
				c1.188,2.381,0.594,5.356-1.191,7.143c-8.334,8.334-18.453,14.882-29.168,20.24c-7.145,2.976-14.287,5.953-21.432,7.143
				C396.345,264.1,395.746,264.1,395.746,264.1z"/>
		</g>
		<g>
			<path fill="#2C3E50" d="M321.933,327.2H143.349c-29.767,0-53.575-23.812-53.575-53.575c0-30.358,25.599-55.36,56.553-53.576
				c8.93-39.883,44.646-69.646,86.314-69.646c41.667,0,77.386,29.169,86.314,69.646c30.955-1.785,56.553,23.217,56.553,53.576
				C375.51,303.388,351.697,327.2,321.933,327.2z M143.349,232.549c-22.621,0-41.074,18.455-41.074,41.076
				c0,22.619,18.453,41.668,41.074,41.668h178.583c22.617,0,41.072-18.451,41.072-41.072c0-22.621-18.455-41.076-41.072-41.076
				c-2.383,0-4.766,0-7.145,0.595c-1.785,0-3.57,0-4.764-1.19c-1.189-1.19-2.381-2.381-2.381-4.168
				c-5.355-36.907-37.502-64.885-75.006-64.885c-37.504,0-69.646,27.978-75.006,64.885c0,1.787-1.188,2.977-2.382,4.168
				c-1.188,1.19-2.978,1.19-4.764,1.19C148.112,232.549,145.73,232.549,143.349,232.549z"/>
		</g>
		<g>
			<path fill="#2C3E50" d="M227.878,478.734c-0.597,0-1.786,0-2.382-0.598c-2.382-1.188-4.167-3.57-3.571-6.549l8.334-74.408
				l-28.57-11.903c-1.786-0.597-3.571-2.382-3.571-4.763l-6.987-39.433c-0.597-3.569,1.786-6.551,5.355-7.146
				c3.568-0.595,6.549,1.787,7.146,5.356l5.798,35.861l29.767,12.5c2.383,1.19,4.168,3.571,3.571,6.549l-6.551,56.552l49.409-65.479
				l-27.978-26.785c-1.786-1.787-2.382-4.168-1.786-5.953l3.604-14.336c0.599-3.569,4.167-5.354,7.739-4.166
				c3.571,0.597,5.356,4.166,4.167,7.735l-2.417,10.767l29.167,27.979c2.381,2.381,2.381,5.953,0.598,8.334l-66.075,87.506
				C231.45,477.544,229.663,478.734,227.878,478.734z"/>
		</g>
	</g>
</g>
</svg>
