<?xml version="1.0" encoding="utf-8"?>
<!-- Generator: Adobe Illustrator 16.0.0, SVG Export Plug-In . SVG Version: 6.00 Build 0)  -->
<!DOCTYPE svg PUBLIC "-//W3C//DTD SVG 1.1//EN" "http://www.w3.org/Graphics/SVG/1.1/DTD/svg11.dtd">
<svg version="1.1" id="Layer_1" xmlns="http://www.w3.org/2000/svg" xmlns:xlink="http://www.w3.org/1999/xlink" x="0px" y="0px"
	 width="538.582px" height="538.583px" viewBox="0 0 538.582 538.583" enable-background="new 0 0 538.582 538.583"
	 xml:space="preserve">
<path fill="#F2E085" d="M233.277,286.784c-3.439,0.588-5.735,3.529-5.157,7.054l6.882,45.244c0,2.351,1.72,4.112,3.439,4.701
	l29.379,11.811l-8.029,73.448c-0.573,2.937-0.709,5.228,1.588,6.404c0.572,0.588,1.718,0.588,2.294,0.588
	c2.294,0,4.014-0.588,5.157-2.347l63.079-86.378c1.721-2.35,1.721-5.873-0.573-8.226l-28.101-27.619l4.59-17.041
	c1.145-3.522-0.576-7.05-4.016-7.638L233.277,286.784z"/>
<g>
	<path fill="#ECF0F1" d="M175.182,180.201c-23.888,0-43.372,19.55-43.372,43.51c0,23.963,19.484,43.51,43.372,43.51h188.576
		c23.886,0,43.372-19.547,43.372-43.51c0-23.96-19.486-43.51-43.372-43.51c-2.515,0-5.029,0-7.543,0.631
		c-1.887,0-3.771,0-5.031-1.26c-1.256-1.261-2.516-2.522-2.516-4.414c-5.654-39.095-39.603-68.732-79.202-68.732
		c-39.603,0-73.543,29.638-79.201,68.732c0,1.892-1.258,3.153-2.517,4.414c-1.256,1.262-3.146,1.262-5.029,1.262
		C179.583,180.201,177.068,180.201,175.182,180.201z"/>
	<g>
		<g>
			<path fill="#2C3E50" d="M358.583,277.03H179.999c-29.767,0-53.575-23.811-53.575-53.576c0-29.764,23.812-53.574,53.575-53.574
				c1.188,0,1.783,0,2.979,0c8.93-39.885,44.646-69.647,86.314-69.647c41.67,0,77.387,29.168,86.312,69.647c1.19,0,2.383,0,2.979,0
				c29.766,0,53.575,23.812,53.575,53.574C412.16,253.219,388.347,277.03,358.583,277.03z M179.999,181.784
				c-22.62,0-41.074,18.455-41.074,41.074c0,22.62,18.454,41.075,41.074,41.075h178.584c22.621,0,41.074-18.454,41.074-41.075
				s-18.453-41.074-41.074-41.074c-2.383,0-4.764,0-7.146,0.596c-1.785,0-3.571,0-4.764-1.19c-1.189-1.19-2.382-2.381-2.382-4.167
				c-5.355-36.906-37.503-64.886-75.005-64.886c-37.505,0-69.647,27.979-75.009,64.886c0,1.786-1.188,2.977-2.381,4.167
				c-1.188,1.19-2.979,1.19-4.765,1.19C184.166,182.38,182.381,181.784,179.999,181.784z"/>
		</g>
		<g>
			<path fill="#2C3E50" d="M264.528,438.35c-0.596,0-1.786,0-2.381-0.596c-2.383-1.189-4.167-3.57-3.572-6.547l8.334-74.41
				l-28.57-11.906c-1.785-0.596-3.569-2.381-3.569-4.762l-7.146-45.836c-0.599-3.572,1.753-6.822,5.324-7.418
				c3.569-0.598,6.548,1.785,7.146,5.355l6.578,42.537l29.766,12.502c2.381,1.188,4.167,3.57,3.569,6.547l-7.146,56.555
				l49.408-65.479l-27.979-26.788c-1.786-1.785-2.383-4.166-1.786-5.953l5.355-20.834c0.598-3.571,4.167-5.356,7.738-4.168
				c3.569,0.597,5.355,4.168,4.167,7.737l-4.765,17.265l29.17,27.979c2.381,2.385,2.381,5.953,0.597,8.334l-65.479,87.51
				C268.099,437.754,266.314,438.35,264.528,438.35z"/>
		</g>
	</g>
</g>
</svg>
