<?xml version="1.0" encoding="utf-8"?>
<!-- Generator: Adobe Illustrator 16.0.0, SVG Export Plug-In . SVG Version: 6.00 Build 0)  -->
<!DOCTYPE svg PUBLIC "-//W3C//DTD SVG 1.1//EN" "http://www.w3.org/Graphics/SVG/1.1/DTD/svg11.dtd">
<svg version="1.1" id="Layer_1" xmlns="http://www.w3.org/2000/svg" xmlns:xlink="http://www.w3.org/1999/xlink" x="0px" y="0px"
	 width="538.582px" height="538.582px" viewBox="-297.5 420.5 538.582 538.582"
	 enable-background="new -297.5 420.5 538.582 538.582" xml:space="preserve">
<g>
	<path fill="#ECF0F1" d="M-122.01,582.702c-23.887,0-43.372,19.55-43.372,43.51c0,23.963,19.485,43.51,43.372,43.51H66.566
		c23.886,0,43.372-19.547,43.372-43.51c0-23.96-19.486-43.51-43.372-43.51c-2.514,0-5.029,0-7.543,0.631
		c-1.886,0-3.771,0-5.031-1.26c-1.256-1.262-2.516-2.522-2.516-4.414c-5.654-39.096-39.602-68.732-79.201-68.732
		c-39.604,0-73.543,29.638-79.202,68.732c0,1.892-1.257,3.152-2.516,4.414c-1.256,1.262-3.146,1.262-5.03,1.262
		C-117.61,582.702-120.125,582.702-122.01,582.702z"/>
	<g>
		<g>
			<g>
				<path fill="#2C3E50" d="M-56.187,765.715c-0.6,0-1.786,0-2.382-0.598c-2.979-1.189-4.768-4.763-3.571-8.334l23.812-57.74
					c1.19-2.979,4.769-4.764,8.334-3.571c2.979,1.188,4.769,4.764,3.571,8.334l-23.811,57.743
					C-51.427,763.932-53.807,765.715-56.187,765.715z"/>
			</g>
			<g>
				<path fill="#2C3E50" d="M32.51,744.881c-0.6,0-1.785,0-2.381-0.6c-2.979-1.188-4.766-4.762-3.572-8.334l15.479-36.904
					c1.189-2.979,4.766-4.765,8.334-3.572c2.979,1.189,4.766,4.765,3.57,8.334l-16.072,36.908
					C37.272,743.094,34.891,744.881,32.51,744.881z"/>
			</g>
			<g>
				<path fill="#2C3E50" d="M-141.909,780.004c-0.597,0-1.782,0-2.383-0.596c-2.976-1.189-4.762-4.765-3.566-8.334l14.283-34.525
					c1.189-2.979,4.766-4.766,8.336-3.571c2.979,1.188,4.764,4.765,3.568,8.334l-14.287,34.524
					C-137.146,778.813-139.527,780.004-141.909,780.004z"/>
			</g>
			<g>
				<path fill="#2C3E50" d="M-116.906,719.284c-0.601,0-1.786,0-2.387-0.595c-2.977-1.19-4.762-4.765-3.566-8.334l4.763-11.312
					c1.19-2.979,4.763-4.765,8.334-3.57c2.978,1.188,4.763,4.762,3.571,8.334l-4.768,11.311
					C-112.144,717.499-114.525,719.284-116.906,719.284z"/>
			</g>
			<g>
				<path fill="#2C3E50" d="M61.081,679.4h-178.584c-29.764,0-53.574-23.812-53.574-53.574c0-30.359,25.601-55.361,56.556-53.574
					c8.93-39.885,44.646-69.647,86.312-69.647c41.667,0,77.392,29.168,86.315,69.647c1.189,0,2.381,0,2.977,0
					c29.768,0,53.576,23.812,53.576,53.574C114.657,655.589,90.846,679.4,61.081,679.4z M-117.503,584.751
					c-22.621,0-41.073,18.455-41.073,41.075c0,22.621,18.452,41.073,41.073,41.073H61.081c22.621,0,41.074-18.452,41.074-41.073
					c0-22.62-18.453-41.075-41.074-41.075c-2.381,0-4.762,0-7.143,0.596c-1.787,0-3.572,0-4.764-1.188
					c-1.189-1.19-2.387-2.383-2.387-4.167c-5.354-36.906-37.502-64.887-75.005-64.887s-69.646,27.979-75.005,64.887
					c0,1.784-1.19,2.977-2.382,4.167c-1.19,1.189-2.979,1.189-4.766,1.189C-113.336,584.751-115.717,584.751-117.503,584.751z"/>
			</g>
		</g>
		<path fill="#2C3E50" d="M29.588,801.977H6.963l16.072-16.072c2.386-2.381,2.386-6.549,0-8.93c-2.382-2.383-6.549-2.383-8.931,0
			l-16.071,16.072v-22.621c0-3.57-2.978-5.951-5.953-5.951c-2.977,0-5.951,2.977-5.951,5.951v22.621l-16.069-16.072
			c-2.382-2.383-6.553-2.383-8.934,0c-2.382,2.381-2.382,6.549,0,8.93l16.072,16.072h-22.62c-3.572,0-5.953,2.977-5.953,5.951
			c0,2.979,2.979,5.953,5.953,5.953h22.62l-16.072,16.07c-2.382,2.383-2.382,6.551,0,8.932c1.19,1.188,2.979,1.785,4.168,1.785
			c1.189,0,2.979-0.598,4.167-1.785l16.071-16.07v22.617c0,3.572,2.979,5.953,5.953,5.953c2.977,0,5.951-2.979,5.951-5.953v-22.617
			l16.073,16.07c1.188,1.188,2.977,1.785,4.167,1.785c1.188,0,2.977-0.598,4.167-1.785c2.381-2.381,2.381-6.549,0-8.932
			L7.557,814.472h22.621c3.566,0,5.952-2.979,5.952-5.951C36.135,805.547,33.156,801.977,29.588,801.977z"/>
		<path fill="#2C3E50" d="M-90.067,826.979h-22.619l16.066-16.072c2.386-2.381,2.386-6.549,0-8.93c-2.381-2.383-6.548-2.383-8.93,0
			l-16.072,16.07v-22.619c0-3.57-2.977-5.951-5.947-5.951c-2.979,0-5.952,2.979-5.952,5.951v22.619l-16.072-15.479
			c-2.382-2.381-6.549-2.381-8.93,0c-2.382,2.382-2.382,6.55,0,8.933l16.066,16.07h-22.615c-3.571,0-5.952,2.979-5.952,5.953
			c0,2.977,2.977,5.951,5.952,5.951h22.615l-16.066,16.068c-2.382,2.383-2.382,6.549,0,8.932c1.188,1.189,2.977,1.785,4.167,1.785
			c1.188,0,2.977-0.598,4.167-1.785l16.066-16.07v22.621c0,3.57,2.979,5.953,5.953,5.953c2.979,0,5.953-2.98,5.953-5.953v-22.621
			l16.072,16.07c1.188,1.189,2.977,1.785,4.167,1.785c1.188,0,2.977-0.598,4.167-1.785c2.381-2.383,2.381-6.549,0-8.932
			l-16.072-16.068h23.812c3.567,0,5.948-2.979,5.948-5.951C-84.114,830.549-86.496,826.979-90.067,826.979z"/>
	</g>
</g>
</svg>
