<?xml version="1.0" encoding="utf-8"?>
<!-- Generator: Adobe Illustrator 16.0.0, SVG Export Plug-In . SVG Version: 6.00 Build 0)  -->
<!DOCTYPE svg PUBLIC "-//W3C//DTD SVG 1.1//EN" "http://www.w3.org/Graphics/SVG/1.1/DTD/svg11.dtd">
<svg version="1.1" id="Layer_1" xmlns="http://www.w3.org/2000/svg" xmlns:xlink="http://www.w3.org/1999/xlink" x="0px" y="0px"
	 width="538.582px" height="538.583px" viewBox="0 0 538.582 538.583" enable-background="new 0 0 538.582 538.583"
	 xml:space="preserve">
<g>
	<path fill="#ECF0F1" d="M175.182,195.201c-23.887,0-43.372,19.55-43.372,43.51c0,23.963,19.485,43.51,43.372,43.51h188.576
		c23.886,0,43.372-19.547,43.372-43.51c0-23.96-19.486-43.51-43.372-43.51c-2.514,0-5.029,0-7.543,0.631
		c-1.886,0-3.771,0-5.031-1.26c-1.256-1.261-2.516-2.522-2.516-4.414c-5.654-39.095-39.602-68.732-79.201-68.732
		c-39.603,0-73.543,29.639-79.202,68.732c0,1.892-1.257,3.153-2.516,4.414c-1.256,1.262-3.146,1.262-5.03,1.262
		C179.583,195.201,177.068,195.201,175.182,195.201z"/>
	<g>
		<g>
			<path fill="#2C3E50" d="M221.669,424.658c-0.599,0-1.786,0-2.381-0.596c-2.979-1.188-4.766-4.763-3.572-8.334l8.931-22.022
				c1.189-2.978,4.762-4.765,8.334-3.572c2.979,1.188,4.762,4.765,3.57,8.334l-8.929,22.024
				C226.43,422.874,224.05,424.658,221.669,424.658z"/>
		</g>
		<g>
			<path fill="#2C3E50" d="M241.312,377.038c-0.597,0-1.786,0-2.383-0.597c-2.979-1.188-4.762-4.765-3.57-8.334l23.812-57.743
				c1.188-2.979,4.763-4.762,8.334-3.571c2.977,1.19,4.763,4.765,3.568,8.334l-23.812,57.744
				C246.074,375.252,243.693,377.038,241.312,377.038z"/>
		</g>
		<g>
			<path fill="#2C3E50" d="M306.198,412.754c-0.596,0-1.784,0-2.382-0.597c-2.978-1.188-4.764-4.764-3.569-8.334l13.689-32.739
				c1.189-2.978,4.763-4.765,8.333-3.572c2.979,1.191,4.764,4.765,3.571,8.335l-13.689,32.741
				C310.961,411.562,308.579,412.754,306.198,412.754z"/>
		</g>
		<g>
			<path fill="#2C3E50" d="M330.01,356.203c-0.596,0-1.786,0-2.381-0.598c-2.979-1.188-4.765-4.763-3.572-8.334l15.479-36.907
				c1.188-2.978,4.764-4.762,8.336-3.571c2.977,1.19,4.762,4.765,3.568,8.334l-15.479,36.906
				C334.77,354.417,332.39,356.203,330.01,356.203z"/>
		</g>
		<g>
			<path fill="#2C3E50" d="M155.593,391.324c-0.596,0-1.786,0-2.381-0.596c-2.979-1.188-4.766-4.765-3.572-8.334l14.287-34.525
				c1.188-2.977,4.763-4.764,8.334-3.571c2.978,1.188,4.763,4.765,3.571,8.334l-14.286,34.526
				C160.353,390.132,157.973,391.324,155.593,391.324z"/>
		</g>
		<g>
			<path fill="#2C3E50" d="M180.594,330.605c-0.596,0-1.785,0-2.382-0.596c-2.979-1.189-4.765-4.764-3.57-8.334l4.763-11.312
				c1.189-2.978,4.765-4.762,8.334-3.57c2.979,1.189,4.765,4.762,3.571,8.334l-4.764,11.312
				C185.355,328.82,182.974,330.605,180.594,330.605z"/>
		</g>
		<g>
			<path fill="#2C3E50" d="M358.583,290.72H179.999c-29.767,0-53.575-23.812-53.575-53.574c0-29.765,23.812-53.574,53.575-53.574
				c1.188,0,1.783,0,2.978,0c8.93-39.885,44.646-69.647,86.314-69.647c41.67,0,77.387,29.168,86.312,69.647c1.189,0,2.382,0,2.979,0
				c29.764,0,53.575,23.812,53.575,53.574C412.16,266.911,388.346,290.72,358.583,290.72z M179.999,196.072
				c-22.62,0-41.074,18.455-41.074,41.075c0,22.621,18.454,41.073,41.074,41.073h178.584c22.621,0,41.074-18.452,41.074-41.073
				c0-22.62-18.453-41.075-41.074-41.075c-2.383,0-4.764,0-7.146,0.596c-1.784,0-3.57,0-4.763-1.189
				c-1.189-1.19-2.382-2.382-2.382-4.167c-5.356-36.906-37.502-64.886-75.005-64.886s-69.646,27.979-75.008,64.886
				c0,1.785-1.188,2.977-2.381,4.167c-1.188,1.19-2.978,1.19-4.764,1.19C184.166,196.072,182.38,196.072,179.999,196.072z"/>
		</g>
	</g>
</g>
</svg>
