<?xml version="1.0" encoding="utf-8"?>
<!-- Generator: Adobe Illustrator 16.0.0, SVG Export Plug-In . SVG Version: 6.00 Build 0)  -->
<!DOCTYPE svg PUBLIC "-//W3C//DTD SVG 1.1//EN" "http://www.w3.org/Graphics/SVG/1.1/DTD/svg11.dtd">
<svg version="1.1" id="Layer_1" xmlns="http://www.w3.org/2000/svg" xmlns:xlink="http://www.w3.org/1999/xlink" x="0px" y="0px"
	 width="538.583px" height="425.197px" viewBox="-56.693 0 538.583 425.197" enable-background="new -56.693 0 538.583 425.197"
	 xml:space="preserve">
<g>
	<g>
		<path d="M278.675,342.966c-0.597,0-1.786,0-2.381-0.597c-2.978-1.19-4.764-4.762-3.572-8.334l13.69-32.74
			c1.19-2.977,4.764-4.762,8.334-3.571c2.978,1.19,4.764,4.762,3.572,8.334l-14.287,32.74
			C283.436,341.179,281.055,342.966,278.675,342.966z"/>
	</g>
	<g>
		<path d="M301.89,285.817c-0.596,0-1.786,0-2.381-0.594c-2.978-1.191-4.764-4.765-3.572-8.334l15.478-36.908
			c1.19-2.978,4.764-4.762,8.335-3.571c2.977,1.19,4.763,4.763,3.57,8.333l-15.477,37.504
			C306.653,284.628,304.271,285.817,301.89,285.817z"/>
	</g>
	<g>
		<path d="M94.733,325.106c-0.596,0-1.786,0-2.381-0.596c-2.978-1.189-4.764-4.763-3.572-8.334l14.287-34.525
			c1.189-2.977,4.762-4.762,8.334-3.572c2.977,1.191,4.762,4.765,3.571,8.334l-14.286,34.527
			C99.495,323.917,97.114,325.106,94.733,325.106z"/>
	</g>
	<g>
		<path d="M119.735,264.388c-0.596,0-1.786,0-2.381-0.596c-2.978-1.189-4.764-4.763-3.572-8.334l4.763-11.311
			c1.19-2.977,4.763-4.763,8.334-3.571c2.977,1.19,4.763,4.762,3.571,8.334l-4.763,11.312
			C124.496,263.198,122.711,264.388,119.735,264.388z"/>
	</g>
	<g>
		<path d="M301.89,219.742H123.306c-29.765,0-53.575-23.812-53.575-53.574c0-29.765,23.812-53.576,53.575-53.576
			c1.189,0,1.785,0,2.977,0c8.93-40.479,44.646-69.647,86.315-69.647c41.67,0,77.387,29.169,86.314,69.647c1.19,0,2.382,0,2.978,0
			c29.764,0,53.575,23.812,53.575,53.576C355.466,195.931,331.654,219.742,301.89,219.742z M123.306,124.497
			c-22.62,0-41.074,18.454-41.074,41.075s18.454,41.074,41.074,41.074H301.89c22.621,0,41.074-18.454,41.074-41.074
			c0-22.621-18.453-41.075-41.074-41.075c-2.381,0-4.762,0-7.145,0.595c-1.784,0-3.57,0-4.762-1.189
			c-1.19-1.189-2.382-2.381-2.382-4.167c-5.357-36.907-37.502-64.885-75.005-64.885c-37.502,0-69.647,27.978-75.006,64.885
			c0,1.786-1.189,2.978-2.381,4.167c-1.19,1.189-2.977,1.189-4.763,1.189C127.473,125.092,125.687,124.497,123.306,124.497z"/>
	</g>
	<g>
		<path d="M191.168,382.253c-0.596,0-1.786,0-2.381-0.594c-2.382-1.19-4.167-3.572-3.572-6.549l8.334-74.41l-28.572-11.906
			c-1.786-0.594-3.571-2.381-3.571-4.762l-7.144-45.836c-0.597-3.572,1.784-6.549,5.356-7.145c3.571-0.596,6.548,1.786,7.145,5.357
			l6.548,42.266l29.764,12.5c2.381,1.19,4.167,3.571,3.572,6.549l-6.549,56.551l49.408-65.48l-27.979-26.19
			c-1.785-1.786-2.381-4.168-1.785-5.953l5.357-20.835c0.595-3.571,4.167-5.357,7.738-4.167c3.571,0.596,5.356,4.167,4.167,7.738
			l-4.763,17.264l29.169,27.979c2.381,2.382,2.381,5.953,0.596,8.335l-66.076,86.909
			C194.739,381.659,192.954,382.253,191.168,382.253z"/>
	</g>
</g>
</svg>
