<?xml version="1.0" encoding="utf-8"?>
<!-- Generator: Adobe Illustrator 16.0.0, SVG Export Plug-In . SVG Version: 6.00 Build 0)  -->
<!DOCTYPE svg PUBLIC "-//W3C//DTD SVG 1.1//EN" "http://www.w3.org/Graphics/SVG/1.1/DTD/svg11.dtd">
<svg version="1.1" id="Layer_1" xmlns="http://www.w3.org/2000/svg" xmlns:xlink="http://www.w3.org/1999/xlink" x="0px" y="0px"
	 width="538.582px" height="538.583px" viewBox="0 -56.693 538.582 538.583" enable-background="new 0 -56.693 538.582 538.583"
	 xml:space="preserve">
<g>
	<g>
		<path d="M164.976,367.966c-0.597,0-1.786,0-2.381-0.596c-2.978-1.189-4.764-4.762-3.572-8.334l8.931-22.023
			c1.189-2.978,4.762-4.764,8.334-3.572c2.977,1.189,4.762,4.764,3.57,8.334l-8.929,22.025
			C169.738,366.181,167.357,367.966,164.976,367.966z"/>
	</g>
	<g>
		<path d="M184.62,320.345c-0.597,0-1.786,0-2.383-0.597c-2.977-1.188-4.762-4.763-3.57-8.334l23.812-57.742
			c1.189-2.978,4.763-4.762,8.334-3.571c2.977,1.19,4.763,4.764,3.57,8.334l-23.812,57.744
			C189.382,318.56,187.001,320.345,184.62,320.345z"/>
	</g>
	<g>
		<path d="M249.506,356.062c-0.596,0-1.786,0-2.382-0.596c-2.978-1.189-4.764-4.764-3.571-8.334l13.691-32.74
			c1.189-2.978,4.763-4.764,8.333-3.572c2.978,1.191,4.764,4.764,3.571,8.335l-13.689,32.741
			C254.268,354.87,251.886,356.062,249.506,356.062z"/>
	</g>
	<g>
		<path d="M273.317,299.51c-0.596,0-1.786,0-2.381-0.597c-2.977-1.189-4.763-4.762-3.572-8.334l15.479-36.907
			c1.188-2.977,4.762-4.762,8.334-3.571c2.977,1.19,4.762,4.764,3.57,8.334l-15.479,36.907
			C278.078,297.724,275.698,299.51,273.317,299.51z"/>
	</g>
	<g>
		<path d="M98.9,334.632c-0.596,0-1.786,0-2.381-0.596c-2.978-1.189-4.764-4.764-3.572-8.334l14.287-34.525
			c1.189-2.978,4.763-4.764,8.334-3.572c2.978,1.189,4.763,4.764,3.571,8.334l-14.286,34.526
			C103.661,333.44,101.281,334.632,98.9,334.632z"/>
	</g>
	<g>
		<path d="M123.902,273.912c-0.596,0-1.785,0-2.382-0.595c-2.977-1.19-4.763-4.764-3.57-8.334l4.763-11.312
			c1.189-2.977,4.763-4.762,8.334-3.57c2.977,1.189,4.763,4.762,3.571,8.334l-4.764,11.311
			C128.663,272.127,126.282,273.912,123.902,273.912z"/>
	</g>
	<g>
		<path d="M301.89,234.028H123.306c-29.765,0-53.575-23.812-53.575-53.575c0-29.764,23.812-53.574,53.575-53.574
			c1.189,0,1.785,0,2.978,0c8.93-39.885,44.646-69.647,86.314-69.647c41.67,0,77.387,29.168,86.314,69.647c1.189,0,2.382,0,2.978,0
			c29.764,0,53.575,23.812,53.575,53.574C355.466,210.218,331.654,234.028,301.89,234.028z M123.306,139.379
			c-22.62,0-41.074,18.455-41.074,41.075c0,22.621,18.454,41.074,41.074,41.074H301.89c22.621,0,41.074-18.453,41.074-41.074
			c0-22.62-18.453-41.075-41.074-41.075c-2.381,0-4.762,0-7.145,0.596c-1.784,0-3.57,0-4.763-1.19
			c-1.189-1.19-2.382-2.381-2.382-4.167c-5.356-36.906-37.502-64.885-75.005-64.885c-37.502,0-69.646,27.979-75.006,64.885
			c0,1.786-1.189,2.977-2.381,4.167c-1.19,1.191-2.978,1.191-4.764,1.191C127.473,139.379,125.687,139.379,123.306,139.379z"/>
	</g>
</g>
</svg>
