<?xml version="1.0" encoding="utf-8"?>
<!-- Generator: Adobe Illustrator 16.0.0, SVG Export Plug-In . SVG Version: 6.00 Build 0)  -->
<!DOCTYPE svg PUBLIC "-//W3C//DTD SVG 1.1//EN" "http://www.w3.org/Graphics/SVG/1.1/DTD/svg11.dtd">
<svg version="1.1" id="Layer_1" xmlns="http://www.w3.org/2000/svg" xmlns:xlink="http://www.w3.org/1999/xlink" x="0px" y="0px"
	 width="538.582px" height="538.583px" viewBox="0 -56.693 538.582 538.583" enable-background="new 0 -56.693 538.582 538.583"
	 xml:space="preserve">
<g>
	<g>
		<g>
			<path d="M241.313,288.522c-0.597,0-1.786,0-2.382-0.597c-2.979-1.188-4.765-4.763-3.571-8.334l23.812-57.741
				c1.19-2.979,4.766-4.763,8.334-3.571c2.979,1.19,4.766,4.764,3.571,8.334l-23.811,57.743
				C246.074,286.738,243.693,288.522,241.313,288.522z"/>
		</g>
		<g>
			<path d="M330.009,267.688c-0.597,0-1.785,0-2.381-0.598c-2.978-1.189-4.763-4.762-3.572-8.334l15.479-36.906
				c1.189-2.978,4.763-4.763,8.334-3.571c2.976,1.189,4.763,4.764,3.57,8.334l-16.072,36.907
				C334.772,265.901,332.391,267.688,330.009,267.688z"/>
		</g>
		<g>
			<path d="M155.592,302.812c-0.597,0-1.785,0-2.383-0.597c-2.976-1.188-4.762-4.764-3.569-8.334l14.286-34.524
				c1.189-2.979,4.763-4.765,8.334-3.572c2.978,1.189,4.763,4.764,3.57,8.334l-14.287,34.525
				C160.354,301.619,157.973,302.812,155.592,302.812z"/>
		</g>
		<g>
			<path d="M180.594,242.091c-0.598,0-1.786,0-2.384-0.595c-2.977-1.19-4.762-4.765-3.569-8.334l4.763-11.312
				c1.19-2.978,4.763-4.763,8.334-3.57c2.978,1.188,4.763,4.762,3.571,8.334l-4.765,11.311
				C185.356,240.306,182.975,242.091,180.594,242.091z"/>
		</g>
		<g>
			<path d="M358.582,202.207H179.998c-29.764,0-53.574-23.812-53.574-53.575c0-30.359,25.598-55.361,56.553-53.574
				c8.93-39.885,44.646-69.647,86.313-69.647s77.389,29.168,86.315,69.647c1.189,0,2.381,0,2.977,0
				c29.765,0,53.576,23.812,53.576,53.574C412.158,178.396,388.346,202.207,358.582,202.207z M179.998,107.558
				c-22.621,0-41.073,18.455-41.073,41.075c0,22.621,18.452,41.074,41.073,41.074h178.584c22.621,0,41.074-18.453,41.074-41.074
				c0-22.62-18.453-41.075-41.074-41.075c-2.381,0-4.762,0-7.143,0.596c-1.787,0-3.572,0-4.764-1.189
				c-1.189-1.19-2.384-2.382-2.384-4.167c-5.354-36.906-37.502-64.886-75.005-64.886s-69.646,27.979-75.005,64.886
				c0,1.785-1.19,2.977-2.382,4.167c-1.19,1.19-2.979,1.19-4.763,1.19C184.165,107.558,181.784,107.558,179.998,107.558z"/>
		</g>
	</g>
	<path d="M327.086,324.783h-22.622l16.072-16.072c2.383-2.381,2.383-6.549,0-8.93c-2.382-2.382-6.549-2.382-8.931,0l-16.071,16.073
		v-22.621c0-3.571-2.978-5.952-5.953-5.952c-2.977,0-5.951,2.978-5.951,5.952v22.621l-16.072-16.073
		c-2.382-2.382-6.55-2.382-8.931,0c-2.382,2.381-2.382,6.549,0,8.93l16.072,16.072h-22.62c-3.572,0-5.953,2.978-5.953,5.952
		c0,2.978,2.979,5.953,5.953,5.953h22.62l-16.072,16.071c-2.382,2.382-2.382,6.55,0,8.931c1.19,1.188,2.979,1.785,4.168,1.785
		s2.978-0.598,4.167-1.785l16.071-16.071v22.618c0,3.572,2.979,5.953,5.953,5.953c2.977,0,5.951-2.979,5.951-5.953v-22.618
		l16.073,16.071c1.188,1.188,2.977,1.785,4.167,1.785c1.188,0,2.977-0.598,4.167-1.785c2.381-2.381,2.381-6.549,0-8.931
		l-14.287-15.478h22.621c3.569,0,5.952-2.979,5.952-5.953C333.633,328.354,330.656,324.783,327.086,324.783z"/>
	<path d="M207.433,349.785h-22.619l16.069-16.072c2.383-2.381,2.383-6.549,0-8.93c-2.381-2.382-6.548-2.382-8.93,0l-16.072,16.071
		v-22.619c0-3.571-2.977-5.952-5.95-5.952c-2.979,0-5.952,2.978-5.952,5.952v22.619l-16.072-15.479c-2.382-2.381-6.549-2.381-8.93,0
		c-2.382,2.382-2.382,6.55,0,8.932l16.069,16.07h-22.618c-3.571,0-5.952,2.979-5.952,5.953c0,2.977,2.977,5.953,5.952,5.953h22.618
		l-16.069,16.07c-2.382,2.383-2.382,6.549,0,8.93c1.188,1.189,2.977,1.787,4.167,1.787c1.188,0,2.977-0.598,4.167-1.787
		l16.069-16.072v22.621c0,3.572,2.979,5.953,5.953,5.953c2.979,0,5.953-2.979,5.953-5.953v-22.621l16.072,16.072
		c1.188,1.189,2.977,1.787,4.167,1.787c1.188,0,2.977-0.598,4.167-1.787c2.381-2.381,2.381-6.547,0-8.93l-16.072-16.07h23.812
		c3.57,0,5.951-2.979,5.951-5.953C213.386,353.356,211.005,349.785,207.433,349.785z"/>
</g>
</svg>
