<?xml version="1.0" encoding="utf-8"?>
<!-- Generator: Adobe Illustrator 16.0.0, SVG Export Plug-In . SVG Version: 6.00 Build 0)  -->
<!DOCTYPE svg PUBLIC "-//W3C//DTD SVG 1.1//EN" "http://www.w3.org/Graphics/SVG/1.1/DTD/svg11.dtd">
<svg version="1.1" id="Layer_1" xmlns="http://www.w3.org/2000/svg" xmlns:xlink="http://www.w3.org/1999/xlink" x="0px" y="0px"
	 width="538.582px" height="538.583px" viewBox="0 0 538.582 538.583" enable-background="new 0 0 538.582 538.583"
	 xml:space="preserve">
<g>
	<path fill="#ECF0F1" d="M175.49,162.201c-23.887,0-43.372,19.55-43.372,43.51c0,23.963,19.485,43.51,43.372,43.51h188.576
		c23.886,0,43.372-19.547,43.372-43.51c0-23.96-19.486-43.51-43.372-43.51c-2.514,0-5.029,0-7.543,0.631
		c-1.886,0-3.771,0-5.031-1.26c-1.256-1.261-2.516-2.522-2.516-4.414c-5.654-39.095-39.602-68.732-79.201-68.732
		c-39.604,0-73.543,29.638-79.202,68.732c0,1.892-1.257,3.153-2.516,4.414c-1.256,1.262-3.146,1.262-5.03,1.262
		C179.89,162.201,177.376,162.201,175.49,162.201z"/>
	<g>
		<g>
			<g>
				<path fill="#2C3E50" d="M241.313,345.215c-0.599,0-1.786,0-2.382-0.598c-2.979-1.189-4.767-4.762-3.571-8.334l23.812-57.74
					c1.19-2.979,4.768-4.764,8.334-3.571c2.979,1.189,4.768,4.764,3.571,8.334l-23.811,57.743
					C246.074,343.432,243.693,345.215,241.313,345.215z"/>
			</g>
			<g>
				<path fill="#2C3E50" d="M330.01,324.381c-0.599,0-1.785,0-2.381-0.599c-2.979-1.188-4.765-4.762-3.572-8.334l15.479-36.905
					c1.189-2.979,4.765-4.764,8.334-3.572c2.978,1.189,4.765,4.765,3.57,8.334l-16.072,36.908
					C334.772,322.594,332.391,324.381,330.01,324.381z"/>
			</g>
			<g>
				<path fill="#2C3E50" d="M155.592,359.504c-0.597,0-1.783,0-2.383-0.596c-2.976-1.189-4.762-4.764-3.567-8.334l14.284-34.525
					c1.189-2.979,4.765-4.765,8.335-3.571c2.979,1.188,4.764,4.764,3.569,8.334l-14.287,34.524
					C160.354,358.313,157.973,359.504,155.592,359.504z"/>
			</g>
			<g>
				<path fill="#2C3E50" d="M180.594,298.784c-0.6,0-1.786,0-2.386-0.595c-2.977-1.19-4.762-4.765-3.567-8.334l4.763-11.312
					c1.19-2.979,4.763-4.764,8.334-3.57c2.978,1.188,4.763,4.762,3.571,8.334l-4.767,11.311
					C185.356,296.999,182.975,298.784,180.594,298.784z"/>
			</g>
			<g>
				<path fill="#2C3E50" d="M358.582,258.9H179.998c-29.764,0-53.574-23.812-53.574-53.575c0-30.359,25.6-55.361,56.555-53.574
					c8.93-39.885,44.646-69.647,86.312-69.647s77.391,29.168,86.315,69.647c1.189,0,2.381,0,2.977,0
					c29.767,0,53.576,23.812,53.576,53.574C412.158,235.089,388.346,258.9,358.582,258.9z M179.998,164.251
					c-22.621,0-41.073,18.455-41.073,41.075c0,22.621,18.452,41.074,41.073,41.074h178.584c22.621,0,41.074-18.453,41.074-41.074
					c0-22.62-18.453-41.075-41.074-41.075c-2.381,0-4.762,0-7.143,0.596c-1.787,0-3.572,0-4.764-1.189
					c-1.189-1.19-2.386-2.382-2.386-4.167c-5.354-36.906-37.502-64.886-75.005-64.886s-69.646,27.979-75.005,64.886
					c0,1.785-1.19,2.977-2.382,4.167c-1.19,1.19-2.979,1.19-4.765,1.19C184.165,164.251,181.784,164.251,179.998,164.251z"/>
			</g>
		</g>
		<path fill="#2C3E50" d="M327.088,381.477h-22.624l16.072-16.072c2.385-2.381,2.385-6.549,0-8.93c-2.382-2.383-6.549-2.383-8.931,0
			l-16.071,16.072v-22.621c0-3.57-2.978-5.951-5.953-5.951c-2.977,0-5.951,2.977-5.951,5.951v22.621l-16.07-16.072
			c-2.382-2.383-6.552-2.383-8.933,0c-2.382,2.381-2.382,6.549,0,8.93l16.072,16.072h-22.62c-3.572,0-5.953,2.977-5.953,5.951
			c0,2.979,2.979,5.953,5.953,5.953h22.62l-16.072,16.07c-2.382,2.383-2.382,6.551,0,8.932c1.19,1.188,2.979,1.785,4.168,1.785
			c1.189,0,2.979-0.598,4.167-1.785l16.071-16.07v22.617c0,3.572,2.979,5.953,5.953,5.953c2.977,0,5.951-2.979,5.951-5.953v-22.617
			l16.073,16.07c1.188,1.188,2.977,1.785,4.167,1.785c1.188,0,2.977-0.598,4.167-1.785c2.381-2.381,2.381-6.549,0-8.932
			l-14.287-15.479h22.621c3.567,0,5.952-2.979,5.952-5.951C333.635,385.047,330.656,381.477,327.088,381.477z"/>
		<path fill="#2C3E50" d="M207.433,406.479h-22.619l16.067-16.072c2.385-2.381,2.385-6.549,0-8.93c-2.381-2.383-6.548-2.383-8.93,0
			l-16.072,16.07v-22.619c0-3.57-2.977-5.951-5.948-5.951c-2.979,0-5.952,2.979-5.952,5.951v22.619l-16.072-15.479
			c-2.382-2.381-6.549-2.381-8.93,0c-2.382,2.381-2.382,6.549,0,8.932l16.067,16.07h-22.616c-3.571,0-5.952,2.979-5.952,5.953
			c0,2.977,2.977,5.953,5.952,5.953h22.616l-16.067,16.068c-2.382,2.383-2.382,6.549,0,8.932c1.188,1.188,2.977,1.785,4.167,1.785
			c1.188,0,2.977-0.598,4.167-1.785l16.067-16.072v22.621c0,3.572,2.979,5.953,5.953,5.953c2.979,0,5.953-2.98,5.953-5.953v-22.621
			l16.072,16.072c1.188,1.188,2.977,1.785,4.167,1.785c1.188,0,2.977-0.598,4.167-1.785c2.381-2.383,2.381-6.549,0-8.932
			l-16.072-16.068h23.812c3.568,0,5.949-2.98,5.949-5.953C213.386,410.049,211.005,406.479,207.433,406.479z"/>
	</g>
</g>
</svg>
