<?xml version="1.0" encoding="utf-8"?>
<!-- Generator: Adobe Illustrator 16.0.0, SVG Export Plug-In . SVG Version: 6.00 Build 0)  -->
<!DOCTYPE svg PUBLIC "-//W3C//DTD SVG 1.1//EN" "http://www.w3.org/Graphics/SVG/1.1/DTD/svg11.dtd">
<svg version="1.1" id="Layer_1" xmlns="http://www.w3.org/2000/svg" xmlns:xlink="http://www.w3.org/1999/xlink" x="0px" y="0px"
	 width="538.582px" height="538.583px" viewBox="0 0 538.582 538.583" enable-background="new 0 0 538.582 538.583"
	 xml:space="preserve">
<g>
	<path fill="#ECF0F1" d="M175.183,179.201c-23.888,0-43.372,19.55-43.372,43.51c0,23.963,19.484,43.51,43.372,43.51H363.76
		c23.885,0,43.371-19.547,43.371-43.51c0-23.96-19.486-43.51-43.371-43.51c-2.515,0-5.029,0-7.543,0.631
		c-1.888,0-3.771,0-5.031-1.26c-1.256-1.261-2.516-2.522-2.516-4.414c-5.654-39.095-39.604-68.732-79.202-68.732
		c-39.604,0-73.544,29.639-79.202,68.732c0,1.892-1.258,3.153-2.517,4.414c-1.256,1.262-3.146,1.262-5.029,1.262
		C179.583,179.201,177.069,179.201,175.183,179.201z"/>
	<g>
		<path fill="#F2E085" d="M218.11,287.696c-3.439,0.588-5.735,3.529-5.157,7.054l6.882,45.244c0,2.351,1.72,4.112,3.439,4.701
			l27.525,11.753l-8.029,73.448c-0.573,2.937,1.145,5.285,3.441,6.462c0.572,0.588,1.718,0.588,2.294,0.588
			c2.294,0,4.014-0.588,5.157-2.347l63.079-86.378c1.721-2.35,1.721-5.873-0.573-8.226l-28.101-27.619l4.59-17.041
			c1.145-3.522-0.576-7.05-4.016-7.638L218.11,287.696z"/>
		<g>
			<path fill="#2C3E50" d="M335.367,399.659c-0.596,0-1.782,0-2.381-0.598c-2.979-1.189-4.764-4.766-3.567-8.333l13.688-32.74
				c1.189-2.979,4.764-4.762,8.334-3.571c2.979,1.19,4.764,4.762,3.57,8.334l-14.287,32.74
				C340.13,397.872,337.748,399.659,335.367,399.659z"/>
		</g>
		<g>
			<path fill="#2C3E50" d="M358.585,342.508c-0.601,0-1.787,0-2.386-0.594c-2.979-1.19-4.764-4.766-3.567-8.334l15.477-36.908
				c1.191-2.979,4.769-4.762,8.34-3.569c2.978,1.188,4.763,4.763,3.566,8.333l-15.478,37.503
				C363.345,341.32,360.966,342.508,358.585,342.508z"/>
		</g>
		<g>
			<path fill="#2C3E50" d="M151.426,381.797c-0.596,0-1.785,0-2.381-0.598c-2.979-1.188-4.767-4.762-3.571-8.334l14.286-34.523
				c1.188-2.979,4.764-4.762,8.335-3.571c2.978,1.19,4.763,4.767,3.57,8.334l-14.286,34.526
				C156.188,380.609,153.807,381.797,151.426,381.797z"/>
		</g>
		<g>
			<path fill="#2C3E50" d="M176.428,321.081c-0.597,0-1.785,0-2.382-0.596c-2.979-1.189-4.767-4.766-3.57-8.334l4.763-11.312
				c1.189-2.978,4.766-4.764,8.334-3.569c2.979,1.188,4.766,4.763,3.571,8.334l-4.765,11.312
				C181.189,319.891,179.404,321.081,176.428,321.081z"/>
		</g>
		<g>
			<path fill="#2C3E50" d="M358.585,276.435H179.999c-29.768,0-53.575-23.812-53.575-53.574c0-29.766,23.812-53.576,53.575-53.576
				c1.188,0,1.782,0,2.979,0c8.93-40.479,44.646-69.647,86.313-69.647c41.67,0,77.387,29.17,86.312,69.647c1.188,0,2.381,0,2.979,0
				c29.765,0,53.576,23.812,53.576,53.576C412.162,252.624,388.347,276.435,358.585,276.435z M179.999,181.19
				c-22.62,0-41.074,18.454-41.074,41.075c0,22.62,18.454,41.073,41.074,41.073h178.584c22.621,0,41.074-18.454,41.074-41.073
				c0-22.621-18.453-41.075-41.074-41.075c-2.385,0-4.766,0-7.146,0.595c-1.785,0-3.57,0-4.764-1.189
				c-1.189-1.188-2.382-2.381-2.382-4.167c-5.356-36.906-37.502-64.885-75.005-64.885c-37.504,0-69.646,27.979-75.009,64.885
				c0,1.786-1.188,2.979-2.381,4.167c-1.188,1.189-2.979,1.189-4.765,1.189C184.166,181.785,182.38,181.19,179.999,181.19z"/>
		</g>
		<g>
			<path fill="#2C3E50" d="M247.861,438.946c-0.597,0-1.786,0-2.381-0.596c-2.383-1.188-4.167-3.57-3.572-6.551l8.334-74.407
				l-28.569-11.906c-1.785-0.594-3.57-2.381-3.57-4.762l-7.145-45.839c-0.6-3.57,1.781-6.549,5.354-7.145
				c3.569-0.597,6.548,1.785,7.146,5.356l6.548,42.263l29.766,12.5c2.381,1.189,4.167,3.572,3.57,6.553l-6.549,56.551l49.405-65.479
				l-27.979-26.188c-1.783-1.787-2.382-4.168-1.783-5.953l5.354-20.836c0.597-3.569,4.168-5.355,7.736-4.166
				c3.57,0.597,5.354,4.166,4.166,7.736l-4.762,17.266l29.168,27.979c2.381,2.381,2.381,5.953,0.596,8.334l-66.073,86.91
				C251.432,438.35,249.647,438.946,247.861,438.946z"/>
		</g>
	</g>
</g>
</svg>
