<?xml version="1.0" encoding="utf-8"?>
<!-- Generator: Adobe Illustrator 16.0.0, SVG Export Plug-In . SVG Version: 6.00 Build 0)  -->
<!DOCTYPE svg PUBLIC "-//W3C//DTD SVG 1.1//EN" "http://www.w3.org/Graphics/SVG/1.1/DTD/svg11.dtd">
<svg version="1.1" id="Layer_1" xmlns="http://www.w3.org/2000/svg" xmlns:xlink="http://www.w3.org/1999/xlink" x="0px" y="0px"
	 width="538.582px" height="538.583px" viewBox="0 0 538.582 538.583" enable-background="new 0 0 538.582 538.583"
	 xml:space="preserve">
<g>
	<g>
		<path fill="#F3E59A" d="M315.822,282.108c-10.741,0-21.481-2.389-31.627-7.164c-38.784-17.306-56.092-63.254-38.192-102.04
			c12.531-27.45,39.983-45.349,70.412-45.349c10.743,0,21.486,2.387,31.628,7.162c38.785,17.305,56.093,63.255,38.194,102.039
			C373.707,264.207,346.256,282.108,315.822,282.108z"/>
	</g>
	<g>
		<g>
			<path fill="#2C3E50" d="M371.733,253.703c-1.188,0-2.382-0.596-3.571-1.19c-2.978-1.784-2.978-5.95-1.188-8.929
				c2.978-4.167,5.354-8.334,7.738-12.501c7.144-15.479,7.734-33.335,1.782-49.408c-5.949-16.072-17.854-29.168-33.931-35.717
				c-24.407-11.312-53.576-5.357-72.625,13.691c-2.382,2.381-6.549,2.381-8.93,0s-2.381-6.549,0-8.93
				c22.62-23.216,57.146-29.764,86.911-16.072c18.452,8.334,32.736,23.812,40.479,42.861c7.146,19.048,6.548,39.883-1.786,58.934
				c-2.381,5.354-5.354,10.715-8.93,14.881C375.304,252.513,373.518,253.703,371.733,253.703z"/>
		</g>
	</g>
</g>
<g>
	<path fill="#ECF0F1" d="M130.593,245.076c-24.492,0-44.474,20.046-44.474,44.617c0,24.572,19.98,44.615,44.474,44.615h193.373
		c24.491,0,44.475-20.042,44.475-44.615c0-24.569-19.98-44.617-44.475-44.617c-2.578,0-5.157,0-7.735,0.647
		c-1.934,0-3.866,0-5.159-1.292c-1.287-1.293-2.579-2.587-2.579-4.526c-5.798-40.089-40.606-70.48-81.215-70.48
		s-75.414,30.391-81.215,70.48c0,1.938-1.289,3.233-2.58,4.526c-1.289,1.293-3.227,1.293-5.158,1.293
		C135.105,245.076,132.527,245.076,130.593,245.076z"/>
	<g>
		<g>
			<path fill="#2C3E50" d="M176.837,475.743c-0.596,0-1.786,0-2.381-0.596c-2.977-1.189-4.763-4.764-3.572-8.334l8.935-22.025
				c1.188-2.979,4.762-4.762,8.334-3.57c2.976,1.189,4.762,4.764,3.57,8.334l-8.934,22.023
				C181.599,474.549,179.218,475.743,176.837,475.743z"/>
		</g>
		<g>
			<path fill="#2C3E50" d="M196.483,428.12c-0.597,0-1.786,0-2.383-0.596c-2.979-1.189-4.766-4.766-3.57-8.334l23.812-57.743
				c1.19-2.978,4.767-4.762,8.333-3.569c2.979,1.188,4.768,4.763,3.572,8.334l-23.812,57.742
				C201.244,426.926,198.864,428.12,196.483,428.12z"/>
		</g>
		<g>
			<path fill="#2C3E50" d="M261.367,464.43c-0.595,0-1.785,0-2.381-0.598c-2.979-1.188-4.764-4.762-3.571-8.334l13.691-32.738
				c1.188-2.979,4.761-4.762,8.333-3.568c2.976,1.188,4.762,4.764,3.566,8.334l-13.688,32.738
				C266.129,463.243,263.748,464.43,261.367,464.43z"/>
		</g>
		<g>
			<path fill="#2C3E50" d="M285.178,407.284c-0.6,0-1.786,0-2.386-0.594c-2.976-1.189-4.762-4.766-3.567-8.334l15.479-36.909
				c1.189-2.978,4.762-4.762,8.334-3.569c2.979,1.188,4.766,4.763,3.57,8.334l-15.479,36.906
				C289.939,406.092,287.558,407.284,285.178,407.284z"/>
		</g>
		<g>
			<path fill="#2C3E50" d="M110.761,443.002c-0.6,0-1.786,0-2.385-0.598c-2.977-1.188-4.763-4.764-3.568-8.334l14.287-34.523
				c1.188-2.979,4.763-4.766,8.334-3.571c2.978,1.19,4.763,4.763,3.567,8.335l-14.286,34.523
				C115.524,441.213,113.143,443.002,110.761,443.002z"/>
		</g>
		<g>
			<path fill="#2C3E50" d="M135.763,381.687c-0.6,0-1.785,0-2.386-0.597c-2.976-1.188-4.762-4.762-3.566-8.334l4.763-11.312
				c1.189-2.978,4.762-4.762,8.333-3.569c2.977,1.188,4.763,4.765,3.572,8.334l-4.768,11.312
				C140.526,380.499,138.74,381.687,135.763,381.687z"/>
		</g>
		<g>
			<path fill="#2C3E50" d="M313.755,342.4H135.167c-29.764,0-53.575-23.812-53.575-53.575c0-29.763,23.812-53.575,53.575-53.575
				c1.19,0,1.786,0,2.979,0c8.929-39.883,44.646-69.647,86.312-69.647s77.39,29.169,86.314,69.647c1.19,0,2.382,0,2.979,0
				c29.764,0,53.571,23.812,53.571,53.575C367.326,318.588,343.515,342.4,313.755,342.4z M135.167,247.154
				c-22.62,0-41.074,18.454-41.074,41.075s18.454,41.072,41.074,41.072h178.587c22.616,0,41.07-18.451,41.07-41.072
				s-18.453-41.075-41.07-41.075c-2.385,0-4.767,0-7.146,0.596c-1.785,0-3.57,0-4.762-1.19c-1.192-1.19-2.386-2.381-2.386-4.167
				c-5.354-36.907-37.501-64.886-75.004-64.886s-69.646,27.979-75.005,64.886c0,1.786-1.188,2.977-2.382,4.167
				c-1.19,1.19-2.979,1.19-4.762,1.19C139.93,247.75,137.548,247.154,135.167,247.154z"/>
		</g>
		<g>
			<path fill="#2C3E50" d="M448.284,270.963c-0.596,0-1.786,0-2.382-0.596l-35.121-16.072c-2.977-1.19-4.763-5.357-2.977-8.333
				c1.188-2.978,5.354-4.763,8.333-2.978l35.122,16.072c2.977,1.191,4.762,5.358,2.977,8.334
				C453.051,269.775,450.665,270.963,448.284,270.963z"/>
		</g>
		<g>
			<path fill="#2C3E50" d="M359.592,113.216c-0.6,0-1.786,0-2.386-0.595c-2.977-1.191-4.762-5.358-2.977-8.334l16.072-35.123
				c1.188-2.977,5.354-4.762,8.334-2.977c2.978,1.19,4.762,5.357,2.978,8.334l-16.073,35.123
				C364.35,112.026,361.969,113.216,359.592,113.216z"/>
		</g>
		<g>
			<path fill="#2C3E50" d="M415.548,173.339c-2.385,0-4.767-1.786-5.953-4.167c-1.19-2.977,0.596-6.549,3.568-7.739l35.721-13.69
				c2.976-1.19,6.548,0.596,7.734,3.571c1.189,2.978-0.597,6.548-3.567,7.739l-35.721,13.691
				C417.33,173.339,416.734,173.339,415.548,173.339z"/>
		</g>
		<g>
			<path fill="#2C3E50" d="M278.034,110.836c-2.381,0-4.762-1.786-5.952-4.167L258.39,70.952c-1.189-2.978,0.597-6.549,3.568-7.739
				c2.979-1.19,6.552,0.595,7.738,3.571l13.69,35.718c1.188,2.977-0.6,6.548-3.57,7.739
				C279.225,110.836,278.629,110.836,278.034,110.836z"/>
		</g>
	</g>
</g>
</svg>
