<?xml version="1.0" encoding="utf-8"?>
<!-- Generator: Adobe Illustrator 16.0.0, SVG Export Plug-In . SVG Version: 6.00 Build 0)  -->
<!DOCTYPE svg PUBLIC "-//W3C//DTD SVG 1.1//EN" "http://www.w3.org/Graphics/SVG/1.1/DTD/svg11.dtd">
<svg version="1.1" id="Layer_1" xmlns="http://www.w3.org/2000/svg" xmlns:xlink="http://www.w3.org/1999/xlink" x="0px" y="0px"
	 width="538.582px" height="538.583px" viewBox="0 0 538.582 538.583" enable-background="new 0 0 538.582 538.583"
	 xml:space="preserve">
<g>
	<g>
		<path fill="#F3E59A" d="M373.736,279.649c-39.716,0-75.979-23.326-92.669-60.062c-11.512-25.08-12.666-53.068-3.452-79.311
			c9.208-26.242,28.203-46.652,52.957-58.315c10.361-5.247,21.872-8.164,33.381-9.329c2.306,0,5.18,1.165,5.757,3.498
			c1.148,2.333,0.578,5.248-1.148,7c-27.054,27.41-34.533,68.812-18.418,103.801c14.967,32.074,47.198,53.068,81.73,53.068
			c2.881,0,5.756,0,8.638-0.584c2.305,0,5.178,1.163,5.754,3.497c1.149,2.334,0.579,5.245-1.147,6.999
			c-8.059,8.164-17.844,15.162-28.204,19.828C403.093,276.149,388.701,279.649,373.736,279.649z"/>
	</g>
	<g>
		<path fill="#2C3E50" d="M397.334,276.8c-2.977,0-5.354-1.784-5.951-4.762c-0.597-3.572,1.189-6.55,4.767-7.146
			c6.548-1.188,13.097-3.57,19.049-6.553c4.167-1.783,8.334-4.165,12.501-7.145c-37.503-2.979-70.838-25.598-86.911-59.527
			c-16.071-34.525-11.904-74.408,9.521-104.769c-4.762,1.189-8.929,2.977-13.097,4.762c-26.188,12.501-44.646,35.717-51.193,63.694
			c-0.595,3.57-4.167,5.357-7.143,4.763c-3.572-0.595-5.358-4.167-4.767-7.146c7.146-32.145,27.979-58.335,57.745-72.623
			c10.715-4.762,22.021-8.334,33.931-9.524c2.381,0,5.354,1.19,5.953,3.572c1.188,2.381,0.595,5.356-1.189,7.143
			c-27.979,27.384-35.122,69.055-19.05,104.176c16.667,35.121,53.575,56.549,92.271,52.383c2.383,0,5.354,1.189,5.949,3.57
			c1.189,2.383,0.601,5.355-1.188,7.145c-8.334,8.334-18.454,14.888-29.169,20.24C412.217,272.037,404.482,275.606,397.334,276.8
			C397.102,276.796,397.334,276.8,397.334,276.8z"/>
	</g>
</g>
<g>
	<path fill="#ECF0F1" d="M140.181,243.203c-23.888,0-43.372,19.55-43.372,43.51c0,23.963,19.484,43.51,43.372,43.51h188.576
		c23.886,0,43.372-19.547,43.372-43.51c0-23.96-19.486-43.51-43.372-43.51c-2.515,0-5.029,0-7.543,0.631
		c-1.887,0-3.771,0-5.031-1.26c-1.256-1.261-2.516-2.522-2.516-4.414c-5.654-39.095-39.603-68.732-79.202-68.732
		c-39.603,0-73.543,29.638-79.201,68.732c0,1.892-1.258,3.153-2.517,4.414c-1.256,1.262-3.146,1.262-5.029,1.262
		C144.582,243.203,142.067,243.203,140.181,243.203z"/>
	<g>
		<g>
			<path fill="#2C3E50" d="M321.663,339.834H143.079c-29.767,0-53.575-23.812-53.575-53.574c0-30.358,25.599-55.36,56.553-53.575
				c8.93-39.883,44.646-69.646,86.314-69.646c41.668,0,77.386,29.168,86.313,69.646c30.955-1.785,56.554,23.217,56.554,53.575
				C375.239,316.024,351.427,339.834,321.663,339.834z M143.079,245.186c-22.621,0-41.074,18.454-41.074,41.074
				c0,22.619,18.453,41.074,41.074,41.074h178.583c22.617,0,41.072-18.455,41.072-41.074c0-22.621-18.455-41.074-41.072-41.074
				c-2.383,0-4.767,0-7.146,0.596c-1.785,0-3.569,0-4.763-1.189c-1.191-1.19-2.382-2.382-2.382-4.167
				c-5.355-36.907-37.502-64.887-75.006-64.887s-69.646,27.979-75.006,64.887c0,1.785-1.188,2.977-2.382,4.167
				c-1.785,1.189-2.978,1.189-4.764,1.189C147.842,245.186,145.46,245.186,143.079,245.186z"/>
		</g>
		<path fill="#2C3E50" d="M334.76,392.219h-22.621l16.072-16.072c2.381-2.381,2.381-6.549,0-8.93c-2.382-2.381-6.548-2.381-8.931,0
			l-16.072,16.07V360.67c0-3.572-2.979-5.953-5.951-5.953c-2.979,0-5.952,2.977-5.952,5.953v22.617l-16.071-15.479
			c-2.381-2.382-6.547-2.382-8.93,0c-2.382,2.384-2.382,6.55,0,8.931l16.072,16.072h-22.621c-3.57,0-5.952,2.979-5.952,5.951
			c0,2.979,2.978,5.953,5.952,5.953h22.621l-16.072,16.07c-2.382,2.383-2.382,6.551,0,8.932c1.188,1.188,2.978,1.785,4.167,1.785
			c1.188,0,2.978-0.596,4.168-1.785l16.071-16.07v22.619c0,3.57,2.979,5.951,5.953,5.951c2.976,0,5.951-2.979,5.951-5.951v-22.619
			l16.071,16.07c1.188,1.188,2.979,1.785,4.166,1.785c1.189,0,2.979-0.596,4.168-1.785c2.382-2.381,2.382-6.549,0-8.932
			l-16.071-16.07h23.812c3.571,0,5.953-2.979,5.953-5.953C340.714,395.792,337.735,392.219,334.76,392.219z"/>
		<path fill="#2C3E50" d="M214.512,417.221h-22.621l16.07-16.072c2.381-2.381,2.381-6.549,0-8.93s-6.548-2.381-8.933,0
			l-16.069,16.072V385.67c0-3.57-2.979-5.951-5.953-5.951c-2.979,0-5.95,2.977-5.95,5.951v22.621l-16.073-16.072
			c-2.381-2.381-6.548-2.381-8.93,0s-2.382,6.549,0,8.93l16.071,16.072h-22.62c-3.57,0-5.953,2.977-5.953,5.953
			c0,2.975,2.979,5.953,5.953,5.953h22.62l-16.071,16.068c-2.382,2.383-2.382,6.549,0,8.932c1.188,1.189,2.978,1.785,4.167,1.785
			s2.978-0.596,4.167-1.785l16.071-16.072v22.621c0,3.57,2.979,5.951,5.953,5.951c2.976,0,5.949-2.977,5.949-5.951v-22.621
			l16.073,16.072c1.188,1.189,2.979,1.785,4.167,1.785s2.979-0.596,4.167-1.785c2.381-2.383,2.381-6.549,0-8.932l-16.073-16.068
			h22.621c3.571,0,5.953-2.979,5.953-5.953C219.273,420.198,218.084,417.221,214.512,417.221z"/>
	</g>
</g>
</svg>
