<?xml version="1.0" encoding="utf-8"?>
<!-- Generator: Adobe Illustrator 16.0.0, SVG Export Plug-In . SVG Version: 6.00 Build 0)  -->
<!DOCTYPE svg PUBLIC "-//W3C//DTD SVG 1.1//EN" "http://www.w3.org/Graphics/SVG/1.1/DTD/svg11.dtd">
<svg version="1.1" id="Layer_1" xmlns="http://www.w3.org/2000/svg" xmlns:xlink="http://www.w3.org/1999/xlink" x="0px" y="0px"
	 width="538.582px" height="538.583px" viewBox="0 0 538.582 538.583" enable-background="new 0 0 538.582 538.583"
	 xml:space="preserve">
<g>
	<circle fill="#F3E59A" cx="269.484" cy="268.484" r="69"/>
	<g>
		<g>
			<path fill="#2C3E50" d="M269.886,345.97c-10.714,0-21.429-2.382-31.549-7.146c-38.691-17.264-55.956-63.101-38.101-101.792
				c12.501-27.383,39.887-45.239,70.242-45.239c10.717,0,21.434,2.381,31.551,7.144c38.691,17.263,55.957,63.102,38.101,101.792
				C327.63,328.113,300.246,345.97,269.886,345.97z M269.886,204.89c-25,0-48.217,14.882-58.932,38.098
				c-14.885,32.145,0,70.838,32.146,85.125c8.334,3.572,17.263,5.953,26.785,5.953c25.002,0,48.219-14.881,58.934-38.099
				c14.885-32.145,0-70.837-32.146-85.125C287.746,206.676,278.814,204.89,269.886,204.89z"/>
		</g>
		<g>
			<path fill="#2C3E50" d="M402.634,335.254c-0.595,0-1.785,0-2.381-0.596l-35.121-16.072c-2.979-1.188-4.765-5.355-2.979-8.334
				c1.189-2.979,5.355-4.762,8.336-2.979l35.117,16.072c2.98,1.188,4.768,5.357,2.98,8.334
				C406.802,334.066,405.015,335.254,402.634,335.254z"/>
		</g>
		<g>
			<path fill="#2C3E50" d="M172.261,231.082c-0.596,0-1.784,0-2.382-0.595l-35.121-16.073c-2.979-1.189-4.763-5.356-2.979-8.332
				c1.189-2.979,5.356-4.765,8.334-2.979l35.121,16.072c2.979,1.189,4.766,5.357,2.979,8.334
				C177.023,229.892,174.642,231.082,172.261,231.082z"/>
		</g>
		<g>
			<path fill="#2C3E50" d="M313.935,178.102c-0.596,0-1.785,0-2.381-0.595c-2.979-1.189-4.765-5.357-2.979-8.334l16.072-35.121
				c1.189-2.978,5.355-4.762,8.334-2.978c2.979,1.19,4.766,5.357,2.979,8.334l-16.071,35.121
				C318.699,176.317,316.316,178.102,313.935,178.102z"/>
		</g>
		<g>
			<path fill="#2C3E50" d="M209.764,407.879c-0.597,0-1.785,0-2.382-0.598c-2.979-1.189-4.766-5.355-2.979-8.332l16.072-35.121
				c1.188-2.979,5.355-4.766,8.334-2.979c2.979,1.188,4.763,5.355,2.979,8.334l-16.072,35.119
				C214.526,406.692,212.144,407.879,209.764,407.879z"/>
		</g>
		<g>
			<path fill="#2C3E50" d="M369.89,237.631c-2.381,0-4.762-1.786-5.951-4.167c-1.188-2.978,0.598-6.549,3.57-7.739l35.717-13.69
				c2.979-1.189,6.553,0.596,7.738,3.571c1.19,2.977-0.595,6.548-3.57,7.738l-35.717,13.689
				C371.679,237.631,370.49,237.631,369.89,237.631z"/>
		</g>
		<g>
			<path fill="#2C3E50" d="M133.567,326.92c-2.381,0-4.763-1.785-5.952-4.166c-1.188-2.979,0.598-6.549,3.571-7.737l35.717-13.69
				c2.979-1.188,6.548,0.596,7.739,3.57c1.188,2.979-0.598,6.548-3.572,7.736l-35.717,13.693
				C135.353,326.327,134.76,326.92,133.567,326.92z"/>
		</g>
		<g>
			<path fill="#2C3E50" d="M232.385,175.126c-2.382,0-4.763-1.786-5.952-4.168l-13.69-35.718c-1.188-2.977,0.598-6.547,3.571-7.737
				c2.979-1.191,6.548,0.595,7.737,3.571l13.688,35.718c1.189,2.976-0.596,6.548-3.569,7.737
				C233.575,175.126,232.979,175.126,232.385,175.126z"/>
		</g>
		<g>
			<path fill="#2C3E50" d="M321.08,411.454c-2.383,0-4.766-1.785-5.952-4.168l-13.689-35.718c-1.188-2.978,0.596-6.549,3.569-7.737
				c2.978-1.188,6.55,0.596,7.738,3.569l13.689,35.72c1.188,2.977-0.598,6.549-3.572,7.738
				C322.865,411.454,321.677,411.454,321.08,411.454z"/>
		</g>
	</g>
</g>
</svg>
