<?xml version="1.0" encoding="utf-8"?>
<!-- Generator: Adobe Illustrator 16.0.0, SVG Export Plug-In . SVG Version: 6.00 Build 0)  -->
<!DOCTYPE svg PUBLIC "-//W3C//DTD SVG 1.1//EN" "http://www.w3.org/Graphics/SVG/1.1/DTD/svg11.dtd">
<svg version="1.1" id="Layer_1" xmlns="http://www.w3.org/2000/svg" xmlns:xlink="http://www.w3.org/1999/xlink" x="0px" y="0px"
	 width="538.583px" height="425.197px" viewBox="-56.693 0 538.583 425.197" enable-background="new -56.693 0 538.583 425.197"
	 xml:space="preserve">
<g>
	<g>
		<path d="M213.193,289.279c-10.713,0-21.428-2.381-31.548-7.144c-38.693-17.264-55.956-63.101-38.099-101.793
			c12.501-27.383,39.885-45.24,70.243-45.24c10.716,0,21.431,2.381,31.551,7.144c38.691,17.263,55.956,63.101,38.098,101.792
			C270.935,271.421,243.552,289.279,213.193,289.279z M213.193,148.198c-25,0-48.216,14.882-58.931,38.098
			c-14.883,32.146,0,70.839,32.146,85.125c8.334,3.571,17.263,5.953,26.787,5.953c25.002,0,48.218-14.882,58.933-38.098
			c14.883-32.146,0-70.838-32.145-85.125C231.052,149.984,222.121,148.198,213.193,148.198z"/>
	</g>
	<g>
		<path d="M345.94,278.564c-0.595,0-1.785,0-2.381-0.596l-35.121-16.072c-2.977-1.19-4.763-5.357-2.977-8.334
			c1.189-2.978,5.356-4.762,8.334-2.978l35.12,16.072c2.978,1.191,4.764,5.358,2.978,8.334
			C350.107,277.374,348.322,278.564,345.94,278.564z"/>
	</g>
	<g>
		<path d="M115.568,174.389c-0.595,0-1.785,0-2.381-0.594l-35.121-16.074c-2.978-1.189-4.763-5.356-2.978-8.332
			c1.19-2.978,5.357-4.764,8.334-2.978l35.121,16.072c2.978,1.19,4.764,5.358,2.978,8.334
			C120.33,173.2,117.949,174.389,115.568,174.389z"/>
	</g>
	<g>
		<path d="M257.243,121.41c-0.596,0-1.786,0-2.381-0.595c-2.977-1.189-4.763-5.357-2.977-8.334l16.073-35.121
			c1.189-2.977,5.356-4.762,8.334-2.977c2.977,1.19,4.763,5.357,2.977,8.334l-16.072,35.121
			C262.007,119.625,259.624,121.41,257.243,121.41z"/>
	</g>
	<g>
		<path d="M153.071,351.188c-0.596,0-1.786,0-2.381-0.597c-2.978-1.189-4.764-5.356-2.978-8.332l16.072-35.122
			c1.19-2.978,5.357-4.764,8.334-2.978c2.978,1.19,4.763,5.357,2.978,8.334l-16.072,35.122
			C157.833,349.998,155.451,351.188,153.071,351.188z"/>
	</g>
	<g>
		<path d="M313.199,180.939c-2.381,0-4.762-1.786-5.952-4.167c-1.19-2.977,0.596-6.549,3.571-7.739l35.717-13.69
			c2.978-1.19,6.549,0.595,7.738,3.571c1.191,2.976-0.595,6.548-3.571,7.738l-35.717,13.69
			C314.986,180.939,313.796,180.939,313.199,180.939z"/>
	</g>
	<g>
		<path d="M76.874,270.23c-2.381,0-4.762-1.786-5.952-4.167c-1.189-2.978,0.596-6.548,3.571-7.738l35.717-13.69
			c2.978-1.19,6.548,0.595,7.739,3.57c1.19,2.978-0.596,6.548-3.572,7.738L78.66,269.635C78.66,269.635,78.066,270.23,76.874,270.23
			z"/>
	</g>
	<g>
		<path d="M175.692,118.434c-2.382,0-4.763-1.786-5.953-4.168l-13.691-35.717c-1.189-2.977,0.596-6.547,3.571-7.738
			c2.977-1.191,6.548,0.595,7.739,3.572l13.69,35.717c1.19,2.976-0.596,6.548-3.571,7.738
			C176.882,118.434,176.286,118.434,175.692,118.434z"/>
	</g>
	<g>
		<path d="M264.387,354.76c-2.382,0-4.764-1.785-5.953-4.168l-13.691-35.717c-1.189-2.976,0.597-6.548,3.571-7.737
			c2.977-1.19,6.549,0.596,7.739,3.57l13.69,35.718c1.19,2.977-0.596,6.549-3.571,7.738
			C266.173,354.76,264.982,354.76,264.387,354.76z"/>
	</g>
</g>
</svg>
