<?xml version="1.0" encoding="utf-8"?>
<!-- Generator: Adobe Illustrator 16.0.0, SVG Export Plug-In . SVG Version: 6.00 Build 0)  -->
<!DOCTYPE svg PUBLIC "-//W3C//DTD SVG 1.1//EN" "http://www.w3.org/Graphics/SVG/1.1/DTD/svg11.dtd">
<svg version="1.1" id="Layer_1" xmlns="http://www.w3.org/2000/svg" xmlns:xlink="http://www.w3.org/1999/xlink" x="0px" y="0px"
	 width="538.583px" height="425.197px" viewBox="-56.693 0 538.583 425.197" enable-background="new -56.693 0 538.583 425.197"
	 xml:space="preserve">
<g>
	<path d="M236.409,263.198V112.592c0-13.097-10.715-23.812-23.811-23.812c-13.097,0-23.812,10.715-23.812,23.812v150.606
		c-10.12,7.738-16.668,19.645-16.668,32.74c0,22.621,18.453,40.479,40.479,40.479c22.025,0,40.479-18.455,40.479-40.479
		C253.077,282.841,247.124,270.937,236.409,263.198z M212.599,101.282c6.547,0,11.904,5.357,11.904,11.905v9.524h-23.811v-9.524
		C200.694,106.043,206.051,101.282,212.599,101.282z M212.599,323.917c-15.479,0-27.979-12.502-27.979-27.979
		c0-10.119,4.762-19.049,13.691-23.812c1.785-1.189,2.976-2.977,2.976-5.357V134.617h23.216v132.152c0,2.383,1.19,4.168,2.977,5.357
		c8.334,5.357,13.691,14.287,13.691,23.812C240.577,311.415,228.075,323.917,212.599,323.917z"/>
</g>
</svg>
