<?xml version="1.0" encoding="utf-8"?>
<!-- Generator: Adobe Illustrator 16.0.0, SVG Export Plug-In . SVG Version: 6.00 Build 0)  -->
<!DOCTYPE svg PUBLIC "-//W3C//DTD SVG 1.1//EN" "http://www.w3.org/Graphics/SVG/1.1/DTD/svg11.dtd">
<svg version="1.1" id="Layer_1" xmlns="http://www.w3.org/2000/svg" xmlns:xlink="http://www.w3.org/1999/xlink" x="0px" y="0px"
	 width="538.582px" height="538.583px" viewBox="0 0 538.582 538.583" enable-background="new 0 0 538.582 538.583"
	 xml:space="preserve">
<g>
	<path fill="#ECF0F1" d="M269.293,154.55c7.098,0,12.904,5.807,12.904,12.905v75.497h-25.812v-76.143
		C256.388,159.711,262.196,154.55,269.293,154.55z"/>
	<path fill="#F3E59A" d="M269.272,381.61c-16.574,0-29.958-12.695-29.958-28.412c0-10.275,5.099-19.344,14.659-24.18
		c1.911-1.207,3.187-3.023,3.187-5.439v-73.143h24.858v73.143c0,2.42,1.274,4.232,3.188,5.439
		c8.922,5.439,14.658,14.508,14.658,24.18C299.23,368.915,285.844,381.61,269.272,381.61z"/>
	<g>
		<path fill="#2C3E50" d="M293.103,319.891V169.285c0-13.097-10.715-23.812-23.812-23.812c-13.099,0-23.812,10.715-23.812,23.812
			v150.606c-10.12,7.738-16.668,19.645-16.668,32.74c0,22.621,18.452,40.479,40.479,40.479c22.023,0,40.479-18.455,40.479-40.479
			C309.771,339.534,303.818,327.629,293.103,319.891z M269.293,157.975c6.546,0,11.904,5.357,11.904,11.905v69.647h-23.812v-70.242
			C257.388,162.736,262.745,157.975,269.293,157.975z M269.293,380.61c-15.479,0-27.979-12.502-27.979-27.979
			c0-10.119,4.762-19.049,13.689-23.812c1.785-1.188,2.978-2.977,2.978-5.355v-72.026h23.216v72.026
			c0,2.384,1.189,4.168,2.979,5.355c8.335,5.357,13.689,14.287,13.689,23.812C297.271,368.108,284.769,380.61,269.293,380.61z"/>
	</g>
</g>
</svg>
