<?xml version="1.0" encoding="utf-8"?>
<!-- Generator: Adobe Illustrator 16.0.0, SVG Export Plug-In . SVG Version: 6.00 Build 0)  -->
<!DOCTYPE svg PUBLIC "-//W3C//DTD SVG 1.1//EN" "http://www.w3.org/Graphics/SVG/1.1/DTD/svg11.dtd">
<svg version="1.1" id="Layer_1" xmlns="http://www.w3.org/2000/svg" xmlns:xlink="http://www.w3.org/1999/xlink" x="0px" y="0px"
	 width="538.582px" height="538.583px" viewBox="0 -56.693 538.582 538.583" enable-background="new 0 -56.693 538.582 538.583"
	 xml:space="preserve">
<g>
	<path d="M236.409,263.198V112.592c0-13.097-10.716-23.812-23.812-23.812c-13.097,0-23.812,10.715-23.812,23.812v150.606
		c-10.12,7.738-16.668,19.645-16.668,32.74c0,22.621,18.452,40.479,40.479,40.479c22.025,0,40.479-18.455,40.479-40.479
		C253.077,282.841,247.124,270.937,236.409,263.198z M212.598,101.282c6.547,0,11.905,5.357,11.905,11.905v69.647h-23.812v-70.242
		C200.693,106.043,206.051,101.282,212.598,101.282z M212.598,323.917c-15.479,0-27.979-12.502-27.979-27.979
		c0-10.119,4.762-19.049,13.69-23.812c1.785-1.189,2.977-2.977,2.977-5.357v-72.027h23.216v72.027c0,2.383,1.189,4.168,2.977,5.357
		c8.334,5.357,13.691,14.287,13.691,23.812C240.577,311.415,228.075,323.917,212.598,323.917z"/>
</g>
</svg>
