<?xml version="1.0" encoding="utf-8"?>
<!-- Generator: Adobe Illustrator 16.0.0, SVG Export Plug-In . SVG Version: 6.00 Build 0)  -->
<!DOCTYPE svg PUBLIC "-//W3C//DTD SVG 1.1//EN" "http://www.w3.org/Graphics/SVG/1.1/DTD/svg11.dtd">
<svg version="1.1" id="Layer_1" xmlns="http://www.w3.org/2000/svg" xmlns:xlink="http://www.w3.org/1999/xlink" x="0px" y="0px"
	 width="538.582px" height="538.583px" viewBox="0 0 538.582 538.583" enable-background="new 0 0 538.582 538.583"
	 xml:space="preserve">
<g>
	<path fill="#ECF0F1" d="M269.295,154.116c8.904,0,16.189,7.286,16.189,16.192v12.955h-32.387v-12.955
		C253.102,160.591,260.388,154.116,269.295,154.116z"/>
	<path fill="#E74C3C" d="M269.287,380.61c-15.807,0-28.57-12.766-28.57-28.568c0-10.334,4.861-19.453,13.979-24.316
		c1.823-1.213,3.04-3.039,3.04-5.469V187.31h23.707v134.942c0,2.434,1.215,4.256,3.041,5.471c8.51,5.471,13.98,14.59,13.98,24.314
		C297.857,367.844,285.092,380.61,269.287,380.61z"/>
	<g>
		<path fill="#2C3E50" d="M293.103,319.891V169.285c0-13.097-10.715-23.812-23.811-23.812c-13.099,0-23.812,10.715-23.812,23.812
			v150.606c-10.12,7.738-16.668,19.645-16.668,32.74c0,22.621,18.452,40.479,40.479,40.479c22.023,0,40.478-18.455,40.478-40.479
			C309.771,339.534,303.818,327.629,293.103,319.891z M269.294,157.975c6.547,0,11.903,5.357,11.903,11.905v9.524h-23.812v-9.524
			C257.389,162.736,262.745,157.975,269.294,157.975z M269.294,380.61c-15.479,0-27.979-12.502-27.979-27.979
			c0-10.119,4.762-19.049,13.69-23.812c1.785-1.188,2.977-2.977,2.977-5.355V191.31h23.215v132.151c0,2.383,1.189,4.168,2.979,5.357
			c8.334,5.355,13.689,14.287,13.689,23.811C297.271,368.108,284.769,380.61,269.294,380.61z"/>
	</g>
</g>
</svg>
