<?xml version="1.0" encoding="utf-8"?>
<!-- Generator: Adobe Illustrator 16.0.0, SVG Export Plug-In . SVG Version: 6.00 Build 0)  -->
<!DOCTYPE svg PUBLIC "-//W3C//DTD SVG 1.1//EN" "http://www.w3.org/Graphics/SVG/1.1/DTD/svg11.dtd">
<svg version="1.1" id="Layer_1" xmlns="http://www.w3.org/2000/svg" xmlns:xlink="http://www.w3.org/1999/xlink" x="0px" y="0px"
	 width="538.582px" height="538.583px" viewBox="0 0 538.582 538.583" enable-background="new 0 0 538.582 538.583"
	 xml:space="preserve">
<g>
	<path fill="#ECF0F1" d="M269.293,153.075c7.097,0,12.904,5.807,12.904,12.905v139.38h-25.812V165.335
		C256.388,158.236,262.196,153.075,269.293,153.075z"/>
	<path fill="#2980B9" d="M269.251,385.579c-17.669,0-31.938-14.271-31.938-31.938c0-11.551,5.437-21.744,15.627-27.182
		c2.038-1.356,3.398-3.397,3.398-6.113v-14.949h26.5v14.951c0,2.718,1.357,4.755,3.398,6.113
		c9.514,6.117,15.627,16.307,15.627,27.182C301.187,371.309,286.918,385.579,269.251,385.579z"/>
	<g>
		<path fill="#2C3E50" d="M293.103,319.891V169.285c0-13.097-10.715-23.812-23.811-23.812c-13.099,0-23.812,10.715-23.812,23.812
			v150.606c-10.12,7.738-16.668,19.645-16.668,32.74c0,22.621,18.452,40.479,40.479,40.479c22.023,0,40.478-18.455,40.478-40.479
			C309.771,339.534,303.818,327.629,293.103,319.891z M269.293,157.975c6.546,0,11.904,5.357,11.904,11.905v128.58h-23.812V169.285
			C257.388,162.736,262.745,157.975,269.293,157.975z M269.293,380.61c-15.479,0-27.979-12.502-27.979-27.979
			c0-10.119,4.762-19.049,13.69-23.812c1.785-1.188,2.977-2.977,2.977-5.355v-13.097h23.216v13.099c0,2.381,1.189,4.166,2.979,5.355
			c8.334,5.357,13.689,14.285,13.689,23.812C297.271,368.108,284.769,380.61,269.293,380.61z"/>
	</g>
</g>
</svg>
