<?xml version="1.0" encoding="utf-8"?>
<!-- Generator: Adobe Illustrator 16.0.0, SVG Export Plug-In . SVG Version: 6.00 Build 0)  -->
<!DOCTYPE svg PUBLIC "-//W3C//DTD SVG 1.1//EN" "http://www.w3.org/Graphics/SVG/1.1/DTD/svg11.dtd">
<svg version="1.1" id="Layer_1" xmlns="http://www.w3.org/2000/svg" xmlns:xlink="http://www.w3.org/1999/xlink" x="0px" y="0px"
	 width="538.583px" height="425.197px" viewBox="-56.693 0 538.583 425.197" enable-background="new -56.693 0 538.583 425.197"
	 xml:space="preserve">
<g>
	<g>
		<path d="M367.968,220.337h-179.18c-29.765,0-53.575-23.811-53.575-53.576c0-29.764,23.812-53.574,53.575-53.574
			c1.19,0,1.785,0,2.977,0c8.93-40.479,45.241-69.647,86.314-69.647c41.075,0,77.388,29.168,86.316,69.647c1.19,0,2.381,0,2.976,0
			c29.766,0,53.575,23.812,53.575,53.574C420.947,196.526,397.136,220.337,367.968,220.337z M188.788,125.091
			c-22.621,0-41.075,18.455-41.075,41.074c0,22.62,18.454,41.075,41.075,41.075h178.583c22.621,0,41.075-18.454,41.075-41.075
			s-18.454-41.074-41.075-41.074c-2.381,0-4.762,0-7.143,0.596c-1.786,0-3.572,0-4.763-1.19c-1.191-1.19-2.382-2.381-2.382-4.167
			c-5.356-36.906-37.503-64.886-75.006-64.886c-37.502,0-69.646,27.979-75.005,64.886c0,1.786-1.19,2.977-2.381,4.167
			c-1.191,1.19-2.978,1.19-4.764,1.19C193.55,125.687,191.169,125.091,188.788,125.091z"/>
	</g>
	<g>
		<path d="M273.318,381.657c-0.596,0-1.786,0-2.381-0.596c-2.382-1.189-4.167-3.57-3.572-6.547l8.334-74.41l-28.573-11.906
			c-1.785-0.596-3.571-2.381-3.571-4.762l-7.144-45.836c-0.596-3.572,1.785-6.549,5.357-7.145c3.571-0.596,6.548,1.785,7.144,5.357
			l6.549,42.264l29.764,12.502c2.381,1.189,4.167,3.572,3.572,6.547l-6.55,56.553l49.408-65.48l-27.978-26.787
			c-1.786-1.785-2.382-4.166-1.786-5.953l5.356-20.834c0.597-3.572,4.167-5.357,7.739-4.168c3.571,0.596,5.357,4.168,4.167,7.738
			l-4.763,17.264l29.169,27.979c2.381,2.383,2.381,5.953,0.595,8.334l-65.479,87.508
			C277.485,381.062,275.699,381.657,273.318,381.657z"/>
	</g>
	<g>
		<path d="M129.855,111.996H63.779c-3.571,0-5.952-2.977-5.952-5.953s2.978-5.953,5.952-5.953h66.076
			c3.571,0,5.953,2.978,5.953,5.953C135.808,109.019,133.427,111.996,129.855,111.996z"/>
	</g>
	<g>
		<path d="M96.52,166.166H10.203c-3.571,0-5.952-2.976-5.952-5.953c0-2.977,2.978-5.953,5.952-5.953h86.911
			c3.572,0,5.953,2.977,5.953,5.953C103.067,163.19,100.091,166.166,96.52,166.166z"/>
	</g>
	<g>
		<path d="M121.521,219.741H47.112c-3.572,0-5.953-2.977-5.953-5.953c0-2.975,2.978-5.953,5.953-5.953h74.409
			c3.571,0,5.953,2.977,5.953,5.953C127.474,216.767,125.093,219.741,121.521,219.741z"/>
	</g>
</g>
</svg>
