<?xml version="1.0" encoding="utf-8"?>
<!-- Generator: Adobe Illustrator 16.0.0, SVG Export Plug-In . SVG Version: 6.00 Build 0)  -->
<!DOCTYPE svg PUBLIC "-//W3C//DTD SVG 1.1//EN" "http://www.w3.org/Graphics/SVG/1.1/DTD/svg11.dtd">
<svg version="1.1" id="Layer_1" xmlns="http://www.w3.org/2000/svg" xmlns:xlink="http://www.w3.org/1999/xlink" x="0px" y="0px"
	 width="538.582px" height="538.583px" viewBox="0 -56.693 538.582 538.583" enable-background="new 0 -56.693 538.582 538.583"
	 xml:space="preserve">
<g>
	<g>
		<path d="M131.045,126.282H64.969c-3.572,0-5.953-2.976-5.953-5.953s2.978-5.952,5.953-5.952h66.075
			c3.571,0,5.952,2.976,5.952,5.952C136.997,123.307,134.021,126.282,131.045,126.282z"/>
	</g>
	<g>
		<path d="M97.709,179.858H10.798c-3.57,0-5.952-2.976-5.952-5.953c0-2.978,2.978-5.953,5.952-5.953h86.911
			c3.57,0,5.952,2.976,5.952,5.953C103.661,176.882,101.281,179.858,97.709,179.858z"/>
	</g>
	<g>
		<path d="M122.711,233.433h-74.41c-3.571,0-5.952-2.977-5.952-5.951c0-2.978,2.978-5.953,5.952-5.953h74.41
			c3.571,0,5.952,2.977,5.952,5.953C128.663,230.456,126.282,233.433,122.711,233.433z"/>
	</g>
	<g>
		<path d="M229.861,367.966c-0.595,0-1.784,0-2.381-0.596c-2.977-1.189-4.762-4.762-3.57-8.334l8.93-22.023
			c1.188-2.978,4.763-4.764,8.334-3.572c2.977,1.189,4.763,4.764,3.571,8.334l-8.931,22.025
			C234.623,366.181,232.242,367.966,229.861,367.966z"/>
	</g>
	<g>
		<path d="M249.506,320.345c-0.596,0-1.786,0-2.382-0.597c-2.978-1.188-4.764-4.763-3.571-8.334l23.812-57.742
			c1.19-2.978,4.765-4.762,8.334-3.571c2.979,1.19,4.765,4.764,3.571,8.334l-23.811,57.744
			C254.268,318.56,251.886,320.345,249.506,320.345z"/>
	</g>
	<g>
		<path d="M314.391,356.062c-0.596,0-1.786,0-2.381-0.596c-2.979-1.189-4.765-4.764-3.572-8.334l13.691-32.74
			c1.188-2.978,4.763-4.764,8.334-3.572c2.977,1.191,4.763,4.764,3.57,8.335l-14.287,33.336
			C319.154,354.87,316.772,356.062,314.391,356.062z"/>
	</g>
	<g>
		<path d="M338.201,299.51c-0.596,0-1.786,0-2.382-0.597c-2.976-1.189-4.762-4.762-3.571-8.334l15.479-36.907
			c1.19-2.977,4.762-4.762,8.334-3.571c2.976,1.19,4.762,4.764,3.571,8.334l-16.072,36.907
			C342.965,297.724,340.584,299.51,338.201,299.51z"/>
	</g>
	<g>
		<path d="M163.785,334.632c-0.597,0-1.786,0-2.383-0.596c-2.976-1.189-4.762-4.764-3.57-8.334l14.287-34.525
			c1.189-2.978,4.762-4.764,8.334-3.572c2.977,1.189,4.762,4.764,3.57,8.334l-14.287,34.526
			C168.547,333.44,166.166,334.632,163.785,334.632z"/>
	</g>
	<g>
		<path d="M188.787,273.912c-0.597,0-1.786,0-2.383-0.595c-2.977-1.19-4.762-4.764-3.57-8.334l4.763-11.312
			c1.19-2.977,4.763-4.762,8.334-3.57c2.978,1.189,4.763,4.762,3.571,8.334l-4.764,11.311
			C193.549,272.127,191.168,273.912,188.787,273.912z"/>
	</g>
	<g>
		<path d="M366.776,234.028H188.192c-29.764,0-53.574-23.812-53.574-53.575c0-30.359,25.597-55.361,56.552-53.574
			c8.93-39.885,44.646-69.647,86.314-69.647s77.387,29.168,86.315,69.647c1.188,0,2.381,0,2.977,0
			c29.764,0,53.575,23.812,53.575,53.574C420.351,210.218,396.538,234.028,366.776,234.028z M188.192,139.379
			c-22.621,0-41.073,18.455-41.073,41.075c0,22.621,18.452,41.074,41.073,41.074h178.584c22.62,0,41.074-18.453,41.074-41.074
			c0-22.62-18.454-41.075-41.074-41.075c-2.381,0-4.763,0-7.144,0.596c-1.786,0-3.571,0-4.764-1.19
			c-1.189-1.19-2.382-2.381-2.382-4.167c-5.355-36.906-37.503-64.885-75.005-64.885c-37.503,0-69.646,27.979-75.005,64.885
			c0,1.786-1.19,2.977-2.382,4.167c-1.19,1.191-2.978,1.191-4.763,1.191C192.359,139.379,189.978,139.379,188.192,139.379z"/>
	</g>
</g>
</svg>
