<?xml version="1.0" encoding="utf-8"?>
<!-- Generator: Adobe Illustrator 16.0.0, SVG Export Plug-In . SVG Version: 6.00 Build 0)  -->
<!DOCTYPE svg PUBLIC "-//W3C//DTD SVG 1.1//EN" "http://www.w3.org/Graphics/SVG/1.1/DTD/svg11.dtd">
<svg version="1.1" id="Layer_1" xmlns="http://www.w3.org/2000/svg" xmlns:xlink="http://www.w3.org/1999/xlink" x="0px" y="0px"
	 width="538.582px" height="538.583px" viewBox="0 -56.693 538.582 538.583" enable-background="new 0 -56.693 538.582 538.583"
	 xml:space="preserve">
<g>
	<g>
		<path d="M338.784,221.825c-2.977,0-5.355-1.785-5.953-4.762c-0.596-3.572,1.191-6.548,4.764-7.145
			c6.549-1.189,13.098-3.571,19.049-6.548c4.168-1.786,8.334-4.167,12.502-7.144c-36.908-2.978-70.244-25.599-86.315-60.123
			c-16.071-34.526-11.903-74.41,9.524-104.771c-4.764,1.19-8.93,2.978-13.098,4.762c-26.191,12.502-44.646,35.718-51.193,63.695
			c-0.596,3.571-4.166,5.357-7.144,4.762c-3.571-0.594-5.356-4.166-4.762-7.143c7.144-32.146,27.978-58.338,57.739-72.625
			c10.718-4.762,22.025-8.333,33.932-9.523c2.383,0,5.357,1.19,5.953,3.572c1.189,2.381,0.598,5.356-1.189,7.144
			c-27.978,27.383-35.121,69.052-19.049,104.174c16.668,35.121,53.574,56.552,92.27,52.385c2.381,0,5.357,1.19,5.953,3.571
			c1.188,2.381,0.594,5.356-1.191,7.144c-8.334,8.334-18.453,14.883-29.168,20.24c-7.145,2.977-14.287,5.953-21.432,7.145
			C339.382,221.825,338.784,221.825,338.784,221.825z"/>
	</g>
	<g>
		<path d="M264.971,283.14H86.387c-29.765,0-53.575-23.812-53.575-53.574c0-30.359,25.598-55.361,56.552-53.576
			c8.93-39.883,44.646-69.646,86.315-69.646c41.668,0,77.385,29.168,86.315,69.646c30.955-1.785,56.552,23.217,56.552,53.576
			C318.546,259.329,294.735,283.14,264.971,283.14z M86.387,188.49c-22.621,0-41.074,18.454-41.074,41.075
			c0,22.619,18.453,41.074,41.074,41.074H264.97c22.619,0,41.074-18.455,41.074-41.074c0-22.622-18.455-41.075-41.074-41.075
			c-2.381,0-4.765,0-7.146,0.596c-1.785,0-3.569,0-4.763-1.189c-1.191-1.19-2.381-2.382-2.381-4.167
			c-5.356-36.907-37.502-64.887-75.004-64.887c-37.504,0-69.647,27.979-75.006,64.887c0,1.785-1.19,2.977-2.382,4.167
			c-1.785,1.189-2.977,1.189-4.763,1.189C91.15,188.49,88.768,188.49,86.387,188.49z"/>
	</g>
	<path d="M278.067,335.524h-22.621l16.072-16.072c2.381-2.381,2.381-6.549,0-8.93s-6.547-2.381-8.928,0l-16.074,16.071v-22.618
		c0-3.572-2.978-5.953-5.951-5.953c-2.977,0-5.953,2.977-5.953,5.953v22.618l-16.071-15.479c-2.381-2.382-6.547-2.382-8.93,0
		c-2.381,2.383-2.381,6.549,0,8.93l16.073,16.072h-22.621c-3.571,0-5.953,2.979-5.953,5.952c0,2.978,2.978,5.953,5.953,5.953h22.621
		l-16.073,16.072c-2.381,2.381-2.381,6.549,0,8.93c1.191,1.189,2.978,1.785,4.167,1.785c1.191,0,2.978-0.594,4.168-1.785
		l16.072-16.071v22.621c0,3.569,2.978,5.95,5.953,5.95s5.953-2.977,5.953-5.95v-22.621l16.071,16.071
		c1.188,1.189,2.978,1.785,4.166,1.785c1.19,0,2.978-0.594,4.168-1.785c2.382-2.381,2.382-6.549,0-8.93l-16.071-16.072h23.811
		c3.572,0,5.953-2.977,5.953-5.953C284.021,339.097,281.044,335.524,278.067,335.524z"/>
	<path d="M157.821,360.526H135.2l16.071-16.072c2.381-2.381,2.381-6.549,0-8.93s-6.548-2.381-8.931,0l-16.071,16.072v-22.621
		c0-3.57-2.978-5.951-5.953-5.951c-2.977,0-5.951,2.977-5.951,5.951v22.621l-16.073-16.072c-2.381-2.381-6.548-2.381-8.93,0
		c-2.381,2.381-2.381,6.549,0,8.93l16.072,16.072h-22.62c-3.571,0-5.953,2.977-5.953,5.953c0,2.975,2.978,5.953,5.953,5.953h22.62
		l-16.072,16.069c-2.381,2.383-2.381,6.549,0,8.932c1.19,1.189,2.978,1.785,4.167,1.785c1.19,0,2.978-0.596,4.167-1.785
		l16.072-16.073v22.621c0,3.571,2.978,5.952,5.953,5.952s5.951-2.977,5.951-5.952V381.36l16.073,16.073
		c1.189,1.189,2.978,1.785,4.167,1.785s2.978-0.596,4.167-1.785c2.381-2.383,2.381-6.549,0-8.932l-16.073-16.069h22.621
		c3.571,0,5.953-2.979,5.953-5.953C162.582,363.503,161.392,360.526,157.821,360.526z"/>
</g>
</svg>
