<?xml version="1.0" encoding="utf-8"?>
<!-- Generator: Adobe Illustrator 16.0.0, SVG Export Plug-In . SVG Version: 6.00 Build 0)  -->
<!DOCTYPE svg PUBLIC "-//W3C//DTD SVG 1.1//EN" "http://www.w3.org/Graphics/SVG/1.1/DTD/svg11.dtd">
<svg version="1.1" id="Layer_1" xmlns="http://www.w3.org/2000/svg" xmlns:xlink="http://www.w3.org/1999/xlink" x="0px" y="0px"
	 width="538.583px" height="425.197px" viewBox="-56.693 0 538.583 425.197" enable-background="new -56.693 0 538.583 425.197"
	 xml:space="preserve">
<g>
	<g>
		<path d="M130.747,193.251H64.671c-3.571,0-5.952-2.977-5.952-5.953c0-2.976,2.977-5.951,5.952-5.951h66.076
			c3.571,0,5.952,2.976,5.952,5.951C136.699,190.275,134.319,193.251,130.747,193.251z"/>
	</g>
	<g>
		<path d="M98.006,246.827H11.096c-3.572,0-5.953-2.977-5.953-5.953s2.977-5.953,5.953-5.953h86.909
			c3.572,0,5.953,2.977,5.953,5.953S100.983,246.827,98.006,246.827z"/>
	</g>
	<g>
		<path d="M122.413,300.997h-74.41c-3.571,0-5.953-2.977-5.953-5.953c0-2.975,2.978-5.951,5.953-5.951h74.41
			c3.571,0,5.952,2.977,5.952,5.951C128.365,298.021,125.985,300.997,122.413,300.997z"/>
	</g>
	<g>
		<path d="M366.478,300.997H187.894c-29.765,0-53.575-23.811-53.575-53.574c0-29.766,23.812-53.575,53.575-53.575
			c1.189,0,1.786,0,2.977,0c8.929-39.884,44.646-69.648,86.315-69.648s77.387,29.169,86.315,69.648c1.189,0,2.381,0,2.977,0
			c29.764,0,53.575,23.811,53.575,53.575S395.647,300.997,366.478,300.997z M187.298,206.347c-22.619,0-41.073,18.455-41.073,41.074
			c0,22.621,18.454,41.074,41.073,41.074h178.585c22.621,0,41.073-18.453,41.073-41.074c0-22.619-18.452-41.074-41.073-41.074
			c-2.381,0-4.763,0-7.145,0.596c-1.785,0-3.57,0-4.762-1.19c-1.191-1.189-2.381-2.381-2.381-4.167
			c-5.357-36.906-37.503-64.886-75.006-64.886c-37.502,0-69.647,27.979-75.006,64.886c0,1.786-1.189,2.978-2.381,4.167
			c-1.19,1.19-2.977,1.786-4.763,1.19C192.061,206.347,189.68,206.347,187.298,206.347z"/>
	</g>
</g>
</svg>
