<?xml version="1.0" encoding="utf-8"?>
<!-- Generator: Adobe Illustrator 16.0.0, SVG Export Plug-In . SVG Version: 6.00 Build 0)  -->
<!DOCTYPE svg PUBLIC "-//W3C//DTD SVG 1.1//EN" "http://www.w3.org/Graphics/SVG/1.1/DTD/svg11.dtd">
<svg version="1.1" id="Layer_1" xmlns="http://www.w3.org/2000/svg" xmlns:xlink="http://www.w3.org/1999/xlink" x="0px" y="0px"
	 width="538.582px" height="538.582px" viewBox="-297.5 420.5 538.582 538.582"
	 enable-background="new -297.5 420.5 538.582 538.582" xml:space="preserve">
<g>
	<path fill="#ECF0F1" d="M-57.322,617.242c-23.813,0-43.238,19.428-43.238,43.24c0,23.811,19.425,43.236,43.238,43.236h187.994
		c23.812,0,43.239-19.426,43.239-43.236c0-23.812-19.427-43.24-43.239-43.24c-2.507,0-5.014,0-7.521,0.627
		c-1.88,0-3.759,0-5.016-1.252c-1.251-1.254-2.509-2.508-2.509-4.389c-5.637-38.852-39.479-68.305-78.958-68.305
		c-39.479,0-73.315,29.453-78.958,68.305c0,1.881-1.253,3.135-2.508,4.389c-1.252,1.254-3.135,1.254-5.014,1.254
		C-52.935,617.242-55.442,617.242-57.322,617.242z"/>
	<g>
		<path fill="#2C3E50" d="M-109.763,603.473h-66.075c-3.572,0-5.953-2.977-5.953-5.951c0-2.977,2.979-5.951,5.953-5.951h66.074
			c3.571,0,5.952,2.975,5.952,5.951C-103.811,600.498-106.787,603.473-109.763,603.473z"/>
	</g>
	<g>
		<path fill="#2C3E50" d="M-143.099,657.049h-86.911c-3.569,0-5.951-2.977-5.951-5.953c0-2.979,2.979-5.953,5.951-5.953h86.911
			c3.57,0,5.952,2.979,5.952,5.953C-137.147,654.072-139.527,657.049-143.099,657.049z"/>
	</g>
	<g>
		<path fill="#2C3E50" d="M-118.097,710.623h-74.41c-3.57,0-5.951-2.977-5.951-5.951c0-2.977,2.979-5.953,5.951-5.953h74.41
			c3.571,0,5.952,2.98,5.952,5.953C-112.145,707.646-114.526,710.623-118.097,710.623z"/>
	</g>
	<g>
		<path fill="#2C3E50" d="M-10.947,845.158c-0.597,0-1.784,0-2.383-0.598c-2.978-1.188-4.763-4.762-3.568-8.334l8.93-22.021
			c1.188-2.979,4.764-4.764,8.334-3.572c2.979,1.189,4.764,4.768,3.571,8.334l-8.933,22.025
			C-6.185,843.373-8.566,845.158-10.947,845.158z"/>
	</g>
	<g>
		<path fill="#2C3E50" d="M8.698,797.537c-0.596,0-1.785,0-2.382-0.596c-2.979-1.189-4.766-4.766-3.57-8.334l23.812-57.742
			c1.188-2.98,4.765-4.764,8.334-3.572c2.979,1.191,4.765,4.766,3.569,8.334L14.65,793.371
			C13.46,795.75,11.078,797.537,8.698,797.537z"/>
	</g>
	<g>
		<path fill="#2C3E50" d="M73.583,833.252c-0.596,0-1.786,0-2.381-0.596c-2.979-1.189-4.766-4.764-3.572-8.334l13.691-32.74
			c1.188-2.977,4.763-4.764,8.334-3.572c2.977,1.191,4.763,4.768,3.569,8.336l-14.287,33.336
			C78.346,832.062,75.964,833.252,73.583,833.252z"/>
	</g>
	<g>
		<path fill="#2C3E50" d="M97.393,776.703c-0.598,0-1.786,0-2.382-0.6c-2.978-1.188-4.764-4.762-3.571-8.334l15.479-36.904
			c1.189-2.979,4.764-4.764,8.334-3.572c2.978,1.191,4.764,4.766,3.571,8.334l-16.072,36.908
			C102.157,774.916,99.777,776.703,97.393,776.703z"/>
	</g>
	<g>
		<path fill="#2C3E50" d="M-77.023,811.824c-0.599,0-1.786,0-2.383-0.598c-2.979-1.188-4.764-4.764-3.57-8.334l14.287-34.523
			c1.188-2.979,4.762-4.764,8.334-3.572c2.978,1.189,4.762,4.768,3.568,8.334l-14.285,34.527
			C-72.261,810.631-74.642,811.824-77.023,811.824z"/>
	</g>
	<g>
		<path fill="#2C3E50" d="M-52.021,751.105c-0.599,0-1.786,0-2.383-0.598c-2.979-1.188-4.764-4.764-3.57-8.334l4.764-11.312
			c1.189-2.979,4.765-4.764,8.334-3.57c2.979,1.189,4.765,4.762,3.57,8.334l-4.764,11.312
			C-47.26,749.32-49.64,751.105-52.021,751.105z"/>
	</g>
	<g>
		<path fill="#2C3E50" d="M125.968,711.219H-52.616c-29.764,0-53.572-23.811-53.572-53.572c0-30.359,25.597-55.361,56.552-53.574
			c8.931-39.885,44.646-69.648,86.312-69.648c41.67,0,77.389,29.168,86.315,69.648c1.188,0,2.381,0,2.977,0
			c29.766,0,53.575,23.811,53.575,53.574C179.543,687.408,155.73,711.219,125.968,711.219z M-52.616,616.572
			c-22.619,0-41.071,18.455-41.071,41.072c0,22.621,18.452,41.074,41.071,41.074h178.584c22.62,0,41.074-18.453,41.074-41.074
			c0-22.617-18.454-41.072-41.074-41.072c-2.381,0-4.763,0-7.144,0.596c-1.786,0-3.571,0-4.765-1.188
			c-1.188-1.191-2.383-2.385-2.383-4.17c-5.354-36.904-37.504-64.885-75.006-64.885c-37.503,0-69.646,27.979-75.005,64.885
			c0,1.785-1.188,2.979-2.383,4.17c-1.188,1.188-2.978,1.188-4.763,1.188C-48.449,616.572-50.83,616.572-52.616,616.572z"/>
	</g>
</g>
</svg>
