<?xml version="1.0" encoding="utf-8"?>
<!-- Generator: Adobe Illustrator 16.0.0, SVG Export Plug-In . SVG Version: 6.00 Build 0)  -->
<!DOCTYPE svg PUBLIC "-//W3C//DTD SVG 1.1//EN" "http://www.w3.org/Graphics/SVG/1.1/DTD/svg11.dtd">
<svg version="1.1" id="Layer_1" xmlns="http://www.w3.org/2000/svg" xmlns:xlink="http://www.w3.org/1999/xlink" x="0px" y="0px"
	 width="538.583px" height="425.197px" viewBox="-56.693 0 538.583 425.197" enable-background="new -56.693 0 538.583 425.197"
	 xml:space="preserve">
<g>
	<g>
		<path d="M130.747,129.855H64.671c-3.571,0-5.952-2.977-5.952-5.953s2.977-5.953,5.952-5.953h66.076
			c3.571,0,5.952,2.977,5.952,5.953S134.319,129.855,130.747,129.855z"/>
	</g>
	<g>
		<path d="M98.006,183.429H11.096c-3.572,0-5.953-2.977-5.953-5.952c0-2.978,2.977-5.953,5.953-5.953h86.909
			c3.572,0,5.953,2.976,5.953,5.953C103.959,180.453,100.983,183.429,98.006,183.429z"/>
	</g>
	<g>
		<path d="M122.413,237.601h-74.41c-3.571,0-5.953-2.979-5.953-5.953c0-2.977,2.978-5.953,5.953-5.953h74.41
			c3.571,0,5.952,2.977,5.952,5.953C128.365,234.622,125.985,237.601,122.413,237.601z"/>
	</g>
	<path d="M377.788,289.985h-22.62l16.071-16.072c2.382-2.381,2.382-6.549,0-8.93c-2.381-2.381-6.548-2.381-8.929,0l-16.072,16.072
		v-22.621c0-3.57-2.977-5.951-5.953-5.951c-2.976,0-5.953,2.975-5.953,5.951v22.621l-16.071-16.072
		c-2.381-2.381-6.548-2.381-8.931,0c-2.381,2.381-2.381,6.549,0,8.93l16.073,16.072h-22.621c-3.57,0-5.952,2.977-5.952,5.953
		c0,2.975,2.977,5.953,5.952,5.953h22.621l-16.073,16.07c-2.381,2.383-2.381,6.549,0,8.932c1.191,1.188,2.978,1.785,4.167,1.785
		c1.19,0,2.978-0.598,4.167-1.785l16.073-16.074v22.621c0,3.572,2.977,5.953,5.952,5.953s5.953-2.979,5.953-5.953v-22.621
		l16.072,16.074c1.189,1.188,2.977,1.785,4.167,1.785c1.189,0,2.977-0.598,4.167-1.785c2.381-2.383,2.381-6.549,0-8.932
		l-14.883-15.479h22.621c3.571,0,5.952-2.975,5.952-5.951C383.739,293.558,381.36,289.985,377.788,289.985z"/>
	<path d="M258.137,314.987h-22.621l16.072-16.072c2.382-2.381,2.382-6.549,0-8.93s-6.549-2.381-8.93,0l-16.071,16.072v-22.621
		c0-3.57-2.978-5.951-5.954-5.951c-2.976,0-5.951,2.975-5.951,5.951v22.621l-16.073-16.072c-2.381-2.381-6.548-2.381-8.929,0
		c-2.383,2.381-2.383,6.549,0,8.93l16.071,16.072h-22.621c-3.57,0-5.951,2.977-5.951,5.953c0,2.975,2.977,5.953,5.951,5.953h22.621
		l-16.071,16.072c-2.383,2.381-2.383,6.547,0,8.928c1.189,1.189,2.977,1.787,4.167,1.787c1.189,0,2.976-0.598,4.167-1.787
		l16.071-16.072v22.621c0,3.572,2.978,5.953,5.953,5.953c2.977,0,5.952-2.979,5.952-5.953v-22.621l16.072,16.072
		c1.19,1.189,2.977,1.787,4.167,1.787s2.977-0.598,4.167-1.787c2.382-2.381,2.382-6.547,0-8.928l-16.072-16.072h22.621
		c3.571,0,5.952-2.979,5.952-5.953C262.898,317.964,261.114,314.987,258.137,314.987z"/>
	<g>
		<path d="M366.478,237.601H187.894c-29.765,0-53.575-23.812-53.575-53.576c0-29.764,23.812-53.575,53.575-53.575
			c1.189,0,1.786,0,2.977,0c8.929-39.884,44.646-69.647,86.315-69.647s77.387,29.168,86.315,69.647c1.189,0,2.381,0,2.977,0
			c29.764,0,53.575,23.812,53.575,53.575C420.053,213.79,395.647,237.601,366.478,237.601z M187.298,142.951
			c-22.619,0-41.073,18.454-41.073,41.074s18.454,41.076,41.073,41.076h178.585c22.621,0,41.073-18.456,41.073-41.076
			s-18.452-41.074-41.073-41.074c-2.381,0-4.763,0-7.145,0.596c-1.785,0-3.57,0-4.762-1.19s-2.381-2.382-2.381-4.167
			c-5.357-36.907-37.503-64.887-75.006-64.887c-37.502,0-69.647,27.979-75.006,64.887c0,1.786-1.189,2.977-2.381,4.167
			c-1.19,1.19-2.977,1.19-4.763,1.19C192.061,142.951,189.68,142.951,187.298,142.951z"/>
	</g>
</g>
</svg>
