<?xml version="1.0" encoding="utf-8"?>
<!-- Generator: Adobe Illustrator 16.0.0, SVG Export Plug-In . SVG Version: 6.00 Build 0)  -->
<!DOCTYPE svg PUBLIC "-//W3C//DTD SVG 1.1//EN" "http://www.w3.org/Graphics/SVG/1.1/DTD/svg11.dtd">
<svg version="1.1" id="Layer_1" xmlns="http://www.w3.org/2000/svg" xmlns:xlink="http://www.w3.org/1999/xlink" x="0px" y="0px"
	 width="538.583px" height="425.197px" viewBox="-56.693 0 538.583 425.197" enable-background="new -56.693 0 538.583 425.197"
	 xml:space="preserve">
<g>
	<g>
		<path d="M252.184,177.774H106.341c-3.571,0-5.952-2.978-5.952-5.952c0-2.977,2.977-5.953,5.952-5.953h145.844
			c47.623,0,73.22-8.93,73.22-25.598c0-3.571,2.978-5.952,5.953-5.952c2.977,0,5.952,2.978,5.952,5.952
			C337.905,165.273,308.736,177.774,252.184,177.774z"/>
	</g>
	<g>
		<path d="M376.003,255.161c-3.571,0-5.952-2.977-5.952-5.953c0-10.119-14.883-27.978-70.243-27.978H48.599
			c-3.572,0-5.953-2.978-5.953-5.953s2.977-5.953,5.953-5.953h251.208c78.576,0,82.743,33.336,82.743,40.479
			C382.551,252.78,379.574,255.161,376.003,255.161z"/>
	</g>
	<g>
		<path d="M268.852,290.878c-3.571,0-5.953-2.977-5.953-5.952c0-8.93-16.667-19.646-62.504-19.646H72.409
			c-3.571,0-5.952-2.976-5.952-5.952c0-2.976,2.977-5.953,5.952-5.953H199.8c65.48,0,75.006,20.239,75.006,32.146
			C274.805,288.496,271.828,290.878,268.852,290.878z"/>
	</g>
</g>
</svg>
