<?xml version="1.0" encoding="utf-8"?>
<!-- Generator: Adobe Illustrator 16.0.0, SVG Export Plug-In . SVG Version: 6.00 Build 0)  -->
<!DOCTYPE svg PUBLIC "-//W3C//DTD SVG 1.1//EN" "http://www.w3.org/Graphics/SVG/1.1/DTD/svg11.dtd">
<svg version="1.1" id="Layer_1" xmlns="http://www.w3.org/2000/svg" xmlns:xlink="http://www.w3.org/1999/xlink" x="0px" y="0px"
	 width="538.582px" height="538.582px" viewBox="-297.5 363.808 538.582 538.582"
	 enable-background="new -297.5 363.808 538.582 538.582" xml:space="preserve">
<g>
	<g>
		<path fill="#2C3E50" d="M11.377,598.274h-145.843c-3.571,0-5.952-2.979-5.952-5.952c0-2.979,2.979-5.953,5.952-5.953H11.378
			c47.623,0,73.221-8.932,73.221-25.6c0-3.569,2.979-5.95,5.952-5.95c2.979,0,5.952,2.978,5.952,5.95
			C97.098,585.771,67.929,598.274,11.377,598.274z"/>
	</g>
	<g>
		<path fill="#2C3E50" d="M135.197,675.661c-3.571,0-5.952-2.978-5.952-5.953c0-10.119-14.883-27.979-70.243-27.979h-251.209
			c-3.571,0-5.953-2.978-5.953-5.952c0-2.976,2.979-5.952,5.953-5.952H59c78.576,0,82.743,33.336,82.743,40.479
			C141.744,673.28,138.767,675.661,135.197,675.661z"/>
	</g>
	<g>
		<path fill="#2C3E50" d="M28.045,711.378c-3.57,0-5.953-2.977-5.953-5.952c0-8.93-16.667-19.646-62.504-19.646h-127.984
			c-3.571,0-5.952-2.978-5.952-5.952c0-2.976,2.977-5.953,5.952-5.953h127.391c65.479,0,75.006,20.239,75.006,32.146
			C33.998,708.996,31.022,711.378,28.045,711.378z"/>
	</g>
</g>
</svg>
