<?xml version="1.0" encoding="utf-8"?>
<!-- Generator: Adobe Illustrator 16.0.0, SVG Export Plug-In . SVG Version: 6.00 Build 0)  -->
<!DOCTYPE svg PUBLIC "-//W3C//DTD SVG 1.1//EN" "http://www.w3.org/Graphics/SVG/1.1/DTD/svg11.dtd">
<svg version="1.1" id="Layer_1" xmlns="http://www.w3.org/2000/svg" xmlns:xlink="http://www.w3.org/1999/xlink" x="0px" y="0px"
	 width="538.582px" height="538.583px" viewBox="0 -56.693 538.582 538.583" enable-background="new 0 -56.693 538.582 538.583"
	 xml:space="preserve">
<g>
	<path fill="#ECF0F1" d="M237.002,123.967c-24.11,0-43.777,19.672-43.777,43.781c0,24.11,19.667,43.779,43.777,43.779h190.35
		c24.111,0,43.781-19.669,43.781-43.779c0-24.109-19.67-43.781-43.781-43.781c-2.537,0-5.076,0-7.613,0.635
		c-1.902,0-3.809,0-5.078-1.268c-1.268-1.27-2.539-2.539-2.539-4.441c-5.707-39.338-39.975-69.16-79.943-69.16
		c-39.977,0-74.236,29.822-79.947,69.16c0,1.903-1.271,3.172-2.54,4.441c-1.27,1.269-3.173,1.269-5.076,1.269
		C241.444,123.967,238.905,123.967,237.002,123.967z"/>
	<g>
		<path fill="#F2E085" d="M298.459,230.272c-3.57,0.595-5.953,3.574-5.354,7.146l7.145,45.836c0,2.381,1.785,4.166,3.57,4.763
			l28.572,11.905l-8.334,74.41c-0.596,2.978,1.188,5.356,3.572,6.547c0.594,0.597,1.783,0.597,2.381,0.597
			c2.381,0,4.166-0.597,5.354-2.377l65.479-87.509c1.787-2.381,1.787-5.95-0.595-8.334l-29.171-27.979l4.766-17.265
			c1.188-3.569-0.598-7.142-4.168-7.737L298.459,230.272z"/>
		<g>
			<path fill="#2C3E50" d="M424.661,220.337H245.48c-29.768,0-53.575-23.812-53.575-53.576c0-29.764,23.812-53.574,53.575-53.574
				c1.188,0,1.784,0,2.978,0c8.932-40.479,45.241-69.646,86.313-69.646c41.074,0,77.389,29.168,86.316,69.646
				c1.188,0,2.381,0,2.975,0c29.768,0,53.576,23.812,53.576,53.574C477.639,196.525,453.829,220.337,424.661,220.337z
				 M245.48,125.091c-22.621,0-41.075,18.455-41.075,41.074c0,22.62,18.454,41.075,41.075,41.075h178.582
				c22.621,0,41.076-18.454,41.076-41.075s-18.455-41.074-41.076-41.074c-2.381,0-4.762,0-7.143,0.596c-1.785,0-3.572,0-4.764-1.189
				c-1.19-1.19-2.385-2.381-2.385-4.167c-5.354-36.906-37.502-64.887-75.004-64.887s-69.646,27.979-75.006,64.887
				c0,1.786-1.189,2.977-2.383,4.167c-1.188,1.189-2.979,1.189-4.765,1.189C250.241,125.687,247.861,125.091,245.48,125.091z"/>
		</g>
		<g>
			<path fill="#2C3E50" d="M330.01,381.657c-0.598,0-1.787,0-2.381-0.596c-2.385-1.189-4.168-3.57-3.572-6.547l8.334-74.41
				l-28.572-11.906c-1.785-0.596-3.57-2.381-3.57-4.762l-7.145-45.836c-0.6-3.572,1.783-6.553,5.354-7.146
				c3.57-0.598,6.549,1.785,7.146,5.355l6.549,42.266l29.768,12.502c2.381,1.188,4.166,3.57,3.568,6.547l-6.549,56.555
				l49.406-65.479l-27.979-26.787c-1.787-1.785-2.383-4.166-1.787-5.953l5.355-20.834c0.598-3.572,4.166-5.355,7.738-4.168
				c3.57,0.596,5.355,4.168,4.168,7.736l-4.766,17.266l29.171,27.979c2.382,2.385,2.382,5.953,0.595,8.334l-65.479,87.51
				C334.177,381.062,332.391,381.657,330.01,381.657z"/>
		</g>
		<g>
			<path fill="#2C3E50" d="M186.547,111.996h-66.074c-3.57,0-5.951-2.978-5.951-5.953c0-2.977,2.979-5.953,5.951-5.953h66.074
				c3.57,0,5.953,2.978,5.953,5.953S190.119,111.996,186.547,111.996z"/>
		</g>
		<g>
			<path fill="#2C3E50" d="M153.212,166.166H66.895c-3.571,0-5.952-2.977-5.952-5.953c0-2.978,2.979-5.953,5.952-5.953h86.91
				c3.57,0,5.951,2.977,5.951,5.953C159.759,163.189,156.782,166.166,153.212,166.166z"/>
		</g>
		<g>
			<path fill="#2C3E50" d="M178.213,219.741h-74.407c-3.571,0-5.952-2.977-5.952-5.953c0-2.976,2.979-5.953,5.952-5.953h74.407
				c3.57,0,5.953,2.977,5.953,5.953C184.166,216.767,181.784,219.741,178.213,219.741z"/>
		</g>
	</g>
</g>
</svg>
