<?xml version="1.0" encoding="utf-8"?>
<!-- Generator: Adobe Illustrator 16.0.0, SVG Export Plug-In . SVG Version: 6.00 Build 0)  -->
<!DOCTYPE svg PUBLIC "-//W3C//DTD SVG 1.1//EN" "http://www.w3.org/Graphics/SVG/1.1/DTD/svg11.dtd">
<svg version="1.1" id="Layer_1" xmlns="http://www.w3.org/2000/svg" xmlns:xlink="http://www.w3.org/1999/xlink" x="0px" y="0px"
	 width="538.582px" height="538.583px" viewBox="0 0 538.582 538.583" enable-background="new 0 0 538.582 538.583"
	 xml:space="preserve">
<g>
	<path fill="#ECF0F1" d="M238.182,197.2c-23.888,0-43.372,19.55-43.372,43.51c0,23.962,19.484,43.509,43.372,43.509h188.576
		c23.886,0,43.372-19.546,43.372-43.509c0-23.96-19.486-43.51-43.372-43.51c-2.515,0-5.029,0-7.543,0.631
		c-1.887,0-3.771,0-5.031-1.26c-1.256-1.261-2.516-2.522-2.516-4.414c-5.654-39.095-39.602-68.732-79.201-68.732
		c-39.604,0-73.544,29.638-79.202,68.732c0,1.892-1.258,3.153-2.517,4.414c-1.256,1.262-3.146,1.262-5.029,1.262
		C242.583,197.2,240.068,197.2,238.182,197.2z"/>
	<g>
		<g>
			<path fill="#2C3E50" d="M187.439,186.547h-66.076c-3.569,0-5.95-2.977-5.95-5.953c0-2.976,2.978-5.953,5.95-5.953h66.076
				c3.569,0,5.952,2.977,5.952,5.953C193.391,183.57,191.011,186.547,187.439,186.547z"/>
		</g>
		<g>
			<path fill="#2C3E50" d="M154.698,240.122H67.789c-3.572,0-5.953-2.977-5.953-5.952c0-2.978,2.979-5.953,5.953-5.953h86.907
				c3.572,0,5.953,2.976,5.953,5.953C160.651,237.146,157.676,240.122,154.698,240.122z"/>
		</g>
		<g>
			<path fill="#2C3E50" d="M179.105,294.293h-74.41c-3.569,0-5.953-2.979-5.953-5.953c0-2.977,2.979-5.953,5.953-5.953h74.41
				c3.569,0,5.952,2.979,5.952,5.953C185.057,291.314,182.677,294.293,179.105,294.293z"/>
		</g>
		<path fill="#2C3E50" d="M434.479,346.676h-22.617l16.068-16.071c2.382-2.381,2.382-6.548,0-8.931
			c-2.381-2.381-6.548-2.381-8.929,0l-16.072,16.072v-22.621c0-3.568-2.978-5.951-5.953-5.951s-5.951,2.977-5.951,5.951v22.621
			l-16.07-16.072c-2.381-2.381-6.548-2.381-8.934,0c-2.381,2.383-2.381,6.55,0,8.931l16.073,16.071h-22.62
			c-3.57,0-5.952,2.978-5.952,5.953s2.979,5.953,5.952,5.953h22.62l-16.073,16.068c-2.381,2.383-2.381,6.549,0,8.934
			c1.191,1.188,2.979,1.785,4.167,1.785c1.19,0,2.979-0.6,4.167-1.785l16.073-16.074v22.621c0,3.572,2.979,5.953,5.952,5.953
			c2.973,0,5.952-2.979,5.952-5.953V367.51l16.072,16.074c1.188,1.188,2.978,1.785,4.167,1.785c1.188,0,2.978-0.6,4.167-1.785
			c2.381-2.385,2.381-6.551,0-8.934l-14.886-15.479h22.621c3.571,0,5.952-2.977,5.952-5.948
			C440.431,350.25,438.052,346.676,434.479,346.676z"/>
		<path fill="#2C3E50" d="M314.83,371.679h-22.621l16.07-16.072c2.384-2.381,2.384-6.549,0-8.931c-2.382-2.381-6.549-2.381-8.93,0
			l-16.071,16.072v-22.621c0-3.569-2.979-5.951-5.954-5.951s-5.949,2.976-5.949,5.951v22.621l-16.072-16.072
			c-2.382-2.381-6.549-2.381-8.93,0c-2.385,2.382-2.385,6.55,0,8.931l16.069,16.072h-22.62c-3.568,0-5.949,2.977-5.949,5.952
			s2.978,5.953,5.949,5.953h22.621l-16.069,16.07c-2.385,2.383-2.385,6.549,0,8.93c1.188,1.189,2.979,1.787,4.167,1.787
			s2.977-0.6,4.167-1.787l16.069-16.071v22.62c0,3.572,2.979,5.953,5.953,5.953c2.979,0,5.951-2.979,5.951-5.953v-22.62
			l16.071,16.071c1.188,1.189,2.979,1.787,4.167,1.787s2.979-0.6,4.168-1.787c2.382-2.381,2.382-6.547,0-8.93l-16.072-16.07h22.621
			c3.57,0,5.952-2.979,5.952-5.953C319.592,374.657,317.806,371.679,314.83,371.679z"/>
		<g>
			<path fill="#2C3E50" d="M423.172,294.293H244.587c-29.767,0-53.574-23.812-53.574-53.577c0-29.764,23.812-53.575,53.574-53.575
				c1.188,0,1.786,0,2.979,0c8.929-39.884,44.646-69.647,86.314-69.647c41.668,0,77.387,29.168,86.314,69.647
				c1.188,0,2.381,0,2.978,0c29.764,0,53.574,23.812,53.574,53.575C476.746,270.483,452.341,294.293,423.172,294.293z
				 M243.99,199.644c-22.617,0-41.071,18.454-41.071,41.074c0,22.62,18.454,41.076,41.071,41.076h178.587
				c22.621,0,41.07-18.456,41.07-41.076c0-22.62-18.449-41.074-41.07-41.074c-2.381,0-4.766,0-7.146,0.596
				c-1.785,0-3.567,0-4.762-1.19c-1.195-1.19-2.382-2.382-2.382-4.167c-5.356-36.907-37.503-64.887-75.008-64.887
				c-37.502,0-69.646,27.979-75.006,64.887c0,1.786-1.188,2.977-2.381,4.167c-1.188,1.19-2.979,1.19-4.765,1.19
				C248.754,199.644,246.373,199.644,243.99,199.644z"/>
		</g>
	</g>
</g>
</svg>
