<?xml version="1.0" encoding="utf-8"?>
<!-- Generator: Adobe Illustrator 16.0.0, SVG Export Plug-In . SVG Version: 6.00 Build 0)  -->
<!DOCTYPE svg PUBLIC "-//W3C//DTD SVG 1.1//EN" "http://www.w3.org/Graphics/SVG/1.1/DTD/svg11.dtd">
<svg version="1.1" id="Layer_1" xmlns="http://www.w3.org/2000/svg" xmlns:xlink="http://www.w3.org/1999/xlink" x="0px" y="0px"
	 width="538.582px" height="538.582px" viewBox="-297.5 420.5 538.582 538.582"
	 enable-background="new -297.5 420.5 538.582 538.582" xml:space="preserve">
<g>
	<path fill="#ECF0F1" d="M-60.394,681.168c-24.085,0-43.73,19.65-43.73,43.732c0,24.084,19.646,43.73,43.73,43.73h190.14
		c24.084,0,43.731-19.646,43.731-43.73c0-24.082-19.647-43.732-43.731-43.732c-2.535,0-5.07,0-7.605,0.635
		c-1.901,0-3.803,0-5.072-1.268c-1.267-1.268-2.535-2.535-2.535-4.436c-5.702-39.295-39.931-69.084-79.858-69.084
		c-39.93,0-74.153,29.789-79.858,69.084c0,1.9-1.267,3.168-2.537,4.436c-1.266,1.268-3.17,1.268-5.07,1.268
		C-55.956,681.168-58.491,681.168-60.394,681.168z"/>
	<g>
		<g>
			<path fill="#2C3E50" d="M-110.061,670.444h-66.076c-3.569,0-5.95-2.977-5.95-5.953c0-2.975,2.977-5.951,5.95-5.951h66.076
				c3.57,0,5.952,2.977,5.952,5.951C-104.109,667.467-106.489,670.444-110.061,670.444z"/>
		</g>
		<g>
			<path fill="#2C3E50" d="M-142.802,724.02h-86.909c-3.572,0-5.953-2.977-5.953-5.953s2.978-5.953,5.953-5.953h86.907
				c3.572,0,5.953,2.977,5.953,5.953S-139.824,724.02-142.802,724.02z"/>
		</g>
		<g>
			<path fill="#2C3E50" d="M-118.395,778.19h-74.41c-3.569,0-5.953-2.977-5.953-5.953c0-2.975,2.979-5.951,5.953-5.951h74.41
				c3.57,0,5.952,2.979,5.952,5.951C-112.443,775.213-114.823,778.19-118.395,778.19z"/>
		</g>
		<g>
			<path fill="#2C3E50" d="M125.671,778.19H-52.913c-29.767,0-53.575-23.811-53.575-53.574c0-29.766,23.812-53.574,53.575-53.574
				c1.188,0,1.786,0,2.978,0c8.929-39.885,44.646-69.648,86.314-69.648s77.387,29.17,86.315,69.648c1.188,0,2.381,0,2.977,0
				c29.764,0,53.575,23.811,53.575,53.574S154.84,778.19,125.671,778.19z M-53.51,683.54c-22.617,0-41.071,18.455-41.071,41.074
				c0,22.621,18.454,41.074,41.071,41.074h178.587c22.621,0,41.07-18.453,41.07-41.074c0-22.619-18.449-41.074-41.07-41.074
				c-2.381,0-4.766,0-7.146,0.596c-1.785,0-3.567,0-4.762-1.189c-1.191-1.189-2.381-2.381-2.381-4.166
				c-5.357-36.906-37.503-64.887-75.008-64.887c-37.502,0-69.646,27.979-75.006,64.887c0,1.785-1.188,2.977-2.381,4.166
				c-1.188,1.189-2.978,1.787-4.764,1.189C-48.746,683.54-51.127,683.54-53.51,683.54z"/>
		</g>
	</g>
</g>
</svg>
