<?xml version="1.0" encoding="utf-8"?>
<!-- Generator: Adobe Illustrator 16.0.0, SVG Export Plug-In . SVG Version: 6.00 Build 0)  -->
<!DOCTYPE svg PUBLIC "-//W3C//DTD SVG 1.1//EN" "http://www.w3.org/Graphics/SVG/1.1/DTD/svg11.dtd">
<svg version="1.1" id="Layer_1" xmlns="http://www.w3.org/2000/svg" xmlns:xlink="http://www.w3.org/1999/xlink" x="0px" y="0px"
	 width="708.662px" height="708.662px" viewBox="-56.691 66.615 708.662 708.662"
	 enable-background="new -56.691 66.615 708.662 708.662" xml:space="preserve">
<g>
	<path stroke="#FFFFFF" stroke-miterlimit="10" d="M635.696,440.997l-98.435-159.686c-2.188-3.646-5.834-6.562-9.479-8.75
		l-40.104-18.229l0,0l-74.375-33.542c5.104-22.603-6.562-38.645-16.041-45.937c0.729-24.062-15.312-35.728-24.062-38.646
		c-1.458-0.729-2.916-1.458-4.374-2.187c-18.23-5.104-43.021-7.292-68.541-7.292c-27.709,0-53.958,2.916-72.917,8.75
		c-1.458,0.729-3.646,1.458-4.375,2.188c-0.729,0-1.458,0-1.458,0c-8.75,3.645-23.333,15.311-23.333,35.728
		c-9.479,5.834-19.687,20.417-15.312,45.938l-75.833,33.542l0,0l0,0l-40.104,18.229c-4.375,2.188-7.292,5.104-9.479,8.75
		l-98.437,161.144c-3.646,5.104-5.104,11.666-4.375,18.229l13.125,138.54c0.729,4.374,2.188,9.479,5.834,12.396l5.833,29.896
		c0.729,3.646,4.375,6.562,8.021,5.834c0,0,34.271-4.376,63.438,0c0.729,0,0.729,0,1.458,0c3.646,0,6.562-2.188,7.291-5.834
		l6.563-27.708l0,0l0,0c4.375-5.104,7.291-12.396,7.291-18.958l2.917-161.873l21.875,2.916
		c-0.729,31.354-2.917,164.79,6.563,244.998l0,0l0,0c1.458,10.938,2.916,21.146,5.104,29.896c0.729,3.646,4.375,5.833,8.021,5.833
		c0.729,0,79.479-7.291,180.102-7.291c99.895,0,179.373,7.291,180.104,7.291h0.729c3.646,0,6.562-2.188,7.292-5.833
		c2.188-8.75,3.646-18.958,5.104-29.896l0,0l0,0c10.208-80.937,7.291-213.644,6.562-244.998l21.145-2.916l2.918,161.873
		c0,7.291,2.916,13.854,7.291,19.688l6.562,27.707c0.729,3.646,3.646,5.834,7.292,5.834c0.729,0,0.729,0,1.458,0
		c29.166-4.374,62.708,0,63.436,0c3.646,0.729,7.291-2.188,8.021-5.834l5.832-29.896c2.919-3.646,5.105-8.02,5.835-12.395
		l13.125-138.541C640.801,452.663,639.342,446.831,635.696,440.997z M385.596,185.062c0.729,0.73,19.687,11.667,11.666,35.729
		c-1.458,1.458-2.188,2.188-2.917,2.917c-3.645,3.646-5.104,5.104-10.209,6.563c-3.645,0.729-6.562,5.103-5.104,8.749
		c0.729,3.646,3.646,5.834,7.292,5.834c0.729,0,1.458,0,2.188,0c8.75-2.188,12.396-5.834,16.771-10.208l0.729-0.729l69.271,30.625
		c-6.562,16.771-22.604,62.708-17.499,109.374c3.646,29.167,10.208,48.125,20.417,56.146c1.458,0.729,2.916,2.188,3.645,2.188
		c0.729,27.707,2.917,156.769-5.833,237.705c-21.146-1.458-86.041-6.562-166.248-7.291V305.374h10.209
		c2.187,0,4.374-0.729,5.832-2.917c1.458-1.458,2.188-3.646,1.458-5.833l-6.562-33.542c-0.729-5.833-4.375-10.208-9.479-13.125
		c18.958-39.375,50.312-78.749,63.437-91.145c0.73-0.73,1.459-1.458,2.188-2.188c3.646,4.376,6.562,10.938,5.104,21.146
		C381.949,181.417,383.407,183.604,385.596,185.062z M298.825,265.999c0-1.458,2.188-2.917,3.646-2.917s3.646,1.458,3.646,2.917
		l4.374,24.792H293.72L298.825,265.999z M300.284,142.042c24.062,0,47.395,2.188,64.165,6.562
		c-12.395,10.938-42.291,48.124-62.707,87.499c-23.334-37.187-53.958-74.374-70-86.041
		C249.242,144.958,274.033,142.042,300.284,142.042z M187.992,234.646c2.917,3.646,8.021,7.292,16.771,10.208
		c0.729,0,1.458,0.729,2.188,0.729c2.917,0,5.833-2.187,6.562-5.104c1.458-3.645-0.73-8.021-4.375-9.479
		c-8.021-2.917-10.938-5.833-10.938-6.562c0,0,0,0,0-0.73c0,0,0,0,0-0.729c-8.021-29.167,8.021-36.458,10.208-37.187
		c2.916-1.458,5.104-4.375,4.374-8.021c-1.458-10.208,2.188-16.771,6.564-20.417c0.728,1.458,2.187,2.916,3.645,3.646
		c13.854,10.937,47.396,49.582,70.729,88.957c-4.375,2.917-8.021,7.291-8.749,12.395l-6.563,33.542
		c-0.729,2.187,0,4.375,1.459,5.833c1.458,1.458,3.645,2.917,5.833,2.917h10.208v358.018c-85.312,0-155.312,5.104-177.186,7.291
		c-8.749-80.207-6.562-209.268-5.833-237.705c1.458-0.729,2.188-1.459,3.646-2.188c10.208-8.021,17.499-26.979,20.417-56.146
		c5.103-46.666-10.208-92.603-17.5-109.374L187.992,234.646z M-28.567,449.019l98.436-159.687c0.73-1.458,2.188-2.187,3.646-2.917
		l33.542-15.312c6.562,16.042,21.146,59.062,16.042,102.083c-4.375,41.562-15.312,46.666-16.771,47.396l-29.167-3.646V360.79
		c0-4.375-2.916-7.292-7.292-7.292c-4.374,0-7.291,2.917-7.291,7.292v62.708L59.66,593.392c0,2.187-0.729,4.375-1.458,6.562
		c-31.354-8.75-61.979-3.646-73.645-0.729c0-0.729-0.729-1.458-0.729-2.187l-14.583-139.271
		C-30.755,454.852-30.025,451.205-28.567,449.019z M-7.422,630.579l-3.646-18.229c10.938-2.917,36.458-6.562,61.979,0l-4.375,18.229
		C25.39,627.662,3.516,629.12-7.422,630.579z M120.18,685.266c21.875-2.188,91.145-7.292,175-7.292v15.312
		c-83.125,0-151.666,5.104-172.812,6.562C121.64,695.474,120.91,690.37,120.18,685.266z M309.763,693.286v-15.312
		c79.478,0.729,143.644,5.104,164.79,7.292c-0.729,5.104-1.458,10.208-2.188,15.312
		C451.948,698.391,388.512,694.016,309.763,693.286z M548.198,630.579l-4.374-18.229c25.52-6.562,50.312-2.917,61.977,0
		l-3.646,18.229C591.216,629.12,569.343,627.662,548.198,630.579z M612.363,596.309c0,0.729,0,1.458-0.729,2.188
		c-12.395-2.918-42.29-8.75-73.644,0.729c-0.729-2.187-1.458-4.374-1.458-6.562l-2.917-169.894v-62.708
		c0-4.375-2.917-7.291-7.291-7.291c-4.375,0-7.293,2.917-7.293,7.291v56.146l-29.165,3.646c-1.458-0.73-12.396-5.834-16.771-47.396
		c-5.104-42.292,9.479-85.312,16.041-102.082l33.541,15.312c1.458,0.729,2.916,1.458,3.646,2.917l98.437,159.686
		c1.457,2.916,2.187,5.834,2.187,9.479L612.363,596.309z"/>
	<path stroke="#FFFFFF" stroke-miterlimit="10" d="M251.43,378.29c5.103-2.917,7.291-10.208,4.375-15.312
		c-0.73-1.458-1.458-2.188-2.917-3.646c0-0.73,0.729-1.458,0.729-2.188V255.062c0-4.375-2.917-7.292-7.291-7.292
		c-4.375,0-7.292,2.917-7.292,7.292v102.082c0,0.729,0,1.458,0.729,2.188c-4.375,3.646-5.833,9.479-2.916,14.583
		C239.034,379.749,246.326,381.935,251.43,378.29z"/>
	<path stroke="#FFFFFF" stroke-miterlimit="10" d="M365.907,360.061c0-0.729,0.729-1.458,0.729-2.187V255.791
		c0-4.375-2.916-7.291-7.292-7.291c-4.374,0-7.29,2.916-7.29,7.291v102.083c0,0.729,0,1.458,0.729,2.187
		c-4.375,3.646-5.833,9.479-2.917,14.584c2.917,5.104,10.209,7.291,15.312,4.374c5.104-2.916,7.291-10.208,4.375-15.312
		C368.096,362.248,367.365,360.79,365.907,360.061z"/>
	<path stroke="#FFFFFF" stroke-miterlimit="10" d="M447.574,644.433c1.458,0.729,2.187,1.458,3.646,1.458
		c2.187,0,5.104-1.458,5.833-3.645c2.188-3.646,1.458-8.022-2.188-10.209c-46.665-29.166-44.478-88.229-44.478-88.957
		c0-4.376-2.916-7.292-6.562-7.292c-4.376,0-7.292,2.916-8.021,6.562C396.532,545.267,393.616,610.891,447.574,644.433z"/>
	<path stroke="#FFFFFF" stroke-miterlimit="10" d="M148.619,645.162c1.458,0,2.916,0,3.645-1.458
		c53.958-33.542,51.042-99.166,51.042-102.083c0-4.375-3.646-7.291-8.021-6.562c-4.375,0-7.292,3.646-6.562,8.021
		c0,0.729,2.916,59.791-44.479,88.957c-3.646,2.187-4.375,6.562-2.188,10.209C143.514,643.704,145.701,645.162,148.619,645.162z"/>
</g>
</svg>
