<?xml version="1.0" encoding="utf-8"?>
<!-- Generator: Adobe Illustrator 16.0.0, SVG Export Plug-In . SVG Version: 6.00 Build 0)  -->
<!DOCTYPE svg PUBLIC "-//W3C//DTD SVG 1.1//EN" "http://www.w3.org/Graphics/SVG/1.1/DTD/svg11.dtd">
<svg version="1.1" id="Layer_1" xmlns="http://www.w3.org/2000/svg" xmlns:xlink="http://www.w3.org/1999/xlink" x="0px" y="0px"
	 width="708.662px" height="708.662px" viewBox="-56.691 66.615 708.662 708.662"
	 enable-background="new -56.691 66.615 708.662 708.662" xml:space="preserve">
<g>
	<path stroke="#FFFFFF" stroke-miterlimit="10" d="M635.954,397.775l-98.432-160.407c-2.188-3.646-5.834-6.562-9.479-8.75
		l-40.102-18.228l0,0l0,0l-60.518-22.603l25.52-35.728c6.562-9.479,9.479-21.145,7.291-32.811
		c-2.187-11.666-8.749-21.874-18.229-28.436c-8.02-5.104-17.498-8.02-26.978-7.291c-1.458,0-2.187-0.729-3.646,0
		c-11.666,2.916-23.332,5.104-34.998,7.291c-2.187,0-3.646,0.729-5.104,0.729c-85.308,13.125-156.033-2.916-171.345-7.291l0,0l0,0
		c-2.916,0-4.374,0-4.374,0c-1.458,0-2.188,0-3.646,0c-9.478-0.729-19.686,1.458-27.706,7.291
		c-9.479,6.562-16.042,16.77-18.229,28.436c-2.187,11.667,0.729,23.333,7.292,32.811l22.604,32.082l-67.809,26.249l0,0l0,0
		l-40.102,18.229c-4.375,2.187-7.292,5.104-9.479,8.749l-99.161,159.678c-3.646,5.104-5.104,11.667-4.375,18.229l13.124,189.572
		c0.729,4.375,2.188,8.75,5.104,12.396l5.832,41.56c0.73,3.646,4.375,6.562,8.021,5.834c0,0,34.268-4.376,63.434,0
		c0.729,0,0.729,0,1.458,0c3.646,0,6.562-2.188,7.292-5.834l6.562-40.102l0,0l0,0c4.375-5.104,7.292-12.396,7.292-18.957
		l2.916-212.904l21.874,2.916V744.11c0,3.646,2.917,6.562,6.562,7.292c0.729,0,65.621,7.29,196.135,7.29s187.385-7.29,189.572-7.29
		c3.646-0.73,6.562-3.646,6.562-7.292V389.755l21.873-2.917l2.917,212.906c0,7.29,2.916,13.854,7.291,19.686l6.562,40.102
		c0.729,3.646,3.646,5.834,7.291,5.834c0.729,0,0.729,0,1.459,0c29.164-4.376,62.703,0,63.433,0
		c3.646,0.729,7.292-2.188,8.021-5.834l5.834-41.56c2.916-3.646,5.104-8.021,5.104-12.396l13.854-189.572
		C641.058,409.442,639.6,402.879,635.954,397.775z M445.653,122.167c1.458,8.02,0,15.312-5.104,21.874l-30.623,43.019
		c-8.749,12.395-24.79,15.312-37.186,6.562c-12.395-8.02-16.04-24.791-8.021-37.186l0.729-0.729l0,0l25.52-40.831
		c0.729-1.459,3.645-6.563,2.917-11.667c5.832-1.458,11.665-2.917,18.228-4.375h0.729c7.291-1.458,14.582,0,21.145,4.375
		C439.82,107.584,444.195,114.146,445.653,122.167z M296.911,248.305l-47.394-47.394c9.479,2.188,29.165,6.562,53.956,6.562
		c13.852,0,29.894-1.458,46.663-5.104C341.387,209.661,326.075,222.785,296.911,248.305z M349.407,187.059
		c-40.102,9.478-75.828,3.646-91.869,0c3.646-8.021,4.374-17.5,2.188-26.249c10.208,1.458,25.52,2.917,43.748,2.917
		c13.852,0,28.436-0.729,44.476-2.917C345.033,170.289,345.762,179.038,349.407,187.059z M304.201,111.229
		c21.146,0,44.478-1.458,68.538-5.104l0,0c0.729,0,2.188,0,2.917-0.729c0.729,0,0.729,0,1.458,0c0.729,0,1.458,0,2.188,0
		c0,0.729-0.729,1.458-0.729,1.458l-24.062,37.915c-45.205,8.75-90.411,2.917-102.077,0.729l-24.79-39.373c1.458,0,3.646,0,8.02,0
		l0,0C253.892,109.042,277.224,111.229,304.201,111.229z M160.565,122.167c1.458-8.021,5.832-14.583,12.394-18.958
		c7.292-4.375,15.312-5.833,23.332-3.646c2.917,0.729,8.75,2.188,15.312,3.646c0,4.375,1.458,8.75,3.646,11.667l26.249,41.56
		c8.02,12.395,4.375,29.166-8.021,37.186c-12.395,8.02-28.436,5.104-37.186-6.562l-30.623-43.019
		C161.293,137.478,159.107,129.458,160.565,122.167z M-28.279,405.067l98.431-159.679c0.729-1.458,2.188-2.187,3.646-2.916
		l33.54-15.312c6.562,16.041,21.145,59.06,16.042,102.078c-4.375,41.56-15.312,46.664-16.77,47.393l-29.166-3.646v-34.269
		c0-4.375-2.916-7.292-7.292-7.292c-4.375,0-7.291,2.917-7.291,7.292v40.831l-2.917,220.925c0,2.188-0.729,4.375-1.458,6.562
		c-31.352-8.749-61.976-3.645-73.641-0.729c0-0.729-0.73-1.458-0.73-2.188l-14.582-189.572
		C-30.467,410.9-29.737,407.983-28.279,405.067z M46.092,650.054c-21.145-2.188-42.289-0.73-53.227,0l-4.375-30.624
		c10.937-2.916,36.456-6.562,62.705,0L46.092,650.054z M113.172,389.026c1.458-0.729,2.187-1.458,3.646-2.188
		c10.208-8.02,17.498-26.978,20.414-56.142c5.104-46.665-10.207-91.87-16.77-109.369l63.435-24.061c0.729,0,1.458-0.73,1.458-0.73
		c8.02,10.938,20.416,16.77,33.54,16.77c5.833,0,12.396-1.458,18.228-4.374l48.852,48.851c-8.75,8.02-13.854,18.957-13.854,31.352
		V744.11c-88.224-0.729-141.451-5.104-158.949-6.562V389.026z M320.972,743.381V287.678c0-4.375-2.916-7.291-7.292-7.291
		c-4.374,0-7.29,2.917-7.29,7.291V744.11c-1.458,0-3.646,0-5.104,0c-5.104,0-9.478,0-14.582,0V289.136
		c0-8.02,3.646-15.311,9.479-20.415c1.458-1.459,3.646-2.917,5.104-4.375c0,0,0.729,0,0.729-0.729l0,0
		c34.998-30.624,58.33-51.039,64.162-56.143c6.562,3.646,13.854,5.833,21.146,5.833c10.937,0,21.874-4.374,30.624-13.124
		l56.871,21.874c-6.562,17.499-22.604,62.705-16.77,109.369c3.646,29.165,10.207,48.122,20.415,56.143
		c1.458,0.729,2.187,1.458,3.645,2.187v347.792C465.338,739.007,413.571,743.381,320.972,743.381z M549.189,650.054l-5.104-29.895
		c25.52-7.291,51.037-2.917,62.703,0l-4.374,30.622C591.477,648.595,569.605,647.137,549.189,650.054z M612.622,603.39
		c0,0.729,0,1.458-0.729,2.187c-12.395-2.916-42.29-8.749-73.642,0.729c-0.729-2.188-1.458-4.375-1.458-6.562l-2.916-220.926
		v-40.831c0-4.375-2.918-7.291-7.292-7.291s-7.292,2.917-7.292,7.291v34.269l-29.164,3.646c-1.458-0.729-12.396-5.833-16.77-47.394
		c-5.104-42.289,9.479-85.308,16.04-102.078l33.54,15.312c1.458,0.729,2.916,1.458,3.646,2.916l98.433,159.679
		c1.458,2.917,2.187,5.833,2.187,9.479L612.622,603.39z"/>
	<path stroke="#FFFFFF" stroke-miterlimit="10" d="M237.852,580.058h-96.245c-4.375,0-7.292,2.916-7.292,7.291v29.894v95.517
		c0,3.645,2.916,7.29,7.292,7.29l96.245,4.375l0,0c2.187,0,3.646-0.729,5.104-2.188c1.458-1.458,2.187-3.646,2.187-5.104v-99.891
		v-29.894C245.143,582.974,242.226,580.058,237.852,580.058z M230.56,611.41l-40.831,12.394l-40.83-12.394V594.64h81.661V611.41z
		 M148.899,706.196v-79.475l38.644,11.666c0.729,0,1.458,0,2.187,0c0.729,0,1.458,0,2.188,0l38.644-11.666v83.119L148.899,706.196z"
		/>
	<path stroke="#FFFFFF" stroke-miterlimit="10" d="M449.298,580.058h-96.245c-4.374,0-7.291,2.916-7.291,7.291v29.894v100.62
		c0,2.187,0.729,3.646,2.188,5.104s2.916,2.187,5.104,2.187l0,0l96.974-5.104c3.646,0,7.291-3.646,7.291-7.29v-95.517v-29.894
		C456.59,582.974,453.672,580.058,449.298,580.058z M442.006,611.41l-40.83,12.394l-40.831-12.394V594.64h81.661V611.41z
		 M360.345,709.841v-83.119l38.644,11.666c0.729,0,1.458,0,2.188,0c0.729,0,1.458,0,2.187,0l38.644-11.666v78.745L360.345,709.841z"
		/>
	<path stroke="#FFFFFF" stroke-miterlimit="10" d="M358.887,482.354c4.374,0,7.29-2.916,7.29-7.29V343.091
		c0-4.374-2.916-7.291-7.29-7.291c-4.376,0-7.292,2.917-7.292,7.291v132.701C351.595,479.438,355.241,482.354,358.887,482.354z"/>
	<path stroke="#FFFFFF" stroke-miterlimit="10" d="M227.644,482.354c4.375,0,7.291-2.916,7.291-7.29V343.091
		c0-4.374-2.916-7.291-7.291-7.291c-4.375,0-7.292,2.917-7.292,7.291v132.701C220.353,479.438,223.269,482.354,227.644,482.354z"/>
</g>
</svg>
